<svg id="_Layer_" data-name="&lt;Layer&gt;" xmlns="http://www.w3.org/2000/svg" viewBox="0 0 2649.59 824.82"><defs><style>.cls-1{fill:#c2d6ff;}.cls-2{fill:#18287d;}.cls-3{fill:#ff9739;}.cls-4{fill:#fd5e5a;}.cls-5{fill:#0f1d5b;}.cls-6{fill:#cd3179;}.cls-7{fill:#749cfe;}.cls-8{fill:#2846a6;}.cls-9{fill:#6068b2;}.cls-10{fill:#fc7575;}.cls-11{fill:#757ad8;}.cls-12{fill:#9195e0;}.cls-13{fill:#fff;}.cls-14{fill:#111f59;}.cls-15{fill:#ffcb57;}.cls-16{fill:#4c3115;}.cls-17{fill:#38200a;}.cls-18{fill:#474644;}.cls-19{fill:#282725;}.cls-20{fill:#6ba843;}.cls-21{fill:#31511c;}.cls-22{fill:#5a9136;}.cls-23{fill:#282b25;}.cls-24{fill:#0b0c0a;}.cls-25{fill:#a02060;}.cls-26{fill:#552e5d;}.cls-27{fill:#fb8603;}.cls-28{fill:#1d329e;}.cls-29{fill:#ecab01;}.cls-30{fill:#ffda88;}.cls-31{fill:#4f80ff;}.cls-32{fill:#47254f;}.cls-33{fill:#db730b;}.cls-34{fill:#363a68;}.cls-35{fill:#1b1464;}.cls-36{fill:#f9b406;}.cls-37{fill:#0b1742;}.cls-38{fill:#4a3f4c;}.cls-39{fill:#413854;}.cls-40{fill:#1b2b80;}.cls-41{fill:#1d266d;}.cls-42{fill:#2a8001;}.cls-43{fill:#432c47;}.cls-44{fill:#542f5a;}.cls-45{fill:#39b54a;}.cls-46{fill:#777087;}.cls-47{fill:#504c59;}.cls-48{fill:#c12506;}.cls-49{fill:#ff6903;}.cls-50{fill:#dd370b;}.cls-51{fill:#ff822e;}.cls-52{fill:#544d49;}.cls-53{fill:#232322;}.cls-54{fill:#171726;}.cls-55{fill:#35354c;}.cls-56{fill:#464660;}.cls-57{fill:#8cc63f;}.cls-58{fill:#653870;}.cls-59{fill:#562504;}.cls-60{fill:#2e56af;}.cls-61{fill:#e24242;}.cls-62{fill:#f57408;}.cls-63{fill:#9b2365;}.cls-64{fill:#ce2e86;}.cls-65{fill:#ffdb92;}.cls-66{fill:#381a3f;}.cls-67{fill:#172866;}.cls-68{fill:#495599;}.cls-69{fill:#232028;}.cls-70{fill:#39223f;}.cls-71{fill:#603e6b;}.cls-72{fill:#c0b4fe;}.cls-73{fill:#6265a8;}.cls-74{fill:#b379c6;}.cls-75{fill:#e55555;}.cls-76{fill:#c5c6fe;}.cls-77{fill:#aaaee5;}.cls-78{fill:#d7d9ff;}.cls-79{fill:#b9bcfc;}.cls-80{fill:#006837;}.cls-81{fill:#4b2654;}.cls-82{fill:#38ab01;}.cls-83{fill:#4875d8;}.cls-84{fill:#6d91e0;}.cls-85{fill:#3658a2;}.cls-86{fill:#9e005d;}.cls-87{fill:#2d1e66;}.cls-88{fill:#22346d;}.cls-89{fill:#301f36;}.cls-90{fill:#c68a05;}.cls-91{fill:#555699;}.cls-92{fill:#6077bd;}.cls-93{fill:#498bea;}.cls-94{fill:#5971ad;}.cls-95{fill:#522b5b;}.cls-96{fill:#f98a8a;}.cls-97{fill:#e3e4ff;}.cls-98{fill:#2a417f;}.cls-99{font-size:352.52px;fill:#dbdbdb;font-family:BritannicBold, Britannic Bold;}</style></defs><path class="cls-1" d="M1079.16,937c0,4.35-90,7.88-201,7.88s-201-3.53-201-7.88,90-7.89,201-7.89S1079.16,932.65,1079.16,937Z" transform="translate(-59.74 -125.8)"/><path class="cls-2" d="M989.49,600.25c13.11-9.38,25.69-1.32,23.42,5.8,1.33-6.9-10.87-12.62-21.3-2.75Z" transform="translate(-59.74 -125.8)"/><path class="cls-2" d="M1012.91,606.05s-.74-4.33-3.53-5.1-10.56-1.59-14.7,5.1a13,13,0,0,1-10.57,6.56,38.07,38.07,0,0,1,3.65,3.21s2.37.44,5.22-2.57c0,0-.24,2.41-5,4,0,0,2.92,2.51,6,1.61a9.62,9.62,0,0,0,4.55-2.82l-1.91,4.74s2.25.63,5-2.3S1012.91,606.05,1012.91,606.05Z" transform="translate(-59.74 -125.8)"/><path class="cls-3" d="M1015.57,607.73s-.84-2.42-2.66-2.42-6.86,1-7.29,3.71,2.67,3.59,5.71,3.59S1015.57,607.73,1015.57,607.73Z" transform="translate(-59.74 -125.8)"/><path class="cls-4" d="M1017.78,663.51s6.51-.9,9.24,2,6.6,49.7,17.15,52.08c0,0,12.61-3.63,18.28-8.15,6.22-4.94,8.11-9.34,8.11-11.63s2.54-6.06,3.39-6.06.76,1.69.76,1.69,6.88-8.45,8-7.26-3.87,6.66-3.87,6.66,5.38-6.66,6.51-6.66-.37,3.16-2,4.86c0,0,2.54-1.61,3.29,0s-5.74,8.46-7.44,12.54-4.26,2.47-5.09,3.87c-12.44,21.08-34.59,27.8-40,19.29S1009,665.89,1017.78,663.51Z" transform="translate(-59.74 -125.8)"/><path class="cls-5" d="M1027,665.5c-2.73-2.89-9.24-2-9.24-2-3.83,1-2.2,11.64,1.3,24,3.86-1.83,7.61-4.42,11.54-6.15C1029.11,673.13,1028,666.52,1027,665.5Z" transform="translate(-59.74 -125.8)"/><path class="cls-6" d="M1080.7,690.63c-1,1.21-1.85,2.2-1.85,2.2S1079.75,691.85,1080.7,690.63Z" transform="translate(-59.74 -125.8)"/><polygon class="cls-7" points="1020.13 556.79 1012.07 574.99 1018.08 578.19 1030.02 560.52 1020.13 556.79"/><polygon class="cls-8" points="1031.74 560.12 1021.82 556.2 1020.13 556.79 1030.02 560.52 1018.08 578.19 1019.49 577.77 1031.74 560.12"/><path class="cls-4" d="M1074,691.74a2.49,2.49,0,0,1,2.17,1.84c.47,1.74,0,2.28-.71,2.28s-1.22-1.69-1.79-1.69a9.77,9.77,0,0,0-2.42,1.16S1072.63,692.19,1074,691.74Z" transform="translate(-59.74 -125.8)"/><path class="cls-4" d="M930.73,910.45l-3.51,4.75s-1.28,1.19,1.27,4.47a17.88,17.88,0,0,1,3.3,9.85c0,2,4.57,3.67,4.57,3.67s-3-13.76-1.7-17.84c.66-2.11,14.73-22.25,28.82-42.27-3.82-2.89-7.42-6.21-11.73-8.57C942.18,885.22,930.73,910.45,930.73,910.45Z" transform="translate(-59.74 -125.8)"/><path class="cls-9" d="M1019.65,781.25a80.84,80.84,0,0,1-27.87-14.31C986,784.17,981,805.21,981,826c0,0-12,3-17.36,13.41-1.91,3.7-6.88,13.71-12.14,25.07,3.64,3.84,8.21,7.16,12,10.06C976.55,856,989.63,836,992,832.15,995.45,826.55,1009.55,801,1019.65,781.25Z" transform="translate(-59.74 -125.8)"/><path class="cls-10" d="M1020.62,664.1a14.57,14.57,0,0,1-1.52-4.77s4-9.94,5.69-15.11-9.22-6.49-9.22-6.49-2.19,14.58-8.4,21.19C1011.06,663.54,1015.72,664.17,1020.62,664.1Z" transform="translate(-59.74 -125.8)"/><path class="cls-4" d="M1015.57,637.73s-.28,1.84-.91,4.49a16.13,16.13,0,0,0,7.24,6.94l1,.45c.73-2,1.42-3.88,1.91-5.39C1026.45,639.05,1015.57,637.73,1015.57,637.73Z" transform="translate(-59.74 -125.8)"/><path class="cls-11" d="M988.89,763.89c8.31,6.71,20.75,14.38,30.76,17.36,1.29-2.53,2.52-5,3.65-7.25a75.27,75.27,0,0,0,6.63-20.37c-10-2-19.34-7.56-28.61-10.88C998.36,749.24,992.07,754.47,988.89,763.89Z" transform="translate(-59.74 -125.8)"/><path class="cls-10" d="M1050.24,878a67.24,67.24,0,0,0-14.13,5.94c9.81,22.86,21.07,48,21.07,48s-2.21,5.88-1.39,6.74,9.37.34,10.72.34,9.62.44,9.62.44l-12.39-6.31C1062.72,931.72,1056.29,904.39,1050.24,878Z" transform="translate(-59.74 -125.8)"/><path class="cls-11" d="M1039.08,828.92c-1.41-6.11-13.24-44.64-19.08-63.54a15.27,15.27,0,0,0-16.12-11c-9.12,1-19.13,6-15.58,23.81,0,0,29.86,45.81,31.75,51.37s-1.89,6.76,2.26,20.28c1.63,5.34,5.72,21.42,12.11,36.31,4.44-2.51,11.13-6.64,16-8.09C1045.18,855,1040,832.71,1039.08,828.92Z" transform="translate(-59.74 -125.8)"/><path class="cls-12" d="M1039.08,828.92c-2.25-7-12.26-36.65-19.73-63.09-1.75-6.86-8.4-12-15.47-11.5,7.11-1.3,14.39,3.28,16.9,11C1025.93,780.71,1035.89,813.27,1039.08,828.92Z" transform="translate(-59.74 -125.8)"/><polygon class="cls-13" points="1020.96 558.46 1028.05 561.12 1018.63 576.1 1014.01 573.51 1018.53 575.75 1027.65 561.26 1020.96 558.46"/><path class="cls-4" d="M1078.78,704.49a22,22,0,0,1,3.47-3.16c1.79-1.24,4.09-4.46,3.39-5.47s-7.07-.59-7.82.9,3.65.75,4,1.09S1078.78,704.49,1078.78,704.49Z" transform="translate(-59.74 -125.8)"/><path class="cls-14" d="M974.7,682.93c-.21.18-21,18.09-25.09,42.5a.31.31,0,0,0,.24.36h0a.3.3,0,0,0,.29-.26c4-24.18,24.68-41.94,24.89-42.11a.33.33,0,0,0,0-.45A.3.3,0,0,0,974.7,682.93Z" transform="translate(-59.74 -125.8)"/><path class="cls-10" d="M1027.91,617.88s6.37-.6,7.36,4.62-2.78,10-1.84,12a7.78,7.78,0,0,0,3.6,3.34c.57.26-.49,2-1.41,2.35,0,0-.41,1-.14,1.23s.92.79.7,1.46-1.3,1-1.3,1,1.07,1.18.53,1.75a4.47,4.47,0,0,1-1.7.9s.28,2.65-.92,3.43-4.83-.25-7.94-1.64c-.75-.34-1.8-.79-2.95-1.29a16,16,0,0,1-9.51-14.94C1012.5,623.89,1015.3,614.83,1027.91,617.88Z" transform="translate(-59.74 -125.8)"/><path class="cls-8" d="M1024.79,619.89a6.24,6.24,0,0,1,1.92,4.92c0,3.21-.35,3.58-.35,3.58h3.82s.77-4,.42-5.14a43.65,43.65,0,0,1,.5,5.14h9.27s1.89-12.22-7.08-19.08-19.44-.75-19.44-.75-7.07-.74-9.83,5-3.81,21.26.63,26.57c2.15,2.57,12.87,3.91,13.79-2.72s3.89-9.32,3.89-9.32a7.23,7.23,0,0,1,1.7,5.07,36.55,36.55,0,0,0,.07-8.57C1023.53,620.64,1024.79,619.89,1024.79,619.89Z" transform="translate(-59.74 -125.8)"/><path class="cls-8" d="M1032.48,642.46c-.61.67,1.42,1.22,2.4,1.4-.76-.07-2.56-.28-2.74-1.06-.06-.29.12-.74.32-.57a.15.15,0,0,1,0,.21v0Z" transform="translate(-59.74 -125.8)"/><path class="cls-8" d="M1032.82,633.71a1.24,1.24,0,0,1-.69,1.45Z" transform="translate(-59.74 -125.8)"/><path class="cls-5" d="M1030.06,633.17c1.36.22,3.83.38,4.82-.63C1034.28,633.92,1031.54,634.09,1030.06,633.17Z" transform="translate(-59.74 -125.8)"/><path class="cls-15" d="M1038.33,684.38c-3.14-3.31-13.72-12.14-17.71-20.28-4.9.07-9.56-.56-13.45-5.18a11.8,11.8,0,0,1-2.2,1.9c-7.92,5.07,0,32.51,0,32.51s6.17,32.39,4.08,34.59a52.08,52.08,0,0,0-10.29,14.83c7.35,7.75,24.73,15.5,34.74,17.5.29-1.63,1.75-52.14,3.69-57.18C1040,695.71,1042.1,688.36,1038.33,684.38Z" transform="translate(-59.74 -125.8)"/><path d="M663.31,867c-12.28-8.18-17.63-22.89-11.91-33.46s20.44-13.2,33.37-6.21l1.58-2.92c-14.48-7.91-31.12-4.73-37.72,7.47s-.72,28.91,13.1,38Z" transform="translate(-59.74 -125.8)"/><path d="M663.31,867c-12.28-8.18-17.63-22.89-11.91-33.46s20.44-13.2,33.37-6.21l1.58-2.92c-14.48-7.91-31.12-4.73-37.72,7.47s-.72,28.91,13.1,38Z" transform="translate(-59.74 -125.8)"/><path d="M667.82,864.3c-13.32-8.61-20.57-21.68-16.23-29.69s18.69-8.09,32.5-.38l1.2-2.21c-15.49-8.7-31.68-8.45-36.68.79s3,24.08,18,33.71Z" transform="translate(-59.74 -125.8)"/><path class="cls-16" d="M644.9,848.27l8.65-2s-2.25-11.34,9.47-17l-3.44-9.07s-7.77,2.09-13.38,12.53C642.44,839.68,644.9,848.27,644.9,848.27Z" transform="translate(-59.74 -125.8)"/><path class="cls-17" d="M652.5,846.47l1-.25s-2.25-11.34,9.47-17l-.33-.89C651.09,833.36,652,843.62,652.5,846.47Z" transform="translate(-59.74 -125.8)"/><polygon class="cls-18" points="725.19 637.52 687.2 707.77 681.09 704.09 719.09 633.85 725.19 637.52"/><polygon class="cls-19" points="719.09 633.85 719.09 633.85 722.65 635.99 684.65 706.24 687.2 707.77 725.19 637.52 719.09 633.85"/><path class="cls-20" d="M750.08,827.76a7.76,7.76,0,0,0-2.34-10.06c-.78-.53-1.58-1-2.39-1.52-27.49-16.55-62.49-6.45-78.18,22.54s-6.11,65.91,21.38,82.46c.81.49,1.63,1,2.46,1.4a6.93,6.93,0,0,0,9.4-3Z" transform="translate(-59.74 -125.8)"/><path class="cls-21" d="M747.63,817.1a54.27,54.27,0,0,0-48.9-5.73,55,55,0,0,1,48.44,6.5,7.23,7.23,0,0,1,2.94,8.67c-.37,1.11-30,55.24-49.7,93,10.33-18.39,49.89-90.67,50.55-92.69A8.17,8.17,0,0,0,747.63,817.1Z" transform="translate(-59.74 -125.8)"/><path class="cls-22" d="M747.74,817.7c-.78-.53-1.58-1-2.39-1.52a54.59,54.59,0,0,0-49.89-3.54,54.41,54.41,0,0,1,26.75,7.11c1.29.73,2.53,1.49,3.74,2.3a7.8,7.8,0,0,1,2.31,10.1l-45.85,84.77a58.22,58.22,0,0,0,6.14,4.26c.81.49,1.63,1,2.46,1.4a6.93,6.93,0,0,0,9.4-3l49.67-91.82A7.76,7.76,0,0,0,747.74,817.7Z" transform="translate(-59.74 -125.8)"/><path class="cls-23" d="M745.35,836.49l-.75-.46c-20.71-12.47-46.21-6.45-57,13.43s-2.69,46.11,18,58.57c.26.16.51.29.77.44Z" transform="translate(-59.74 -125.8)"/><path class="cls-24" d="M744.6,836c-15.86-9.55-34.54-8.24-47.24,1.83,11.94-5.59,26.81-5.05,39.81,2.77l.75.47-35.18,65c1,.67,1.91,1.31,2.91,1.91.26.16.51.29.77.44l38.93-72Z" transform="translate(-59.74 -125.8)"/><polygon points="705.54 658.88 711.65 662.56 725.19 637.52 716.81 632.48 705.54 658.88"/><path d="M702.47,912.16a12.78,12.78,0,0,1,4.39,16.91,11.43,11.43,0,0,1-16,4.63,12.78,12.78,0,0,1-4.39-16.92A11.43,11.43,0,0,1,702.47,912.16Z" transform="translate(-59.74 -125.8)"/><path class="cls-18" d="M700.1,916.53a7.59,7.59,0,0,1,2.61,10.05,6.8,6.8,0,0,1-9.53,2.75,7.59,7.59,0,0,1-2.6-10.05A6.79,6.79,0,0,1,700.1,916.53Z" transform="translate(-59.74 -125.8)"/><path d="M878,913.33c3.79,2.5,5.11,8.09,3,12.47s-7,5.92-10.78,3.41-5.1-8.08-2.94-12.47S874.23,910.83,878,913.33Z" transform="translate(-59.74 -125.8)"/><path class="cls-6" d="M866.68,918.69l-33-17.62a9.89,9.89,0,0,1-4-13l35.65-74.27c8.17-17,27.88-23.84,44-15.22L930.7,810,880.91,913.77A10.34,10.34,0,0,1,866.68,918.69Z" transform="translate(-59.74 -125.8)"/><path class="cls-6" d="M909,855.3l-49.48-26.42a7.52,7.52,0,0,1-3.06-9.84l7.35-15.31C870,790.8,885,785.62,897.23,792.17L930.7,810Z" transform="translate(-59.74 -125.8)"/><path class="cls-25" d="M869.55,920.22l-9.2-4.91a7.28,7.28,0,0,1-3-9.53L898,821.09c6-12.52,20.52-17.54,32.39-11.2l.28.15L879.46,916.79A7.19,7.19,0,0,1,869.55,920.22Z" transform="translate(-59.74 -125.8)"/><path class="cls-26" d="M949.77,765.28l-8.67-.58a5.45,5.45,0,0,0-5.24,3.12l-28.29,58.1h6.24l27.46-56.6a5.27,5.27,0,0,1,5.24-3.08l2.66.25-29.26,59.39,3.16,0,27.73-56.69a3.12,3.12,0,0,0-1-4Z" transform="translate(-59.74 -125.8)"/><path class="cls-26" d="M941.1,764.7c-6.38-.23-4.1,5.22-33.53,61.22,2.53-5.63,26.83-57.71,29.51-59.92A5.36,5.36,0,0,1,941.1,764.7Z" transform="translate(-59.74 -125.8)"/><polygon class="cls-26" points="841.8 700 863.33 700.13 827.97 773.79 805.83 773.79 841.8 700"/><path d="M858.5,907.87c5,3.29,6.71,10.63,3.87,16.39s-9.18,7.77-14.16,4.48-6.71-10.62-3.87-16.38S853.52,904.58,858.5,907.87Z" transform="translate(-59.74 -125.8)"/><path class="cls-18" d="M856.41,912.11c3,1.95,4,6.31,2.3,9.73s-5.45,4.62-8.41,2.67-4-6.31-2.3-9.74S853.45,910.16,856.41,912.11Z" transform="translate(-59.74 -125.8)"/><path class="cls-4" d="M847.75,644.64s-3.59-2.16-13.15,6.59c-18.87,17.28-44.82,50.79-53.61,100l-9.16,10.7s-2.46,1,2,2.52c0,0,1.1,2.44,2.53,2.14,0,0,1.1,1.3,2.29.8s.77-2,.77-2l5.51-14.17s20.25-39.81,30.49-53.74S855.94,652.21,847.75,644.64Z" transform="translate(-59.74 -125.8)"/><path class="cls-27" d="M806,682l13.93,15.4s27.7-36.88,29.22-44.09.28-9.68-2.81-9.53C833.33,644.41,806,682,806,682Z" transform="translate(-59.74 -125.8)"/><path class="cls-2" d="M859.58,648.33s-6.49-5.93-14.78-3-23,49.78-26.84,72.06c-.6,3.43-6.41,30.67-4.6,37.7,10,38.68,48.71,97.59,48.71,97.59l26.34,77.51s-2.23,8.18-1.42,10.29,4.94,0,8.42,0,12.43,1.7,13.1,1.7,7.22-1.84,7.22-1.84-14.17-2.25-19-11.56-15.1-86.3-15.1-86.3-18.94-106-19.57-116.62,7.4-67.41,4.06-72.49S859.58,648.33,859.58,648.33Z" transform="translate(-59.74 -125.8)"/><path class="cls-28" d="M813.36,755.12l.63,78.5s-25.94,77.28-29.68,81.23-13.16,12.52-13.16,12.52,6.23,4.67,9.89,8c4.64,4.17,8.62,4,19.85,4s-3.25-3.09-5.89-5.87c-4.84-5.11-2.13-16.36-2.13-16.36l41.44-72.51s19.7-63,27.76-65.4l2-32.15Z" transform="translate(-59.74 -125.8)"/><path class="cls-7" d="M861.73,778.91c-8.09,3.3-25.44,56.78-28.09,65.36-1.71,3-26.3,46.08-40.77,72.83,12.81-21.25,32.51-55.49,42.11-72.18l0-.08c22.48-69.74,27.1-64.7,27.42-65.37,0-.08.81-16.89,1-22.29C862.83,764.42,862.3,771.67,861.73,778.91Z" transform="translate(-59.74 -125.8)"/><path class="cls-8" d="M824.33,838.05l0-.14c.34-3.1,8.29-76.08,8.29-80.57a.39.39,0,0,0-.38-.4.38.38,0,0,0-.37.4c0,4.38-8,77.74-8.28,80.42L788,913.15l-2-1.45q-.16.38-.33.72l7.22,5.19,0-.51.19-.34-4.4-3.15Z" transform="translate(-59.74 -125.8)"/><path class="cls-15" d="M866.81,725.8c-.63-10.58,2.66-67.32-.68-72.4s-6.55-5.07-6.55-5.07-5.7-8.67-15.64-4.94c-8.25,3.09-26.61,50.49-30.49,72.77-.59,3.43-6.1,39.36-4.28,46.4,0,.05,64.83,4.38,64.83,4.38C872.1,755.32,867,728.47,866.81,725.8Z" transform="translate(-59.74 -125.8)"/><path class="cls-29" d="M862.49,756.76a21.1,21.1,0,0,0,8.9-4.7c-.25-1.38-.5-2.78-.76-4.17-18,12.17-42.86,9.71-61.45,2.28-.14,1.76-.25,3.42-.31,5a97.64,97.64,0,0,0,16.44,3.77,10.06,10.06,0,0,0,2.62,5l29,1.95A10,10,0,0,0,862.49,756.76Z" transform="translate(-59.74 -125.8)"/><path class="cls-10" d="M864.08,629.14s-10.85,10.18-13.59,15c-1.39,2.42,4.66,6.52,9.81,9.27a3.77,3.77,0,0,0,5.08-1.62L874,636.06Z" transform="translate(-59.74 -125.8)"/><path class="cls-4" d="M864.08,629.14s-2,1.86-4.46,4.36c2.58,2.49,4,7.48,6.79,12a7.07,7.07,0,0,0,1.47,1.71L874,636.06Z" transform="translate(-59.74 -125.8)"/><path class="cls-14" d="M863.37,589.92c-1.25,3.65-1.57,8.65.81,11.89l-.19.2c-3.2-2.94-3.83-8.44-3.21-12.79Z" transform="translate(-59.74 -125.8)"/><path class="cls-14" d="M855.52,596.75c2.36,2,7.55,5.8,10.52,5.19l.06.27c-3.08.92-8.79-2.52-11.41-4.39Z" transform="translate(-59.74 -125.8)"/><path class="cls-10" d="M881.82,601.53s6.59,4,6.59,11.85-3.3,19.84-3.3,19.84l-2.85-.76s.58,2.12-.44,3.2c0,0,.33.68,0,1a9.41,9.41,0,0,0-3.44,3.25c-1.11,2.11-8.06,3.57-11.14-.85s-3.21-8-6.46-9.73S859.76,594.25,881.82,601.53Z" transform="translate(-59.74 -125.8)"/><path class="cls-2" d="M874.55,606.14s9.63,9,14.71,9,14.22-6.61,12-14.67a84.25,84.25,0,0,0-3.61-8.46s-2.81,10.29-13.23,7.47l4.81-7.47L885,588.65l-8.69,5.93s-3.88-3.67-8.56-1.13-3.65,8.46-3.65,8.46-10.12-.85-11.85,5.36,0,12.55,0,17.34,7.51,8.76,7.51,8.76l4.34-4.23s-1.29-5.65.71-10.45,3.88-1,3.88-1Z" transform="translate(-59.74 -125.8)"/><path class="cls-10" d="M867.67,617.84s-.34-5.21-5.28-5.57-6.12,6.46-3.75,9a5.28,5.28,0,0,0,7.36.49A7.47,7.47,0,0,0,867.67,617.84Z" transform="translate(-59.74 -125.8)"/><path class="cls-4" d="M866.06,618.34s.27-3.46-3-3a2.63,2.63,0,0,0-.49,5.14C865,621,866.06,618.34,866.06,618.34Z" transform="translate(-59.74 -125.8)"/><path class="cls-8" d="M881.82,635.66c-3.42-.88-2.31-1.47-2.1-1.22A7.45,7.45,0,0,0,881.82,635.66Z" transform="translate(-59.74 -125.8)"/><path class="cls-8" d="M882.26,632.46a1.34,1.34,0,0,1-1.14-1.55c.06-1.35.54-.81.48-.61C881.26,631.37,881.2,632,882.26,632.46Z" transform="translate(-59.74 -125.8)"/><path class="cls-13" d="M866.09,618.92a1.65,1.65,0,1,0-1.65,1.78,1.84,1.84,0,0,0,.41-.05v3.66h1.25v-5.39Z" transform="translate(-59.74 -125.8)"/><path class="cls-8" d="M884.13,622.89c-.41.74-1.14,1.11-1.63.81s-.56-1.15-.15-1.9,1.15-1.11,1.64-.81S884.54,622.13,884.13,622.89Z" transform="translate(-59.74 -125.8)"/><path class="cls-8" d="M879.54,618.35c2-1.82,5.28-3.76,6.6-1.34a.39.39,0,1,1-.66.4c-1-1.85-4.06.25-5.44,1.54C879.66,619.3,879.17,618.7,879.54,618.35Z" transform="translate(-59.74 -125.8)"/><path class="cls-14" d="M691,766.78c8.08-7.24,24.43-.59,25.12-.3a.3.3,0,0,1,.16.39.28.28,0,0,1-.37.17c-.16-.07-16.72-6.81-24.54.2C691.09,767.49,690.72,767,691,766.78Z" transform="translate(-59.74 -125.8)"/><path class="cls-14" d="M663.72,801.43c16.07-23.59,39.57-11.82,39.8-11.7s.09.71-.25.53S680,778.6,664.18,801.78a.26.26,0,0,1-.39.07A.32.32,0,0,1,663.72,801.43Z" transform="translate(-59.74 -125.8)"/><path class="cls-2" d="M904.68,604.9c3.3-12.76-10.11-23-10.25-23.11-.3-.23,0-.71.33-.48.14.1,13.87,10.59,10.46,23.75A.28.28,0,1,1,904.68,604.9Z" transform="translate(-59.74 -125.8)"/><path class="cls-10" d="M855.71,657.79c7.9,7.89-25.2,31.55-35.94,45.05s-29.14,54.72-29.14,54.72l-8.21,12.94-2,.73c-1.21.45-2.25-.89-2.25-.89-1.45.24-2.45-2.25-2.45-2.25-1.69-.67-2.36-1.2-2.55-1.61h0c-.91-.82.35-8,1.35-8.32.7-.27,1,3.25,1.15,5.33l7.69-8.3c10.6-48.81,26.46-78.06,46-94.46S855.71,657.79,855.71,657.79Z" transform="translate(-59.74 -125.8)"/><path class="cls-30" d="M826.39,699.09l-20.78-14s20.1-25.9,31.32-31.4,19.7-2.34,21.1,1.84,2.45,6.89-4.73,15.19S826.39,699.09,826.39,699.09Z" transform="translate(-59.74 -125.8)"/><path class="cls-13" d="M846.69,650.82c4.1-.44,9.71.39,11.49,4.26,1.27,3.35,1.86,5.61.35,8.87-3.46,7.55-26.22,29.49-32.14,35.14,31.6-34.33,34.45-34.48,31.23-43.74a6.33,6.33,0,0,0-2.83-2.91A15,15,0,0,0,846.69,650.82Z" transform="translate(-59.74 -125.8)"/><path class="cls-10" d="M1009.77,665a10.28,10.28,0,0,0-6.33-2.67c-3.54,0-27,32.79-33.09,43.82-5.82,10.57-23.39,42-27.16,48.56l-2.83,6.79a6.69,6.69,0,0,0,.81,6.56l.46.61a11.59,11.59,0,0,0,2.47.3,11,11,0,0,0,2.1-1,4.14,4.14,0,0,0,1.18,0,8.79,8.79,0,0,0,1.79-1.49L948,758.91c24.17-45.59,55.43-72,64.37-77.21C1017.73,678.56,1009.77,665,1009.77,665Z" transform="translate(-59.74 -125.8)"/><path class="cls-2" d="M1011,662.33c-1.12-1.79-3.35-3.76-8.06-1.16-2.31,1.27-15.33,18.75-24.64,32.5A55.76,55.76,0,0,1,986.88,704c11.53-12.26,21.18-19.78,25.51-22.33C1017.73,678.56,1013.49,666.38,1011,662.33Z" transform="translate(-59.74 -125.8)"/><path class="cls-31" d="M1003.8,688a66.89,66.89,0,0,1,5.88-4.92c1-.79,2.19-1.4,3.08-2.14a5.36,5.36,0,0,0,1.65-3.21,19.76,19.76,0,0,0-.68-7.88,36,36,0,0,0-2.78-7.51,27,27,0,0,1,3.35,7.31,19.49,19.49,0,0,1,.87,8.24,6.24,6.24,0,0,1-2,3.67,13.59,13.59,0,0,1-1.61,1.07l-1.58,1C1007.9,685,1005.86,686.52,1003.8,688Z" transform="translate(-59.74 -125.8)"/><path class="cls-32" d="M808.8,747.94c17.14,4.09,48.56,8.13,61.57-4.34l1.38,5.34c-4.71,5-8.18,5.31-14,7-15.39,4-36.23,1.43-49.59-3.25Z" transform="translate(-59.74 -125.8)"/><rect class="cls-26" x="767.27" y="620.35" width="33.54" height="18.53" rx="9.27"/><path d="M843.13,757.85a25,25,0,0,1-10.94-2.54l-2.59-1.26a.53.53,0,0,1-.24-.68.49.49,0,0,1,.65-.25l2.58,1.26a24,24,0,0,0,24.07-1.74.47.47,0,0,1,.67.16.53.53,0,0,1-.15.71A25.11,25.11,0,0,1,843.13,757.85Z" transform="translate(-59.74 -125.8)"/><path class="cls-26" d="M929.7,911.85l-6,4s3,3.33,3.88,6.4,2,9.92,5.47,11a11.46,11.46,0,0,0,5.53.53s-2.73-4-2.92-4.94a5.4,5.4,0,0,1-3.15-3.07C931.62,923.33,931.25,911.85,929.7,911.85Z" transform="translate(-59.74 -125.8)"/><path class="cls-26" d="M1056.29,934.64l-1.46,4.86h22.6s-6.84-3.8-8.77-3.8c0,0-6,1.08-8.32.65A10.78,10.78,0,0,1,1056.29,934.64Z" transform="translate(-59.74 -125.8)"/><path class="cls-10" d="M1018.78,625.09c-2.1,2.22-2.59,7.94-.89,8.62s4.91-.42,4.91-4.56C1022.8,629.15,1020.89,622.86,1018.78,625.09Z" transform="translate(-59.74 -125.8)"/><path class="cls-4" d="M1021.46,629.61s-.81-3.33-2.11-2-1.91,3.9-1,4.89S1021.2,632.7,1021.46,629.61Z" transform="translate(-59.74 -125.8)"/><path class="cls-1" d="M433.88,940.62c0,3.18-81.92,5.76-183,5.76s-183-2.58-183-5.76,81.93-5.76,183-5.76S433.88,937.44,433.88,940.62Z" transform="translate(-59.74 -125.8)"/><path class="cls-33" d="M387.41,748.5s5.46.45,7.74-.44,3.1,1,4.06,1,2.66-3.42,1.94-4.49c-1.44-2.12-9.68-1.83-11.75-1.83s-3.77,3.29-3.77,4S387.41,748.5,387.41,748.5Z" transform="translate(-59.74 -125.8)"/><path class="cls-10" d="M305.68,743.46s-7.92-1.15-8.9-2.33c-1.13-1.35-2.78-3.4-4.63-5.9a15.87,15.87,0,0,0-7.14,5.63l.26.27c5.31,5.56,9.33,9.41,9.33,9.41l13,5.49Z" transform="translate(-59.74 -125.8)"/><path class="cls-3" d="M382.25,727.4c-3.78-3.81-6.17-26.31-6.25-27-.68-20.14-2.69-42.27-8.57-48.2-9.1-9.17-14-3-18.28,13.78-1.2,4.68.38,13.13,3.29,22.46,3.21,13.75,8.11,33,11.72,39.34,5.81,10.16,22.73,20.43,22.73,20.43,4.8-6.89,14.26-3.56,14.26-3.56S386.08,731.26,382.25,727.4Z" transform="translate(-59.74 -125.8)"/><path class="cls-34" d="M356.79,938.17c-12.08,0-13.61-14.46-13.61-14.46l10.46-71.63,11.29-85.61-3.19-25.34H299.61l-.44,22.33-.88,87,13,71.63s-1.53,14.47-13.61,14.47S285.91,941,285.91,941h35.35s-2.06-16-2.06-17.51S317,844.65,317,844.65l13.41-70.5,5.24,74s-.36,75.47-.36,77-2.06,17.52-2.06,17.52h35.36S368.87,938.17,356.79,938.17Z" transform="translate(-59.74 -125.8)"/><path class="cls-35" d="M362.16,744.46l-.42-3.33H299.61l-.06,2.92,13,4a60.68,60.68,0,0,0,32.71.75Z" transform="translate(-59.74 -125.8)"/><path class="cls-36" d="M366.05,650.31c-6.76-6.81-22.39-17.67-39.63-15,0,0-17.34-.83-36.68,18.65s-28.94,39-30.05,50.54c-.73,7.65,14.74,27.81,25.32,38.91,1.84-2.51,4.21-7,7.14-8.13-5-6.72-11.41-16.72-13.23-25.65-3.1-15.15,19.44-32.29,19.44-32.29l0,66.4,64.21.66,6.11-64.63S372.8,657.11,366.05,650.31Z" transform="translate(-59.74 -125.8)"/><path class="cls-10" d="M323.62,620.36s-.2,14.65-1.76,22.11a6,6,0,0,0,3.61,6.91,14.92,14.92,0,0,0,8,.67c8.69-1.48,9-10.24,9-10.24l-2.93-26.72Z" transform="translate(-59.74 -125.8)"/><path class="cls-4" d="M339.55,613.09l-15.93,7.27s-.07,5.41-.48,11.33c4.16.18,9.38-1.93,14.92-8.31.82-.94,1.59-1.88,2.31-2.81Z" transform="translate(-59.74 -125.8)"/><path class="cls-10" d="M324.65,582.81a25.61,25.61,0,0,0-7.8,11.13c-2.36,7-4.42,12-4.42,12l2.5,1.49s-2,9.74-.44,13.06c2.36,5,12.3,9.13,23.57-2.22s12.22-21.38,10.31-26.28S329.07,580.28,324.65,582.81Z" transform="translate(-59.74 -125.8)"/><path class="cls-37" d="M341.59,593.79a14.63,14.63,0,0,0-12.22-2.37c-7.22,1.78-9.65-1-8.25-2.38,0,0-6.34.15-8.69-5s-1.77-20.93,9.42-18,8.94,10.1,8.94,10.1,3.59-3.42,7-1.63,2.95,4.3,2.95,4.3,3.09,5.79,7.36,6.53,3.83,9.35,3.83,9.35,2.51,1.78.74,8-12.17,15.83-12.17,18.8c0,0-2.56-3.81-.5-9.89S342,602,339.83,602,341.59,593.79,341.59,593.79Z" transform="translate(-59.74 -125.8)"/><path class="cls-10" d="M338.41,606s.72-5.12,2.32-5.12,3.09.56,2.7,3.45-2,6.13-4.14,4.79A2.15,2.15,0,0,1,338.41,606Z" transform="translate(-59.74 -125.8)"/><path class="cls-37" d="M357.4,594.25a1.72,1.72,0,0,0-.91-1c-1.39-.6-3.25.69-4.48,1.58l-.21-.25a9.43,9.43,0,0,1,2.93-2.27,3,3,0,0,1,4.1,1.47Z" transform="translate(-59.74 -125.8)"/><path class="cls-37" d="M356.28,600.55a5.2,5.2,0,0,0,0-2.22c-.89-3.58-5.22-3.27-5.43-3.37v-.23c.12,0,6.26-1.15,7.14,4.63a6.35,6.35,0,0,1,.07,1.54Z" transform="translate(-59.74 -125.8)"/><path class="cls-8" d="M323.37,598.39c0,1.26-.55,2.28-1.23,2.28s-1.24-1-1.24-2.28.56-2.28,1.24-2.28S323.37,597.13,323.37,598.39Z" transform="translate(-59.74 -125.8)"/><path class="cls-8" d="M326.44,594.71a9.13,9.13,0,0,0-5.46-.87l-.15-.88a9.92,9.92,0,0,1,6.07,1Z" transform="translate(-59.74 -125.8)"/><path class="cls-13" d="M323.87,611.4c-3,1-7.17.69-9.63.35-.09.72-.17,1.48-.23,2.25C320.41,614.2,323.87,611.4,323.87,611.4Z" transform="translate(-59.74 -125.8)"/><path class="cls-38" d="M417.71,746.77h-23a6.57,6.57,0,0,0-6.54,6.58v106.7a6.58,6.58,0,0,0,6.54,6.59h23a6.57,6.57,0,0,0,6.54-6.59V753.35A6.56,6.56,0,0,0,417.71,746.77Zm2.71,113.28a2.71,2.71,0,0,1-2.71,2.72h-23a2.71,2.71,0,0,1-2.7-2.72V753.35a2.71,2.71,0,0,1,2.7-2.72h23a2.71,2.71,0,0,1,2.71,2.72Z" transform="translate(-59.74 -125.8)"/><path d="M426.31,821.92h-7.26c-.18-.14-3.54-6.27-13.26-6.27-9.47,0-13.17,6.21-13.25,6.27H385V820h6.62c6.49-8.33,21.92-8.36,28.43,0h6.3Z" transform="translate(-59.74 -125.8)"/><path d="M418.53,746.77H393.89a6.81,6.81,0,0,0-7,6.58v11.44h5.61V753.35a2.67,2.67,0,0,1,2.61-2.72h22.2a2.67,2.67,0,0,1,2.61,2.72v11.44h5.61V753.35A6.81,6.81,0,0,0,418.53,746.77Z" transform="translate(-59.74 -125.8)"/><path class="cls-39" d="M384.16,942.28h-1.44a5.84,5.84,0,0,1-5.82-5.87h7.26Z" transform="translate(-59.74 -125.8)"/><path d="M380.54,936.49c.14,3.23,1.79,5.79,3.8,5.79s3.66-2.56,3.8-5.79Z" transform="translate(-59.74 -125.8)"/><path class="cls-39" d="M429.91,942.28h-1.44a5.85,5.85,0,0,1-5.83-5.87h7.27Z" transform="translate(-59.74 -125.8)"/><path d="M426.29,936.49c.14,3.23,1.78,5.79,3.8,5.79s3.65-2.56,3.79-5.79Z" transform="translate(-59.74 -125.8)"/><rect class="cls-40" x="299.99" y="695.16" width="90.69" height="116.17" rx="27.75"/><rect class="cls-8" x="302.22" y="695.16" width="86.22" height="116.17" rx="27.06"/><path class="cls-40" d="M384,832.08v99a3.47,3.47,0,0,0,3.26-3.47V835.55A3.47,3.47,0,0,0,384,832.08Z" transform="translate(-59.74 -125.8)"/><path class="cls-40" d="M425.31,832.08v99a3.47,3.47,0,0,0,3.25-3.47V835.55A3.46,3.46,0,0,0,425.31,832.08Z" transform="translate(-59.74 -125.8)"/><path class="cls-40" d="M417.05,832.08v99a3.47,3.47,0,0,0,3.25-3.47V835.55A3.46,3.46,0,0,0,417.05,832.08Z" transform="translate(-59.74 -125.8)"/><path class="cls-40" d="M408.79,832.08v99a3.47,3.47,0,0,0,3.25-3.47V835.55A3.46,3.46,0,0,0,408.79,832.08Z" transform="translate(-59.74 -125.8)"/><path class="cls-40" d="M400.52,832.08v99a3.47,3.47,0,0,0,3.26-3.47V835.55A3.47,3.47,0,0,0,400.52,832.08Z" transform="translate(-59.74 -125.8)"/><path class="cls-40" d="M392.26,832.08v99a3.47,3.47,0,0,0,3.26-3.47V835.55A3.47,3.47,0,0,0,392.26,832.08Z" transform="translate(-59.74 -125.8)"/><rect class="cls-41" x="360.11" y="679.86" width="27.13" height="10.06"/><path class="cls-10" d="M287.94,688.05c-.54,0-.15-.25-.15-.25s9.62.61,9.4-1c-.16-1.18-6.11-.46-10.57-1.38-.39-.08-.65-.52-.32-.71,1.86-1.05,4.54-2.73,2.82-2.83-2.5-.13-6.55,4.36-8.45,4.26-1.37-.07-32.15,2.75-34.61,1.54-8.38-4.08-23.78-54.07-29.65-56.93s-6,14.93-1.48,27.91l22.88,38.57c3.7,4.7,41.84-2.52,41.84-2.52s17.11.35,17-.64c-.09-.64-5.05-.54-6.59-1.09-.29-.1-.29-.5,0-.51,2.7,0,8.18-.14,8.91-1s-8.23-.74-10.31-.89c-.4,0-.31-.47-.31-.47s11.14.19,11.69-.69C300.87,688.1,290.77,688.06,287.94,688.05Z" transform="translate(-59.74 -125.8)"/><path class="cls-4" d="M229.62,683.44l4.37,7.37,7.82-7.82c-1-1.57-2-3.44-3.11-5.54Z" transform="translate(-59.74 -125.8)"/><path class="cls-42" d="M216.41,630.77c-5.87-2.87-6,14.93-1.48,27.91l13.86,30.93A114.16,114.16,0,0,1,240.61,681C232.15,666.25,221.16,633.08,216.41,630.77Z" transform="translate(-59.74 -125.8)"/><path class="cls-43" d="M214.12,722.42l7.35,124.32s-7.24,84.08,2.3,86.49A32.48,32.48,0,0,1,238.36,941c.84.86-14.07-1.49-18.38-.69-10,1.85-5.86-8.65-5.86-8.65s-12-72.4-8.74-84.9-21.14-88.23-21.14-88.23Z" transform="translate(-59.74 -125.8)"/><path class="cls-44" d="M159,763.38c-4.13,28.25-4.59,46.37-4.59,46.37a230.2,230.2,0,0,0-8.27,23.09c-4.6,14.82,10.11,89.39,10.11,94.48s-4.6,16.92-4.6,16.92,5.52,5.31,11.49,5.31S160.8,925,160.8,925s7.39-89.39,9.9-101.43,11.93-48.86,25.49-62.52c0,0,17.92-31,17.92-38.44,0,0,0-.14,0-.2a270.77,270.77,0,0,0-37.41-3.37C170.54,730.43,161.75,744.38,159,763.38Z" transform="translate(-59.74 -125.8)"/><path class="cls-45" d="M216.41,630.77c-9.19-5.41-20.22-5.87-20.22-5.87s-13.33,3.71-19.76,10.19,8.73,54.85,6.43,68.88c-.75,4.59-3.14,9.53-6.15,15.08a270.77,270.77,0,0,1,37.41,3.37C214.28,714.09,225.54,636.13,216.41,630.77Z" transform="translate(-59.74 -125.8)"/><path class="cls-10" d="M197.68,608.11s-4.13,18.88-.57,25.36c2,3.65,5.64,4.31,8.44,4.19a3.67,3.67,0,0,0,3.42-4.13c-.63-5.48-1.58-16-.26-20.55C210.55,606.61,197.68,608.11,197.68,608.11Z" transform="translate(-59.74 -125.8)"/><path class="cls-4" d="M197.92,608.09a37.48,37.48,0,0,0,8.64,6.6c.58.33,1.14.63,1.68.91a16.11,16.11,0,0,1,.47-2.62C210.4,607.13,199.68,607.92,197.92,608.09Z" transform="translate(-59.74 -125.8)"/><path class="cls-46" d="M99.63,772.66a1.56,1.56,0,0,1,1.48-1.64h25.51a1.56,1.56,0,0,1,1.48,1.64V818h4.52V772.66c0-3.65-2.69-6.62-6-6.62H101.11c-3.31,0-6,3-6,6.62V818h4.52Z" transform="translate(-59.74 -125.8)"/><path class="cls-47" d="M83.12,944.7h0a1.61,1.61,0,0,1-1.61-1.62v-9a1.62,1.62,0,0,1,1.61-1.62h0a1.62,1.62,0,0,1,1.61,1.62v9A1.61,1.61,0,0,1,83.12,944.7Z" transform="translate(-59.74 -125.8)"/><path d="M87.19,944.7h0a1.61,1.61,0,0,1-1.61-1.62v-9a1.62,1.62,0,0,1,1.61-1.62h0a1.63,1.63,0,0,1,1.62,1.62v9A1.62,1.62,0,0,1,87.19,944.7Z" transform="translate(-59.74 -125.8)"/><rect x="24.99" y="809.06" width="1.71" height="8.08"/><path class="cls-47" d="M140.29,944.7h0a1.61,1.61,0,0,1-1.61-1.62v-9a1.62,1.62,0,0,1,1.61-1.62h0a1.62,1.62,0,0,1,1.61,1.62v9A1.61,1.61,0,0,1,140.29,944.7Z" transform="translate(-59.74 -125.8)"/><path d="M144.37,944.7h0a1.62,1.62,0,0,1-1.62-1.62v-9a1.63,1.63,0,0,1,1.62-1.62h0a1.62,1.62,0,0,1,1.61,1.62v9A1.61,1.61,0,0,1,144.37,944.7Z" transform="translate(-59.74 -125.8)"/><rect x="82.16" y="809.06" width="1.71" height="8.08"/><path class="cls-48" d="M148,937.78l-62.43-3a5.93,5.93,0,0,1-5.91-5.95l-5.6-105c0-3.29,8.25-7.69,11.51-7.69H152a5.92,5.92,0,0,1,5.9,5.95v106.7C157.9,932.13,151.27,937.78,148,937.78Z" transform="translate(-59.74 -125.8)"/><rect class="cls-49" x="14.12" y="693.66" width="78.24" height="118.61" rx="9.17"/><path class="cls-50" d="M55.74,730h0a26.43,26.43,0,0,1,26.43,26.43v55.88a0,0,0,0,1,0,0H29.31a0,0,0,0,1,0,0V756.39A26.43,26.43,0,0,1,55.74,730Z"/><path class="cls-51" d="M53.58,730h0a24.26,24.26,0,0,1,24.26,24.26v58a0,0,0,0,1,0,0H29.31a0,0,0,0,1,0,0v-58A24.26,24.26,0,0,1,53.58,730Z"/><path d="M154.74,870.46H155c4.45,0,8.21,5.34,8.21,11.67s-3.76,11.67-8.21,11.67h-.28v5H155c7.26,0,13.14-7.44,13.14-16.63s-5.88-16.64-13.14-16.64h-.28Z" transform="translate(-59.74 -125.8)"/><path d="M115,811.49c6.15,0,11.36,2.75,11.57,6h4.93c-.18-5.43-7.49-9.79-16.5-9.79s-16.31,4.36-16.49,9.79h4.93C103.6,814.24,108.81,811.49,115,811.49Z" transform="translate(-59.74 -125.8)"/><path class="cls-52" d="M156.21,855.38c0,3.55-.52,6.42-1.17,6.42s-1.16-2.87-1.16-6.42S154.4,849,155,849,156.21,851.84,156.21,855.38Z" transform="translate(-59.74 -125.8)"/><rect class="cls-53" x="41.21" y="639.24" width="26.12" height="6.35" rx="3.17"/><rect class="cls-54" x="37.91" y="737.55" width="32.44" height="1.56" rx="0.78"/><rect class="cls-55" x="39.44" y="736.76" width="4.52" height="3.17" rx="0.48"/><path class="cls-56" d="M102.3,864.4l4.07,1.7a.26.26,0,0,0,.36-.24v-3.19a.26.26,0,0,0-.35-.24l-4.07,1.49A.26.26,0,0,0,102.3,864.4Zm3.47.66-1.75-.63a.26.26,0,0,1,0-.49l1.74-.44a.25.25,0,0,1,.32.25v1.07A.26.26,0,0,1,105.77,865.06Z" transform="translate(-59.74 -125.8)"/><path class="cls-4" d="M388.06,746.77c-.2.2-2,3.81-3.6,4.11s-1.48,1.54-.54,2,3.27-.34,4.14-1.88S388.06,746.77,388.06,746.77Z" transform="translate(-59.74 -125.8)"/><path class="cls-10" d="M400.25,752.49a38,38,0,0,0-.92-5.37,4.3,4.3,0,0,0-4.75-3.48,13.93,13.93,0,0,0-4.43,1,6.9,6.9,0,0,0-2.71,1.77c-1.28,1.32,0,11.73.64,11.83a.87.87,0,0,0,1.07-.58c.19-.56.84-8.41.84-8.41s.47,9,1.59,10.11,1.52.07,1.51-.65.33-10.47.33-10.47,1.37,9.46,2.1,10.18,1.93.08,1.49-3.92c-.24-2.24-.12-6.74-.12-6.74s1.42,6.51,2.51,7.58S400.25,752.49,400.25,752.49Z" transform="translate(-59.74 -125.8)"/><path class="cls-10" d="M190.45,699.93c-.92-.93-5.62-.82-7.35.92s-.47,3.71-3,6.26S150.69,693,153.68,683.49c.1-.33.22-.68.33-1-5.9.22-11.51,2.26-17.1,4.77,3.66,8.09,23.66,22.44,30.56,24.55,8.26,2.52,18.49.53,20.45-1.44S191.36,700.85,190.45,699.93Z" transform="translate(-59.74 -125.8)"/><path class="cls-4" d="M153.68,683.49c.1-.33.22-.68.33-1-5.9.22-11.51,2.26-17.1,4.77a23.33,23.33,0,0,0,4.2,5.75l12.42-7A5.58,5.58,0,0,1,153.68,683.49Z" transform="translate(-59.74 -125.8)"/><path class="cls-57" d="M177,660.54c1.14,0,9.34-26,5.47-29.91s-24,10.48-35,29.7S134,678.86,135.82,686a15.56,15.56,0,0,0,.75,1.56c5.59-2.51,12.61-2.2,18.5-2.41C153.16,675.66,159.72,660.54,177,660.54Z" transform="translate(-59.74 -125.8)"/><path class="cls-10" d="M210.12,583.27c-.19-.2.1.06,0,0Z" transform="translate(-59.74 -125.8)"/><path class="cls-10" d="M191.58,594.55c.07-2.28,1.76-5.94,4.48-8.8,5.88-6.17,15.91-3.44,19.1,5a9.61,9.61,0,0,1,.59,2.33,8.33,8.33,0,0,0,4.8,6.62,2,2,0,0,1-1,1.8c-1.07.62-.81,1.15-.25,1.79s1,.68.83,1.33-1.24,1.16-1.24,1.16,1.1.93.93,1.63-.64.78-.64.78-.91.77-.51,1.46a3.15,3.15,0,0,1-.09,2.39c-.33,1-2.7,6-13.29.44S191.41,599.71,191.58,594.55Z" transform="translate(-59.74 -125.8)"/><path class="cls-2" d="M214,592.76a6.48,6.48,0,0,0-5,4.68s2.27-3.34,4.84-3.83Z" transform="translate(-59.74 -125.8)"/><path class="cls-2" d="M214.93,595.57s.89.87.74,1.51a1,1,0,0,1-.59.76Z" transform="translate(-59.74 -125.8)"/><path class="cls-5" d="M212.69,597.73a18.74,18.74,0,0,1,2.95-2.47c1.33-.8,1.53-1.49,1.53-1.49a15.75,15.75,0,0,1-2.56,1.77A4.87,4.87,0,0,0,212.69,597.73Z" transform="translate(-59.74 -125.8)"/><path class="cls-5" d="M216,605.38a4.87,4.87,0,0,0,3,.42,5,5,0,0,1-3.12-.11.16.16,0,0,1-.1-.22.18.18,0,0,1,.22-.11h0Z" transform="translate(-59.74 -125.8)"/><path class="cls-58" d="M216.18,582.4c-2.07-4.87-13.79-4.16-20.52-3s-14.43,6.56-15,12.38c-.36,3.5,1.24,11.28,2.58,16.9-1.76,11.88.73,12.41,2.42,24.79,1.21,8.86,7.93,11.29,7.93,11.29s-3.5-5.09-.86-7.75,10-7.71,6.89-12.53c-4-6.27,4.28-9.91-1.27-20.26,1.92-1.52,3.33-.39,4-3.17,1-3.94-4.88-9.93,1.56-9.93s9.33-3.85,9.33-3.85S218.25,587.26,216.18,582.4Z" transform="translate(-59.74 -125.8)"/><path class="cls-58" d="M195.66,646.32s5.82,6.25,3.92,11.46A15.49,15.49,0,0,0,200,668.2s-4.3-1.39-4.3-4.42a37.44,37.44,0,0,1,.73-6.52s-2.93,5.82-2.24,9.29l-4.43-.6s4.09-7.82,4.09-8.69-4.83,4.6-4.83,4.6l-2.93-4.6s5.64-1,7-3.9S195.66,646.32,195.66,646.32Z" transform="translate(-59.74 -125.8)"/><path class="cls-36" d="M193,640.85c-.38.38-3.29,3.13-3.29,3.13l4.94,5.25,2.56-.92Z" transform="translate(-59.74 -125.8)"/><path class="cls-4" d="M339.47,603.92s.93-1.74,1.77-1.49,1,3.73-.46,5.2S338,606.69,339.47,603.92Z" transform="translate(-59.74 -125.8)"/><path class="cls-59" d="M152.1,825.41l.12,6,.09,6c0,3.81.53,23.94.61,84.14v6c0,4,.08,5.1-.22,6.2a6.72,6.72,0,0,1-6.11,5.06h-4.52c-5.45,0-57.2-.36-62.63-.62a6,6,0,0,1-5.57-6.11,5.87,5.87,0,0,0,5.58,5.76c.84,0,14.86-.22,14.91-.22l23.85-.23c8.49-.1,28-.16,28-.16a5.35,5.35,0,0,0,1.59-.25,5.15,5.15,0,0,0,3.38-3.63c.65-2.34-.44-18.32.84-102Z" transform="translate(-59.74 -125.8)"/><path class="cls-10" d="M2522.79,612.19s29.49,9.44,39.56,9.44,23.58-18.84,23.58-18.84l9.14,2.78s-16.89,28.69-32.72,31.93-38.12-6.48-38.12-6.48Z" transform="translate(-59.74 -125.8)"/><path class="cls-30" d="M2542.87,630c-2.7-10.94-14.59-19.15-31.35-19.15h-.5c-13.24.15-21.37,14-20.25,27.37l13.28,67.07s6.26,5.25,26.62,7.44C2524.35,674.59,2544.53,636.68,2542.87,630Z" transform="translate(-59.74 -125.8)"/><path class="cls-1" d="M2652.06,935.92c0,2.07-36.1,3.74-80.62,3.74s-80.62-1.67-80.62-3.74,36.09-3.73,80.62-3.73S2652.06,933.86,2652.06,935.92Z" transform="translate(-59.74 -125.8)"/><path class="cls-4" d="M2522,922.67c0-3.45,4.15-39.32,7.17-65-6.59-.6-14.24-1-19.45.4-.36.09-.75.18-1.16.25,1.92,18,7.69,62.35,7.69,62.35l-3.59,11.14,28.11,3.43S2522,928.1,2522,922.67Z" transform="translate(-59.74 -125.8)"/><path class="cls-60" d="M2540.79,935.24a97.12,97.12,0,0,1-10.46-4.82L2522,933Z" transform="translate(-59.74 -125.8)"/><polygon class="cls-60" points="2452.94 806.01 2481.05 809.44 2480.7 809.78 2452.94 807.56 2452.94 806.01"/><path class="cls-4" d="M2488.78,920.1l-3.56,12s4.9,6.85,11.77,6.85l-2.62-18.85s3-38.45,4.59-61.65c-7.14-.65-15.33-2.6-20.42-5.07C2481.45,870.52,2490.84,918.3,2488.78,920.1Z" transform="translate(-59.74 -125.8)"/><path class="cls-61" d="M2508,851.26c0,1,.23,3.49.61,7.06.41-.07.8-.16,1.16-.25,5.21-1.4,12.86-1,19.45-.4l1.33-11.23q-10.35-1-20.58-2.75A19.44,19.44,0,0,0,2508,851.26Z" transform="translate(-59.74 -125.8)"/><path class="cls-61" d="M2481,838.12s-3.27,5.14-3.27,9.43c0,.65.32,2.74.84,5.83,5.09,2.47,13.28,4.42,20.42,5.07.53-8,.89-14.14.89-16.33a2.53,2.53,0,0,1,0-.27q-9.54-1.89-18.89-4.25Z" transform="translate(-59.74 -125.8)"/><path class="cls-15" d="M2503.24,701.17s-50.71,65-69,125.81c0,0,23.86,14.57,29.74,14.57s7.52-2.29,9.81,3.14,26.8,10.28,36,8,25.82.58,31.05.58-9.67-144.72-11.09-148.77Z" transform="translate(-59.74 -125.8)"/><path class="cls-60" d="M2497,939l-.84-6-2.19,1.69-7.8-5.71-.94,3.18S2490.12,939,2497,939Z" transform="translate(-59.74 -125.8)"/><path class="cls-10" d="M2557.6,678.85c-.55-.2-.06-.32-.06-.32s9.63,4.09,10,2.38c.25-1.27-6.1-2.68-10.34-5.23-.37-.22-.47-.77-.08-.84,2.28-.41,5.62-1.18,3.89-1.89-2.52-1-8.24,2.12-10.15,1.33-1.38-.57-33.88-8.76-36-10.88-7.13-7.22-.2-45.32-5.2-50.37s-23.06,2-20.58,16.77c1.77,10.56,14,40.44,14,40.44,2.13,6.17,43.71,12.49,43.71,12.49s17.4,6.52,17.6,5.45c.14-.69-5-2.37-6.35-3.49-.26-.21-.12-.63.17-.53,2.78,1,8.42,2.8,9.46,2.23s-8.17-3.72-10.24-4.62c-.4-.18-.16-.6-.16-.6s11.35,4.21,12.22,3.5C2570.82,683.56,2560.5,679.88,2557.6,678.85Z" transform="translate(-59.74 -125.8)"/><path class="cls-4" d="M2511,616.06a6.21,6.21,0,0,0-1.31-3h0c-2.31-2.33-8-1.66-13.44,1.19-4.32,2.81-7.8,7.63-7.32,14,2.8-1.57,5.85-3.36,7.37-4.9l.34,2.4c3.6-.09-.24,1.39,9.19-2.38C2507.91,622.52,2511.15,617.15,2511,616.06Z" transform="translate(-59.74 -125.8)"/><path class="cls-36" d="M2499.68,576.82s0-.34,0-.92c-.11-3.19-.24-13.75,2.57-16.6,3.33-3.36,12.78-5.47,15.84-5.47s12.68,9.09,12.68,9.09Z" transform="translate(-59.74 -125.8)"/><path class="cls-27" d="M2508.65,591.31s-.41.22-1.13.57c-4.14,2-18.49,8.58-24.14,4.14-6.63-5.21-2.74-19.34,24.33-30.78s50.26-15.47,54.46-9.42-3.66,12.69-13.44,18.1S2508.65,591.31,2508.65,591.31Z" transform="translate(-59.74 -125.8)"/><path class="cls-62" d="M2517.06,581.17l-.41.21c-1.52.74-6.05,3.52-8.12,1.89-2.44-1.92.77-11,8.19-14.23,10.83-4.69,18.47-.75,19.46,1.77.48,1.21-.81,4-4.4,5.94S2517.06,581.17,2517.06,581.17Z" transform="translate(-59.74 -125.8)"/><path class="cls-14" d="M2533.25,574.19c-.45,1.95-1.68,14.92,2.63,19.17l1-1.21C2533,589.06,2532.8,575.54,2533.25,574.19Z" transform="translate(-59.74 -125.8)"/><path class="cls-14" d="M2512.33,593.29s-7.86-6.86-11.36-4.75-.36,4.81-2.78,5.78-3.44-4.14-5.85-3.17-.24,4.41-5.43,6.49-7.07-3.75-7.07-3.75l-1.52,9s6.57,3.6,11.53.9c0,0-6.53,3.33-11.07,3.16s-3.59-.25-3.59-.25,2.31,6.08,6.1,7.74,1,1.87,2.91,4.93,6.05,1.54,5.72,6.06c0,0,7-4.73,10-11.65,0,0,1.25,7.85-1,9.6l5.92-2.37c7.14-2.86,9.84-9.89,7.94-17.62S2512.33,593.29,2512.33,593.29Z" transform="translate(-59.74 -125.8)"/><path class="cls-36" d="M2508.53,589.31c-.07,1.21.52,4.21,2.86,4.21s2.34-1.08,1.75-3.56S2508.72,586,2508.53,589.31Z" transform="translate(-59.74 -125.8)"/><path class="cls-10" d="M2512.83,589.25s-3.17,14.86-1.32,22.35,10.64,7.57,12.69,5.49-1.19-9.63,0-17.4S2512.83,589.25,2512.83,589.25Z" transform="translate(-59.74 -125.8)"/><path class="cls-4" d="M2512.83,589.25s-.1.49-.26,1.34c1.11,3.73,4.45,9.79,8,12,.93.59,2.15-.65,3.43-1.39.05-.52.1-1,.18-1.56C2525.39,591.93,2512.83,589.25,2512.83,589.25Z" transform="translate(-59.74 -125.8)"/><path class="cls-10" d="M2529.23,567s-8.31-.9-11.31,2.15-3.1,7.09-4.82,11a12.72,12.72,0,0,0,0,10.54,20.37,20.37,0,0,0,7.49,9c3.4,2,10.49-6.29,11.41-10.44s-.92-3.21,1.06-9.1S2534.12,569.58,2529.23,567Z" transform="translate(-59.74 -125.8)"/><path class="cls-10" d="M2529.23,567s-8.31-.9-11.31,2.15-3.1,7.09-4.82,11a12.72,12.72,0,0,0,0,10.54,20.37,20.37,0,0,0,7.49,9c3.4,2,10.49-6.29,11.41-10.44s-.92-3.21,1.06-9.1S2534.12,569.58,2529.23,567Z" transform="translate(-59.74 -125.8)"/><path class="cls-8" d="M2521,578.36c1.85,1.06,2.69.89,2.69.89l.55-.84s-2.79-1.59-5.3-.68a9.72,9.72,0,0,0-1.77.85c0,.13.09.27.13.41C2518.59,578.35,2520.09,577.84,2521,578.36Z" transform="translate(-59.74 -125.8)"/><path class="cls-8" d="M2528,578.06l.42.93s.82.31,2.85-.44a2.85,2.85,0,0,1,2.16.34c.05-.19.1-.38.14-.56l-.13-.08C2531.08,576.92,2528,578.06,2528,578.06Z" transform="translate(-59.74 -125.8)"/><path class="cls-8" d="M2528.05,586.31a16.12,16.12,0,0,0-1.6-2.36,15.17,15.17,0,0,0,1.25,2.52,6.36,6.36,0,0,1-1.44,1.28C2527.07,587.66,2528.14,586.69,2528.05,586.31Z" transform="translate(-59.74 -125.8)"/><path class="cls-13" d="M2521.63,591.13a8.76,8.76,0,0,0,5.2,1.32l-1.34,1.75S2522.07,594,2521.63,591.13Z" transform="translate(-59.74 -125.8)"/><path class="cls-14" d="M2517.92,581.61a5.4,5.4,0,0,1,3.29-1.58c1.58.08,1.33,1,3.39,1-1.35.86-2.46-.18-3.38-.19A16.48,16.48,0,0,0,2517.92,581.61Z" transform="translate(-59.74 -125.8)"/><path class="cls-14" d="M2527.55,582.78a5.39,5.39,0,0,1,3.29-1.57c1.59.07,1.34,1,3.39,1-1.34.87-2.46-.18-3.38-.18A17.13,17.13,0,0,0,2527.55,582.78Z" transform="translate(-59.74 -125.8)"/><path class="cls-14" d="M2529.23,567s-7.18,7.56-10.8,9.72-4.34.07-6.48.07,1.63,8,1.41,10.58-.79,3.19-.79,3.19-5.06-4.65-5.06-9.38,3.29-8.8,6.36-10.74C2522.38,565.1,2529.23,567,2529.23,567Z" transform="translate(-59.74 -125.8)"/><path class="cls-10" d="M2509.66,578.08s-.33,7.22,2.58,7.22,3.12-6.82,1.92-9.3S2509.53,574.93,2509.66,578.08Z" transform="translate(-59.74 -125.8)"/><path class="cls-4" d="M2513.74,579.58s.14-2.94-1.49-2.09-1.62,5.29-.24,6.33S2513.74,579.58,2513.74,579.58Z" transform="translate(-59.74 -125.8)"/><path class="cls-10" d="M2544.34,720.33s-8.58-1.25-9.64-2.53c-1.23-1.48-3-3.71-5-6.43a17.18,17.18,0,0,0-7.74,6.13l.29.3c5.75,6.05,10.11,10.24,10.11,10.24l14.07,6Z" transform="translate(-59.74 -125.8)"/><path class="cls-34" d="M2542.53,932.33c13.09,0,14.75-15.75,14.75-15.75l-11.33-78-12.24-93.21,3.46-27.58h67.33l.48,24.3.95,94.71-14.11,78s1.66,15.75,14.75,15.75,12.77,4.85,12.77,4.85H2581s2.24-17.46,2.24-19.07,2.39-85.82,2.39-85.82l-14.53-76.77-5.68,80.58s.39,82.17.39,83.78,2.23,19.08,2.23,19.08h-38.31S2529.44,932.33,2542.53,932.33Z" transform="translate(-59.74 -125.8)"/><path class="cls-63" d="M2677.2,546.19a57.25,57.25,0,0,1,.36,6.47c0,10.44-7,33.33-29.25,45.44s-56.13,7.12-56.13,7.12l14.1,29.82s59.64-17.45,78.26-48.1c6.84-11.25,6.38-28.9,4.88-41.4C2685.35,545.19,2681.28,544.52,2677.2,546.19Z" transform="translate(-59.74 -125.8)"/><path class="cls-61" d="M2674.9,535.84a41.5,41.5,0,0,1,2.3,10.35c4.08-1.67,8.15-1,12.22-.65a135.48,135.48,0,0,0-2.55-14.75Z" transform="translate(-59.74 -125.8)"/><polygon class="cls-35" points="2603.93 402.48 2600.43 427.22 2628.86 425.96 2630.6 409.3 2603.93 402.48"/><path class="cls-10" d="M2678.73,526.54c-.38.24-9.14,6.69-8.27,9.25s8.11-4,8.11-4-6.6,5.8-6.13,7,5.51-.94,7.08-2.54a42,42,0,0,1,3.95-3.35s-6.71,5.75-5.89,6.59,4.58-1.28,7.46-4.2c0,0-3.57,3.94-2,4.39s5.44-6.06,5.44-6.06.83-1.48-1.1-3.44-.48-1.91-3.16-3.27S2679.91,525.81,2678.73,526.54Z" transform="translate(-59.74 -125.8)"/><path class="cls-64" d="M2602.86,613c-7.32-7.42-17.36-13.36-36-10.51,0,0-18.8-.9-39.75,20.31s-31.37,42.43-32.57,55c-.79,8.33,16,30.27,27.44,42.36,2-2.73,4.56-7.64,7.74-8.85-5.39-7.31-12.37-18.21-14.34-27.93-3.35-16.49,21.07-35.15,21.07-35.15l0,72.29,69.58.72,1.14-64.82S2610.18,620.44,2602.86,613Z" transform="translate(-59.74 -125.8)"/><path class="cls-10" d="M2581.43,584.14s.2,14.13,1.69,21.33a5.82,5.82,0,0,1-3.46,6.66,14.27,14.27,0,0,1-7.7.65c-8.35-1.43-8.63-9.88-8.63-9.88l2.81-25.77Z" transform="translate(-59.74 -125.8)"/><path class="cls-4" d="M2566.14,577.13l15.29,7s.07,5.21.47,10.92c-4,.18-9-1.86-14.33-8-.79-.91-1.53-1.82-2.21-2.71Z" transform="translate(-59.74 -125.8)"/><path class="cls-10" d="M2581.2,575.49c2.91,1,7,.64,9.23.29-.28-2.3-.65-4.1-.65-4.1l2.4-1.43s-2-4.87-4.24-11.6a24.75,24.75,0,0,0-7.5-10.74c-4.24-2.44-20.93,4.15-22.77,8.88s-.92,14.39,9.9,25.34,20.37,7,22.63,2.15c.64-1.38.65-3.89.46-6.32C2584.54,578.24,2581.2,575.49,2581.2,575.49Z" transform="translate(-59.74 -125.8)"/><path class="cls-37" d="M2564.18,558.5a14,14,0,0,1,11.74-2.29c6.93,1.72,9.26-.93,7.92-2.29,0,0,6.08.14,8.34-4.87s1.7-20.19-9-17.33-8.58,9.74-8.58,9.74-3.44-3.29-6.7-1.57S2565,544,2565,544s-3,5.59-7.08,6.3-3.67,9-3.67,9-2.41,1.72-.71,7.74,11.68,15.32,11.68,18.18c0,0,2.46-3.72.48-9.59s-2-9.31.14-9.31S2564.18,558.5,2564.18,558.5Z" transform="translate(-59.74 -125.8)"/><path class="cls-10" d="M2567.24,570.26s-.69-4.94-2.23-4.94-3,.54-2.6,3.33,2,5.91,4,4.62A2.09,2.09,0,0,0,2567.24,570.26Z" transform="translate(-59.74 -125.8)"/><path class="cls-37" d="M2549,558.94a1.76,1.76,0,0,1,.88-1c1.34-.58,3.13.66,4.31,1.52l.2-.24a9.12,9.12,0,0,0-2.82-2.19,2.89,2.89,0,0,0-3.93,1.42Z" transform="translate(-59.74 -125.8)"/><path class="cls-37" d="M2550.07,565a5,5,0,0,1,0-2.14c.85-3.45,5-3.15,5.21-3.25v-.22c-.12.05-6-1.11-6.86,4.47a5.89,5.89,0,0,0-.06,1.48Z" transform="translate(-59.74 -125.8)"/><path class="cls-13" d="M2581.2,575.49c3,1.13,7.28.56,9.22.21.09.71.18,1.48.24,2.26C2584.53,578.45,2581.2,575.49,2581.2,575.49Z" transform="translate(-59.74 -125.8)"/><path class="cls-8" d="M2581.67,562.94c0,1.22.53,2.2,1.19,2.2s1.18-1,1.18-2.2-.53-2.2-1.18-2.2S2581.67,561.72,2581.67,562.94Z" transform="translate(-59.74 -125.8)"/><path class="cls-8" d="M2578.73,559.39a8.74,8.74,0,0,1,5.24-.84l.14-.85a9.48,9.48,0,0,0-5.82.95Z" transform="translate(-59.74 -125.8)"/><path class="cls-65" d="M2513.68,752.56c-.13.73-11.87,70.1,5.47,99.24Z" transform="translate(-59.74 -125.8)"/><path class="cls-65" d="M2472.34,842.15l30.11-110.22C2502.11,732.33,2468.33,772.72,2472.34,842.15Z" transform="translate(-59.74 -125.8)"/><path class="cls-10" d="M2584.11,602.49s6.25-3.51,11.13.16c2.43,1.83,2.33,10.58,1.22,11.41s-1.68-7.19-1.68-7.19.46,6.41-.66,7.25-1-2.18-1.68-5.21l-.65-3s.56,10.19-.84,10.19-1.87-9.28-1.87-9.28-.41,8.37-1.66,8.37-1.85-10.27-1.85-11.34C2585.57,603.27,2584.11,602.49,2584.11,602.49Z" transform="translate(-59.74 -125.8)"/><path class="cls-10" d="M2557.6,678.85c-.55-.2-.06-.32-.06-.32s9.63,4.09,10,2.38c.25-1.27-6.1-2.68-10.34-5.23-.37-.22-.47-.77-.08-.84,2.28-.41,5.62-1.18,3.89-1.89-2.52-1-8.24,2.12-10.15,1.33-1-.41-18-4.74-28.32-7.94-1.51,3.83-3.51,7.1-5,10.48,12.75,3.4,29.24,5.91,29.24,5.91s17.4,6.52,17.6,5.45c.14-.69-5-2.37-6.35-3.49-.26-.21-.12-.63.17-.53,2.78,1,8.42,2.8,9.46,2.23s-8.17-3.72-10.24-4.62c-.4-.18-.16-.6-.16-.6s11.35,4.21,12.22,3.5C2570.82,683.56,2560.5,679.88,2557.6,678.85Z" transform="translate(-59.74 -125.8)"/><path class="cls-5" d="M2682.16,612.1a.65.65,0,0,1-.32-1.21c18.8-11.24,24.4-25.08,25.78-34.71a40.36,40.36,0,0,0-1.49-18.35.65.65,0,0,1,.36-.84.63.63,0,0,1,.83.37,40.93,40.93,0,0,1,1.56,19c-1.42,9.92-7.15,24.15-26.39,35.65A.66.66,0,0,1,2682.16,612.1Z" transform="translate(-59.74 -125.8)"/><path class="cls-5" d="M2447.11,861.07a.62.62,0,0,1-.37-.11c-27.4-19.62-30.82-38.22-31-39a.65.65,0,0,1,.53-.74.64.64,0,0,1,.74.53c0,.18,3.51,18.89,30.43,38.16a.65.65,0,0,1,.15.9A.62.62,0,0,1,2447.11,861.07Z" transform="translate(-59.74 -125.8)"/><path class="cls-1" d="M2233.21,938.19c0,2-40.67,3.71-90.85,3.71s-90.85-1.66-90.85-3.71,40.68-3.7,90.85-3.7S2233.21,936.15,2233.21,938.19Z" transform="translate(-59.74 -125.8)"/><path class="cls-5" d="M2128.91,746.66l-21.14,105.68,21.14,75.46,1.92,8H2090s25-3,25-9-34.59-71.88-34.59-73.59,11.12-100.81,11.12-100.81Z" transform="translate(-59.74 -125.8)"/><path class="cls-40" d="M2162.06,727.4l1.92,29.1-23.06,167.72,3.84,11.56h-37s24-6.42,25.94-12.41S2119.3,745.8,2119.3,745.8Z" transform="translate(-59.74 -125.8)"/><path class="cls-3" d="M2114.62,609.09s-13.33,18.4-17.66,39.79S2083,763.53,2083,763.53s39.88-.64,59.81-18.4S2164,756.5,2164,756.5s7.69-6.85,7.69-21-13.37-121.41-36-126.54S2114.62,609.09,2114.62,609.09Z" transform="translate(-59.74 -125.8)"/><path class="cls-66" d="M2128.26,592.71c.47-.43,3.81-17.4,3.81-17.4s1.94-12.63-1.4-14.06-11.78-7-17.87-5.92a24.53,24.53,0,0,0-10.27,4c-.47.43-3.06,7.37-3.06,7.37s1.38-2.43,4,5.11S2128.26,592.71,2128.26,592.71Z" transform="translate(-59.74 -125.8)"/><path class="cls-10" d="M2112.8,595c1.15,1.86,4,13.5.13,18.34-1.18,1.48,25.12,6.9,22.64-6.08s-7.16-27.89-7.16-27.89Z" transform="translate(-59.74 -125.8)"/><path class="cls-4" d="M2114.8,607.63c7.93-1.24,15.46-11.15,16.28-19.13,0,0,0,0,0,0l-.05-.17c-1.25-4.53-2.28-7.86-2.54-8.71a.54.54,0,0,1,0-.1l0-.12L2112.8,595C2113.61,596.29,2115.24,602.41,2114.8,607.63Z" transform="translate(-59.74 -125.8)"/><path class="cls-10" d="M2126.52,567.39c3.35,4.73,5.53,14.15,1.78,22.32S2118,603,2112,600.41,2099.5,575.53,2102,569,2121.4,560.18,2126.52,567.39Z" transform="translate(-59.74 -125.8)"/><path class="cls-58" d="M2131.24,589.08s-.43-7.62,2.22-10,3.79-3.76,3.77-6.48,9.76-6.43,7.16-10.4-11-4.43-16.66-11.11-10.94-10-19.77-5.4-9,10.16-9,10.16-4.3.13-5.83,5.26.87,7.41,3,9.27c0,0-1.69-6,.66-6.07s1.54,7.16,1.54,7.16a57.52,57.52,0,0,0,5.56-7.93c2.74-4.69,2.86.15,2.9,5.42s7-1.06,9.76-5.41,8.59-1.92,11.58,2.91S2124.89,581,2131.24,589.08Z" transform="translate(-59.74 -125.8)"/><path class="cls-10" d="M2126.53,575.84s2.17-5.94,4.4-4,2.31,9.1-1.35,9.88S2126.53,575.84,2126.53,575.84Z" transform="translate(-59.74 -125.8)"/><path class="cls-4" d="M2128.49,575.85s-.79-3,1.22-2.36,1.28,5.93-.39,6.15S2128.49,575.85,2128.49,575.85Z" transform="translate(-59.74 -125.8)"/><path class="cls-67" d="M2109.34,578.1a18.39,18.39,0,0,0-.38,4.62,11.12,11.12,0,0,0,1.1,4.83c.39-.15,1.44-.51,2.79-1.13-.93.15-1.83.35-2.73.57l.35.15C2109.68,584.24,2109.65,581.17,2109.34,578.1Z" transform="translate(-59.74 -125.8)"/><path class="cls-67" d="M2118.65,590c.17-.45-.59-.68-.76-.23a5.81,5.81,0,0,1-5.34,3.58.39.39,0,0,0-.41.37C2112.15,594.7,2117.11,593.78,2118.65,590Z" transform="translate(-59.74 -125.8)"/><path class="cls-8" d="M2114,578a1.4,1.4,0,1,0,1.36-1.73A1.58,1.58,0,0,0,2114,578Z" transform="translate(-59.74 -125.8)"/><path class="cls-8" d="M2103.76,578.63a1.4,1.4,0,1,0,2.73,0,1.4,1.4,0,1,0-2.73,0Z" transform="translate(-59.74 -125.8)"/><path class="cls-67" d="M2119.16,574.59a7.32,7.32,0,0,0-4.73-2.19c-2.65,0-1.45,1.86-.83,1.86S2119.15,574.1,2119.16,574.59Z" transform="translate(-59.74 -125.8)"/><path class="cls-67" d="M2106.11,572.81s-2.84,1.42-3.13,2.82c0,0,3.14-.86,3.56-1.67A.79.79,0,0,0,2106.11,572.81Z" transform="translate(-59.74 -125.8)"/><path class="cls-10" d="M2143.44,750l-1.08,13.54,12.07-2.45s-5-9.48-1.62-12.53c0,0-9.32,1.3-9.32,1.3Z" transform="translate(-59.74 -125.8)"/><path class="cls-15" d="M2137,613.92c-9,8-9.77,33.23.68,49.59s18.37,26.71,18.37,37.42c0,10.35-11.76,46.47-12.56,48.92h10.13c3.59-3.8,14.76-39.67,20.45-54.09C2179.83,681.16,2149.54,602.75,2137,613.92Z" transform="translate(-59.74 -125.8)"/><path class="cls-68" d="M2134.22,769.08c-.71-.83,1-1.34,2.2-2.3,8-5.44,15-5.47,21.45-7.14a.73.73,0,0,1,.87.48c.3,1.14-1.56.74-9.46,2.63a35.42,35.42,0,0,0-14.05,6.45A1,1,0,0,1,2134.22,769.08Z" transform="translate(-59.74 -125.8)"/><path class="cls-69" d="M2135.31,605.92a12.47,12.47,0,0,1,.41,3.16c3.52,2.6,4.28,3-20.12,85.92l1,.25q7.18-22.66,14.1-45.4C2139.75,619.88,2144.63,609.28,2135.31,605.92Z" transform="translate(-59.74 -125.8)"/><path class="cls-69" d="M2114.77,608c-7.17,4.49-7.8,11-30,83.22l1.37.35c18.36-56.12,22.35-69,25-75.07C2113.51,611.87,2114.35,612,2114.77,608Z" transform="translate(-59.74 -125.8)"/><rect class="cls-66" x="2022.08" y="561.04" width="36.64" height="24.08" rx="9.12"/><rect class="cls-70" x="2022.08" y="561.04" width="26.62" height="24.08" rx="7.77"/><path class="cls-71" d="M2091.46,691.13a4.91,4.91,0,0,1,3.69,2.37c.92,1.63,2.78,13.87-4.12,13.55,0,0-7.88.73-11.82.65-.7,0-9.88,1.27-11.33,1.4-2.28.21-5.27.77-7.46.31-1.86-.38-2.26-2-.84-3,.54-.41.58-.67.06-1.09a9.43,9.43,0,0,0-1.27-.86c-2.73-1.53-3.52-4.17-2.16-6.73a7.64,7.64,0,0,1,3.22-2.85c.9-.69.9-.91,0-1.62-1.54-1.25.26-3.33,3.05-3C2070.92,691.29,2091,690.88,2091.46,691.13Z" transform="translate(-59.74 -125.8)"/><path class="cls-72" d="M2073.28,700h-.06c.07-1.17.12-2.33.23-3.5a1.5,1.5,0,0,0-.33-1.1,7.08,7.08,0,0,0-10.71-.67,7.36,7.36,0,0,0,.1,10.35,7,7,0,0,0,10.49-.65C2073.35,704,2073.28,703.92,2073.28,700Z" transform="translate(-59.74 -125.8)"/><path class="cls-66" d="M2082.46,706.21c2.77-.91,5.17-3.53,4.82-7.9-.19-2.42-2.06-4.7-5.46-5.58C2088.62,695.23,2088.5,703,2082.46,706.21Z" transform="translate(-59.74 -125.8)"/><path class="cls-66" d="M2074,706.45c2.81-1.65,3.4-4.15,3.54-6.71a6.63,6.63,0,0,0-2.92-5.74A8.33,8.33,0,0,1,2074,706.45Z" transform="translate(-59.74 -125.8)"/><path d="M2071.27,703.65a4.23,4.23,0,0,1-5.61.17,5.09,5.09,0,0,1,0-7.67,4.26,4.26,0,0,1,6.21.73A5.1,5.1,0,0,1,2071.27,703.65Z" transform="translate(-59.74 -125.8)"/><path class="cls-73" d="M2071.52,701.19a2.13,2.13,0,0,0-.25-2.79,2.6,2.6,0,0,0-2.59-.82,2.45,2.45,0,0,0-2.08,1.88C2066,702,2070,703.6,2071.52,701.19Z" transform="translate(-59.74 -125.8)"/><path class="cls-74" d="M2073.6,695.45a19.65,19.65,0,0,0-3.82-3.58c-2.29-1.52-7-1.85-7.92-1.67,3.84.54,5,.81,7.2,1.74a19.82,19.82,0,0,1,4,3.73c.16.26.12.31.11.71l0,.85c-.14,7.27,0,6.83-.48,7.43-.78.94-3,2.13-3.77,2.83a9.23,9.23,0,0,0-1.23,1.37,10.89,10.89,0,0,1,1.35-1.27c1-.74,4.39-2.26,4.5-3.57.16-2.83.24-5.65.3-7.63A1.41,1.41,0,0,0,2073.6,695.45Z" transform="translate(-59.74 -125.8)"/><rect class="cls-30" x="2038.95" y="563.59" width="6.81" height="2.31"/><ellipse class="cls-1" cx="1894.75" cy="813.99" rx="90.85" ry="3.71"/><path class="cls-4" d="M1954.49,938.19l33.15-.32s-20.9-4.17-23.06-10.91c-.45-1.39-.18-6.16.51-12.82a40.19,40.19,0,0,0-8.19.81c.51,7.74.83,13,.83,13Z" transform="translate(-59.74 -125.8)"/><path class="cls-75" d="M1957.7,622.44s26.51,15,34.43,15,36.83-30.94,39.62-34.66l6,1.28s-25.8,43.76-40.93,47.93-40.91-14.55-40.91-14.55Z" transform="translate(-59.74 -125.8)"/><polygon class="cls-76" points="1951.26 624.19 1932.38 586.05 1964.52 563.83 1980.13 597.84 1951.26 624.19"/><polygon class="cls-77" points="1932.38 586.05 1946.36 586.05 1985.54 561.74 1958.96 567.58 1932.38 586.05"/><polygon class="cls-78" points="1954.82 534.76 1946.36 586.05 1985.54 561.74 1991.09 522.72 1954.82 534.76"/><polygon class="cls-79" points="1944.11 522.72 1954.82 534.76 1991.09 522.72 1977.61 511.4 1944.11 522.72"/><polygon class="cls-76" points="1957.8 481.99 1944.11 522.72 1977.61 511.4 1989.14 484.88 1957.8 481.99"/><path class="cls-26" d="M1904.92,690.47s-3.06,11.23,0,17.33,20,3.85,20,3.85l-5.55-25.83Z" transform="translate(-59.74 -125.8)"/><path class="cls-58" d="M1916.45,673.78l-6,.89a9.07,9.07,0,0,0-7.58,6.14l-4.39,15h18Z" transform="translate(-59.74 -125.8)"/><path class="cls-80" d="M1907.2,648.72s-1.74,50.57,10.33,61.33,28.56,3.2,28.56,3.2L1943,639.77Z" transform="translate(-59.74 -125.8)"/><path class="cls-81" d="M1912.55,647.38c2.22,8.5,13.59,34.71,15.79,40.36,3.12,8-1.88,17.92-5.79,25.67,11.16,5.49,23.54-.16,23.54-.16L1943,639.77Z" transform="translate(-59.74 -125.8)"/><path class="cls-82" d="M1938.1,615.47s-30.34,1-35,5.13-6.13,38.74-6.13,38.74h44.61S1942.84,615.25,1938.1,615.47Z" transform="translate(-59.74 -125.8)"/><path class="cls-42" d="M1938.1,615.47s-3.55,1-8.57,1.91c-6.22,1.16-11.79,4.44-14.85,9.39a12.59,12.59,0,0,0-2.13,6.69c0,9.15-.53,21.72-.72,25.88h29.77S1942.84,615.25,1938.1,615.47Z" transform="translate(-59.74 -125.8)"/><path class="cls-10" d="M1908.73,930.83l-11.25,10.37,3,9.42L1914,935.38a158,158,0,0,1,5.08-20.77,96.1,96.1,0,0,0-10.83-.74C1908.5,924.94,1908.73,930.83,1908.73,930.83Z" transform="translate(-59.74 -125.8)"/><path class="cls-83" d="M1976.83,834.54l7.85-90.91c-22.5,3.57-44.49-5.32-63.88-15a67.07,67.07,0,0,0-4.35,27.59l4,74.11a46.67,46.67,0,0,0-11.71,25.35c-1.15,9.84-1.8,39.48-1.42,59,3.61,0,9.4.29,13,.76,8-26.21,18.68-67.69,18.68-75.18,0-11.23,9.5-78.3,9.5-78.3h6l3.24,70.92s-6.84,9.3-4.68,31.77c1.39,14.42.52,36.92,1.44,50.79a67.87,67.87,0,0,1,10.6-1.36C1967.76,888.51,1976.83,834.54,1976.83,834.54Z" transform="translate(-59.74 -125.8)"/><path class="cls-84" d="M1936.36,735.8l-2.11-.89-5.18,85L1912,914.88c.71,0,1.44.06,2.17.1l17.1-94.83Z" transform="translate(-59.74 -125.8)"/><path class="cls-85" d="M1920.8,728.67a68.37,68.37,0,0,0-2.29,7.2c19.17,8.86,43.6,17.86,65.43,16.35l.74-8.59C1962.18,747.2,1940.19,738.31,1920.8,728.67Z" transform="translate(-59.74 -125.8)"/><path class="cls-4" d="M2001.21,691.35s.32-2.68,1.71-3.93,2.89-.62,4.78-.8,1.62-2.49,2.52-2.49,1.22,2.53,0,3.61S2001.21,691.35,2001.21,691.35Z" transform="translate(-59.74 -125.8)"/><path class="cls-86" d="M1989.11,745.49l-3.27-14s-12.4-78.43-20.32-95.76-7.07-20.24-26.16-22.17c-7.9-.8-17.8,4.22-21.39,7.18-5.08,4.19-1.88,10.56-.44,15.46,0,0,17.31,52.29,17.31,61.92,0,4.33-4,11.91-8.35,18.94-2.3,3.71-4.91,7.24-6.43,11.22C1939.45,738,1966.61,749.05,1989.11,745.49Z" transform="translate(-59.74 -125.8)"/><path class="cls-2" d="M1965.52,570.58c-.39-.34,1.89-3.18,1.89-7.74s-3.38-8.7-9.33-8.7-2.63,2.33-8.11,3.6-4.36-3.39-8.37-1-.92,4.67-4.37,5.57-2.86-4.19-5.72-2.7-6.32,4.69-1.79,6.85,4,5.14,2.65,8,2.83,8.17,6.29,5.09c0,0,.83.11.23,2.34s2.48,3.29,2.71,3.29.87.1,6.59-3.19,11.32,2.44,13.34-4.45S1965.52,570.58,1965.52,570.58Z" transform="translate(-59.74 -125.8)"/><path class="cls-36" d="M1964.42,569.1c1.29.12,4.56,2.17,2.41,4.08s-5.33,1.3-7.47,1.45-3.31.31-4.14.31,1.9-2.34,3.21-3.51S1962.79,568.94,1964.42,569.1Z" transform="translate(-59.74 -125.8)"/><path class="cls-2" d="M1965.52,569.74s-.06-.85,4-3,8.68,1.49,8.68,1.49l1-2.76a6.69,6.69,0,0,0-8.58-1.06C1965.7,567.51,1965.52,569.74,1965.52,569.74Z" transform="translate(-59.74 -125.8)"/><path class="cls-10" d="M1955.22,612.07s-4.29,7.86-3,13.37c0,0-2.45,2.36-10.16-1.84s-7.24-9.09-7.24-9.09,8.16-11.76,10.19-16.87a33.42,33.42,0,0,1,4.71-8Z" transform="translate(-59.74 -125.8)"/><path class="cls-4" d="M1949.74,589.68l5.48,22.39s-.39.71-.89,1.85C1944.92,612.08,1949.74,589.68,1949.74,589.68Z" transform="translate(-59.74 -125.8)"/><path class="cls-10" d="M1977.73,584.59c.22.61,1.19,8.07-.59,10.93s-6.79,4-6.79,5.2-.3,4.4.65,6.63c0,0-.71.69-2.92,0a3.41,3.41,0,0,0-.89,1.75c0,.8-.32,1-.66,1.06a7.39,7.39,0,0,1-1.07,0l-1.43.53s.12.27-.47.8-1.73,0-1.73,0a2.35,2.35,0,0,0-1.73.8c-1,.9-2.14,2.44-6,0-2.9-1.83-9.14-12.08-7.8-17.19,1.11-4.24,8.81-12.68,11.32-13.32C1961.11,580.88,1976.36,580.82,1977.73,584.59Z" transform="translate(-59.74 -125.8)"/><path class="cls-8" d="M1981.31,580.93s4.52,3.66,5.54,8.75.41,10.83-5.9,12.53-8.16-1.12-8.16-1.12,4.82-.21,4.35-1.64-3.3-1.12-3.3-1.12,2-2,1-2.86-6.61-.48-6.61-.48,3.46-4.4,1-4.4-4.42.74-8.49.74-8.78,2-8.78,5.46,2.14,3.88,2.14,3.88-2.56,1.11-4-.8a4.11,4.11,0,0,1-.41-4l-1.49,3.13a4.8,4.8,0,0,1-.66-5.15c1.28-3.19,10.3-6.53,9.71-8.38s-9.17,5.81-11.76,11.14c0,0,2-5.65-.45-7.8s-5.9-4.14-.83-9.87,17.57-3,22.63-5.73S1983.21,574.19,1981.31,580.93Z" transform="translate(-59.74 -125.8)"/><path class="cls-10" d="M1955.58,588.07s4.16-3.3.83-4.5-8.3,4.6-5.48,5.58C1953.35,590,1955.58,588.07,1955.58,588.07Z" transform="translate(-59.74 -125.8)"/><path class="cls-4" d="M1955.56,587.52s.93-1.94-.34-2.29-4.53,2-3.82,3.07S1954.55,588.72,1955.56,587.52Z" transform="translate(-59.74 -125.8)"/><path class="cls-58" d="M1938.1,593.71a.52.52,0,0,1-.21,0A24.73,24.73,0,0,1,1923,572.29a.44.44,0,0,1,.46-.41h0a.44.44,0,0,1,.47.41c0,.15.19,14.42,14.36,20.63a.39.39,0,0,1,.21.56A.49.49,0,0,1,1938.1,593.71Z" transform="translate(-59.74 -125.8)"/><path class="cls-8" d="M1969,600.83l1.13-.69a1.31,1.31,0,0,1-.62.92,1.42,1.42,0,0,1-.25.12A1.38,1.38,0,0,0,1969,600.83Z" transform="translate(-59.74 -125.8)"/><path class="cls-14" d="M1966.92,598.73c2.87.53,4.59,3.41,6,3.07-.59.11-1.88-1.32-2.68-1.94A5.45,5.45,0,0,0,1966.92,598.73Z" transform="translate(-59.74 -125.8)"/><path class="cls-87" d="M1905.33,934s-2.81,6.39-.65,6.39,8.12-3.59,8.12-3.59l-12.32,13.86-3-9.42Z" transform="translate(-59.74 -125.8)"/><path class="cls-87" d="M1955.83,934l-1.34,4.23,33.15-.32L1974.25,934S1959.41,935.82,1955.83,934Z" transform="translate(-59.74 -125.8)"/><path class="cls-42" d="M1921,618.37l-3.36.54A22.7,22.7,0,0,1,1930,630.46c4,8.77,3.71,51.37,2.2,54.31a19.33,19.33,0,0,0-1.84,5l1.44,6s9.29-6.93,8.17-35C1939.64,651.86,1934.81,617.93,1921,618.37Z" transform="translate(-59.74 -125.8)"/><path class="cls-10" d="M1918,620.78s-8.36,2.58,2,34.23c10.24,31.23,33.25,46.56,48.43,45.9s28.68-6.13,32.82-3.68a10.72,10.72,0,0,0,15.43-8.44c.13-.86.94-2.61-.16-4.42s-10.57,4.93-16,5.22-27.53-.86-38.39-4.29c-10.33-3.26-22.8-13.73-25-24.9S1926.66,618,1918,620.78Z" transform="translate(-59.74 -125.8)"/><path class="cls-4" d="M2025.71,606.87s-.68,3.21.65,3.61c.39.12.57-1.31,1.24-2.05,1.68-1.84,4-5.35,3.61-5.68C2030.69,602.29,2026.57,606.11,2025.71,606.87Z" transform="translate(-59.74 -125.8)"/><path class="cls-10" d="M2030.94,602.51s-4,10.14-2,9.58,2.82-3.61,3.6-4.3-1.53,3.94-.36,4.32,3-3,3.69-4.68c0,0-2,3.78-1.35,4.34s2.7-3.36,3.78-4.32-.36-3.86-1.35-3.86S2031.64,601.9,2030.94,602.51Z" transform="translate(-59.74 -125.8)"/><path class="cls-1" d="M1612.85,938.23c0,4.21-75.09,7.62-167.73,7.62s-167.72-3.41-167.72-7.62,75.09-7.61,167.72-7.61S1612.85,934,1612.85,938.23Z" transform="translate(-59.74 -125.8)"/><path class="cls-4" d="M1401.71,637s21.45,23.26,33.67,58.36c0,0-13.93,23.41-23.62,29.21s-3.87,17-3.87,17,2.85,3.28,1.89,3.57-4.53-1.9-5-3.26c0,0,2.78,2.84,3.15,4s-3.64-.27-3.78-.4c-1.45-1.29.14.13.14.13s.44.9-.75,1.26-1.72.35-2.53-2.25-1.67-16.31-1.12-17.35,18.59-26.83,15.31-37.39-23-33.15-22.62-42.33S1401.71,637,1401.71,637Z" transform="translate(-59.74 -125.8)"/><path class="cls-2" d="M1331.23,731.16s-8.09,25.74-19.2,28.44l6.1,6.3s13.73-23.21,14.62-32.44Z" transform="translate(-59.74 -125.8)"/><path class="cls-14" d="M1339.76,677.1s-9.6-1-13.87,0-13,26.45-13,26.45l18.17,6Z" transform="translate(-59.74 -125.8)"/><path class="cls-2" d="M1317.44,702.46s-7.59,11.67-5.17,21.47-2.29,13.05,2.2,15.75,14.54-1.86,14.54-1.86l3.53-33.8Z" transform="translate(-59.74 -125.8)"/><path class="cls-88" d="M1408,606.62c0-5.87-1.72-10.63-3.83-10.63a1.55,1.55,0,0,0-.52.1c-4.31.82-34.28,6.39-44.68,6.39-11.22,0-38.36-6.49-41.1-6.49v25.29s75.69-1.58,86.32-4a1.69,1.69,0,0,0,.74-.21c.32-.12.49-.24.49-.36h0C1406.91,615.23,1408,611.28,1408,606.62Z" transform="translate(-59.74 -125.8)"/><path class="cls-58" d="M1321.69,608.64c0,7-1.72,12.64-3.83,12.64s-3.82-5.66-3.82-12.64,1.71-12.65,3.82-12.65S1321.69,601.66,1321.69,608.64Z" transform="translate(-59.74 -125.8)"/><path class="cls-82" d="M1397.24,629.29a16.4,16.4,0,0,0-15.38-15.3c-16-1-40.17-2.39-43.92-1.48-5.7,1.39-19.5,46.29-19.5,46.29l10.56,3.05s8,12.29-2.91,34-13.21,51.88,6.86,55.23,63.63.51,67.66-6.09C1403.79,739.8,1399.29,662,1397.24,629.29Z" transform="translate(-59.74 -125.8)"/><path class="cls-89" d="M1318.44,617.11h0c-1.82-.06-2.56-13.47-.51-12.62.83.36.83,4.15.76,6.38a.31.31,0,0,1-.62,0c.08-2.39,0-5.13-.34-5.72-.78,1.31-.24,10.62.74,11.37a2.62,2.62,0,0,0,.25-.4c1.38-2.88.85-13.37-.51-16.42-1.14-2.58-1.84,2.8-1.84,5.8a.31.31,0,0,1-.31.31h0a.31.31,0,0,1-.31-.31c0-7.87,2.16-8,3-6.05,1.43,3.22,2,13.88.5,16.93C1319.17,616.55,1318.9,617.11,1318.44,617.11Z" transform="translate(-59.74 -125.8)"/><polygon class="cls-29" points="1275.98 814.46 1275.98 815.83 1293.35 816.34 1292.82 813.62 1278.22 812.54 1275.98 814.46"/><path class="cls-71" d="M1353.61,576.53c6.12-2.24,10.61,4,10.7,4.08a17.51,17.51,0,0,0-2.38-1.73c-2.84-1.62-5.52-1.5-7-.74a1.8,1.8,0,0,0-.42.24Z" transform="translate(-59.74 -125.8)"/><path class="cls-90" d="M1387.23,625.16c14.89,2.78,35.31,35.32,35.31,35.32L1408,678s-13.7-5.73-16.25-15.16S1377.84,623.41,1387.23,625.16Z" transform="translate(-59.74 -125.8)"/><path class="cls-4" d="M1400.28,721.64c1.36,15,15.66,107.16,15.66,107.16l-17.6,99.29s1.38,4.08,10.52,4.08,19.66,7.25,19.66,7.25H1389.2l2.29-11.33,2.28-93-22.62-62.34s-11.66-27.42-16.92-30.37L1344,720.67s0-.41,0-1.16C1362.76,720.1,1381.33,722.21,1400.28,721.64Z" transform="translate(-59.74 -125.8)"/><path class="cls-10" d="M1355.48,623s-54.4,26.2-56.82,75.63c0,0,20.1,27,32.38,35.34s3.83,22.55,3.83,22.55-4,4.08-2.75,4.54,6.09-2.17,6.74-3.92c0,0-3.85,3.53-4.42,5.05s4.78-.09,5-.25c2-1.58-.2.16-.2.16s-.63,1.15.9,1.72,2.23.58,3.48-2.77,3.4-21.29,2.75-22.68-31-37-25.93-50.66,41.25-41.35,41.44-53.41S1355.48,623,1355.48,623Z" transform="translate(-59.74 -125.8)"/><path class="cls-29" d="M1307.6,661.46l22.66,17.95s34.42-29,33-37,10.2-21.11-3.07-21.11C1343.6,621.28,1307.6,661.46,1307.6,661.46Z" transform="translate(-59.74 -125.8)"/><polygon class="cls-91" points="1335.93 590.48 1340.54 595.84 1360.04 696.21 1327.18 703.66 1305.72 630.46 1315.17 590.48 1335.93 590.48"/><path class="cls-10" d="M1382.19,746.28s-19.5,58-19.5,73.45-12.34,108.36-12.34,108.36l2.48,12.71-5,.3-11.21-.84s6.77-15.35,6.77-21.7V828.8l.61-108.13h43Z" transform="translate(-59.74 -125.8)"/><polygon class="cls-73" points="1329.96 590.48 1323.54 633.21 1309.61 703.66 1275.75 703.66 1284.18 593.71 1329.96 590.48"/><path class="cls-29" d="M1401.61,715.38c.28-17.19,1.05-70.8-.1-77.45-2.94-17-42.07-26.1-54.33-7.84-4.43,6.62-5.2,15.1-4.79,22.83.92,17.29,3.76,14.28,2,48-.08,1.38-5.26,32.65-5.26,32.65s46.63,8.59,65,3.68Z" transform="translate(-59.74 -125.8)"/><path class="cls-15" d="M1402,683.58c.09-10.48.14-21.34.07-29.91-25.13-9.42-49.25-2.58-59.57,1.34.78,11.41,2.43,13.34,2.43,27.79C1361.3,677.87,1393.45,682.27,1402,683.58Z" transform="translate(-59.74 -125.8)"/><path class="cls-10" d="M1387.23,609.93s-4,17.46-3.43,22.33-11.31,6.12-15.66,3-3.41-10.09-1.88-13.38,5.43-28.84,5.43-28.84Z" transform="translate(-59.74 -125.8)"/><path class="cls-4" d="M1371.69,593a23.28,23.28,0,0,1-.34,6.46c2.43,3.92,4.27,8.51,6.62,11a10.19,10.19,0,0,0,8.41,3.43c.49-2.33.85-3.91.85-3.91Z" transform="translate(-59.74 -125.8)"/><path class="cls-5" d="M1401.71,705.56c4.17-6.3,4.65-15.43,4.48-17.5.47-18.66-1.54-82.89-18.63-90.8l1.1,9.71c13.78,8.4,12.86,64.92,12.29,80.93C1400.88,697.11,1401.71,705.56,1401.71,705.56Z" transform="translate(-59.74 -125.8)"/><path class="cls-10" d="M1389.4,566.52s3.89,1.59,5.94,9.52,4.35,26.75,0,31.06-11.65,6.8-17.37,1.13-13.26-18.81-14.86-23.12c0,0-4.11-6.24,4.92-12.81S1389.4,566.52,1389.4,566.52Z" transform="translate(-59.74 -125.8)"/><path class="cls-71" d="M1375.23,573.55s10.51,1,12.8,1,6.86,2.95,12.8,1.36,9.14-7.71,9.14-10l-5.83-2.6a4.14,4.14,0,0,1-1.25,4.3,4.91,4.91,0,0,1-4.12,1.7s3.89-1.47,3.89-3.74l-5.49-2.26s-.34,4.08-2.74,4.08c0,0,.11,0-1-2.38s-7.15-4.2-13.4-2.95-8.43,5.1-11.17,6.35-5.23,2-6.65,3.4-.55,6.35-.55,6.35-7,1.47-5.72,7.14,11.17,10.51,12.55,14.71-2.2,7.39-2.2,7.39,5.77-1.13,5.77-6.63-5.26-14.91-3.09-15.7,3.77,1.36,4.57-4.53S1375.23,573.55,1375.23,573.55Z" transform="translate(-59.74 -125.8)"/><path class="cls-10" d="M1374.06,588.06c0-.45.23-5.32-3.54-5.32s-4.69,6.36-1.72,9.86S1374.06,591.13,1374.06,588.06Z" transform="translate(-59.74 -125.8)"/><path class="cls-4" d="M1373.11,587.49c0-1-.64-4.42-3.24-2.68s-.7,8.28,1.43,6.86S1373.17,588.65,1373.11,587.49Z" transform="translate(-59.74 -125.8)"/><polygon class="cls-29" points="1328.64 813.62 1368.78 813.62 1368.16 815.3 1328.64 815.3 1328.64 813.62"/><path class="cls-82" d="M1408.45,930.06c-.59.58,0,9.36,0,9.36h10.18l.93-6Z" transform="translate(-59.74 -125.8)"/><path class="cls-82" d="M1335.72,940.26s12.25-4.28,17.11.54l-1.58-8.06s-4.25-3.75-13.21.08Z" transform="translate(-59.74 -125.8)"/><path class="cls-8" d="M1389.82,595.65c-.17-.78,1.08-.58,3.1-1.16-.26-2.78-3.05-11.11-3.08-11.2a.46.46,0,0,1,.88-.29c3.64,10.79,3.1,12,3.15,12.23C1391.05,595.69,1390,596.44,1389.82,595.65Zm3.59-.79h0Z" transform="translate(-59.74 -125.8)"/><path class="cls-13" d="M1385.1,599.57c.23,0,5.1.92,8.77-.23l-.81.71-.2,2.43s-3.78,0-5.4-.76A5.26,5.26,0,0,1,1385.1,599.57Z" transform="translate(-59.74 -125.8)"/><path class="cls-8" d="M1379.92,579.08v1.15c1.33-.69,7-.26,7-.26C1385.27,579,1382,579,1379.92,579.08Z" transform="translate(-59.74 -125.8)"/><path class="cls-8" d="M1395.33,577.34l.43,1.06c-1.23-.25-5.22,1.83-5.22,1.83C1391.41,578.85,1393.78,577.88,1395.33,577.34Z" transform="translate(-59.74 -125.8)"/><path class="cls-8" d="M1384.56,587.39c-.62,0-1.12-.88-1.12-2s.5-1.95,1.12-1.95C1386,583.48,1386,587.39,1384.56,587.39Z" transform="translate(-59.74 -125.8)"/><path class="cls-8" d="M1394.83,585.43c-1.48,0-1.48-3.91,0-3.91S1396.31,585.43,1394.83,585.43Z" transform="translate(-59.74 -125.8)"/><path class="cls-5" d="M1347,600.91c6.65,0,14.44,4.83,14.46,20,0,18.67-3.43,82.84-20.7,90.36l1.32-9.68c14-8.09,14.35-64.62,14.15-80.64.14-9.21-8-19-17.07-21Z" transform="translate(-59.74 -125.8)"/><path class="cls-5" d="M1320.13,791.51a.44.44,0,0,1-.16,0c-20.11-5.32-30.79-19.9-36.2-31.19a78.29,78.29,0,0,1-7-23.43.62.62,0,0,1,1.23-.12,77.28,77.28,0,0,0,6.89,23.06c5.31,11,15.75,25.3,35.39,30.5a.61.61,0,0,1,.44.75A.63.63,0,0,1,1320.13,791.51Z" transform="translate(-59.74 -125.8)"/><path class="cls-92" d="M1542,851.93a.43.43,0,0,0,0-.11l13-90.17a1.29,1.29,0,0,0,0-.44l-8.35-35.36c-16.79,1.29-33.58,1.54-50.37,1.58-5,11.82-11.5,27.78-11.5,32.12,0,6.73,9.16,74.36,10.53,80.06a1.19,1.19,0,0,1-.15.9,14.73,14.73,0,0,0-2,7.54c0,4,7.17,51.5,9.75,68.47l6.55,0c.94-19.56,4-79.78,7.11-137a1.22,1.22,0,0,1,1.32-1.14l2,.13a1.23,1.23,0,0,1,1.15,1.13c4.62,73.58,4.76,69.68,3.71,70.26-.89.5-2.39,1.82-3,5.2-.67,4-1.26,45.2-1.46,61.41l6.28-.07C1530.36,899.09,1541.56,853.66,1542,851.93Z" transform="translate(-59.74 -125.8)"/><path class="cls-67" d="M1487.75,639c.17,4.65-1.16,10.32-5.47,12.35l-1.2-2.86c3.66-.68,5.57-5.9,6.14-9.48Z" transform="translate(-59.74 -125.8)"/><path class="cls-8" d="M1488.34,639.66c-1.68,1.14-14.09,10.36-14.09,10.36l-1.17-2.06,8.58-5.6-9.38,4.25-.43-4.66,10-1c.18-1.43-10.08-.63-10.08-.63l2.41-6.52c2.13,3.24,10.41,5.88,15.59,3.91,0,.15.39.33.42.49C1489.77,638.3,1488.82,639.34,1488.34,639.66Z" transform="translate(-59.74 -125.8)"/><path class="cls-8" d="M1533.09,601.66c2.05-12.08-9.83-16.67-13.89-17.87-.82-.25-1.32-.35-1.32-.35-7.24-1-11,3.84-14.25,8.79s-.86,7.33-1.72,11.75-4.13,1.21-6,6.25,2.92,5.88,1.55,9.07-6.11,8.91-6.11,13.19c0,3.07-1.51,3.51-1.58,4.57.15,0,.86.83,1,.86.31-.93,2.28-1.77,3-2.48,4.61-4.57,16.88-2.11,16.88-7.75s12.53-9.71,19.85-13.29S1533.09,601.66,1533.09,601.66Z" transform="translate(-59.74 -125.8)"/><path class="cls-2" d="M1533.09,601.66c2.05-12.08-9.83-16.67-13.89-17.87-.82-.25-1.32-.35-1.32-.35a13,13,0,0,0-2.3-.11,25.34,25.34,0,0,1,9.47,14.06c2.74,11.89-9.67,21.1-15.46,23.15s-2.45,5.8-5.11,8.44-11.89-.13-13.76,8.08c0,.35.55.82.55.82.26-1.26,1.54-1.52,2.47-2.44,4.61-4.57,16.88-2.11,16.88-7.75s12.53-9.71,19.85-13.29S1533.09,601.66,1533.09,601.66Z" transform="translate(-59.74 -125.8)"/><path class="cls-36" d="M1489.08,635.69a16.91,16.91,0,0,0-2,2.68c-.29.59.14,2.13.78,1.63s3.11-1.55,3.42-2.12S1490.58,634.43,1489.08,635.69Z" transform="translate(-59.74 -125.8)"/><path class="cls-5" d="M1500.82,933.93l.47,2.16s7.76,3.1,10,2.49l.32-1.42Z" transform="translate(-59.74 -125.8)"/><polygon class="cls-5" points="1459.01 806.02 1459.61 807.8 1478.5 809.11 1478.5 807.9 1459.01 806.02"/><path class="cls-2" d="M1506,617.53a31.79,31.79,0,0,0-2.65-6.47c-2.19-4.33-8.74-7.25-6.86-14s8.11-5.32,10.29-10.59,19-3,23.24,1.23,4.36,14.57,6.23,20.43-7,10.81-11.07,10.81S1506,617.53,1506,617.53Z" transform="translate(-59.74 -125.8)"/><path class="cls-93" d="M1562.08,673.59c0-.77-6-22.75-14.72-29.06s-14.9-7.43-14.9-7.43l13.59,45.41,5.07,8.83Z" transform="translate(-59.74 -125.8)"/><path class="cls-10" d="M1503.8,922.22a1.19,1.19,0,0,1-.06.59c-.55,1.45-3,8-3,10.94,0,2.45,6,3.48,9.22,4.1.87.17,1.82-.06,1.65-.9-.75-3.75-2.45-12.38-2.45-13.88,0-.18.1-2.53.3-6.57l-6.55,0C1503.38,919.44,1503.69,921.49,1503.8,922.22Z" transform="translate(-59.74 -125.8)"/><path class="cls-92" d="M1542,851.93a.43.43,0,0,0,0-.11l13-90.17a1.29,1.29,0,0,0,0-.44l-8.35-35.36c-16.79,1.29-33.58,1.54-50.37,1.58-5,11.82-11.5,27.78-11.5,32.12,0,6.73,9.16,74.36,10.53,80.06a1.19,1.19,0,0,1-.15.9,14.73,14.73,0,0,0-2,7.54c0,4,7.17,51.5,9.75,68.47l6.55,0c.94-19.56,4-79.78,7.11-137a1.22,1.22,0,0,1,1.32-1.14l2,.13a1.23,1.23,0,0,1,1.15,1.13c4.62,73.58,4.76,69.68,3.71,70.26-.89.5-2.39,1.82-3,5.2-.67,4-1.26,45.2-1.46,61.41l6.28-.07C1530.36,899.09,1541.56,853.66,1542,851.93Z" transform="translate(-59.74 -125.8)"/><path class="cls-94" d="M1542,851.93a.43.43,0,0,0,0-.11l13-90.17a1.29,1.29,0,0,0,0-.44l-8.35-35.36c-16.79,1.29-33.58,1.54-50.37,1.58-.56,1.31-1.13,2.67-1.72,4.06,15,3.24,42.65,12.39,47.71,36.44,7,33.38-3.29,96.26-3.3,96.3C1540.66,857.31,1541.86,852.47,1542,851.93Z" transform="translate(-59.74 -125.8)"/><path class="cls-10" d="M1537.61,932.24c-5.32-1.94-12.7-5.44-12.16-9.85.12-1,.54-3.11,1.17-6l-6.28.07c0,3.47-.07,5.82-.08,6.37a1,1,0,0,1,0,.25,79.88,79.88,0,0,0-1.65,8.91c0,1.78,4,.44,6.87,1.24,3.46,1,12.59,1,11.87,1C1538.61,934,1538.82,932.68,1537.61,932.24Z" transform="translate(-59.74 -125.8)"/><path class="cls-58" d="M1553.41,747,1545,687.3c1.12-9.61,2.81-11.76,0-25.83-1.84-9.4-4.69-19.56-7.14-22-4.54-4.43-19.7-3-21.1-2.87h-.21c-1.71-.11-24.35-1.28-35.15,14.52a211.09,211.09,0,0,0-15.68,28.29c5.54,4.07,13.86,7.57,18.14,12.87,5.25-10.77,7.27-16.92,10.73-15.15,4,2-10.71,56.56-9.81,66.81C1499.19,742.83,1539.21,744.34,1553.41,747Z" transform="translate(-59.74 -125.8)"/><path class="cls-95" d="M1553.41,747,1545,687.3c1.12-9.61,2.81-11.76,0-25.83-1.84-9.4-4.69-19.56-7.14-22-4.54-4.43-19.7-3-21.1-2.87h-.21a51.86,51.86,0,0,0-19.46,2.85c6.74,6.94,19.09,21.4,25.69,39.91,7.81,21.91-6.55,54.19-11.57,64.38C1527.17,744.23,1544.92,745.4,1553.41,747Z" transform="translate(-59.74 -125.8)"/><path class="cls-10" d="M1507.87,619.4c0,2.05.3,20.39,2.91,27.05s11.4,2.62,12.86.9,1.22-28,1.22-28Z" transform="translate(-59.74 -125.8)"/><path class="cls-4" d="M1508.2,629a18.14,18.14,0,0,0,4.71,3.09,11.72,11.72,0,0,0,11.92-1.41c.33-5.88,0-11.26,0-11.26h-17C1507.87,620.29,1507.92,624.24,1508.2,629Z" transform="translate(-59.74 -125.8)"/><path class="cls-4" d="M1506.08,607.79s-3-5.7-4.34-3.15,1.9,11.89,3.94,9.87S1506.08,607.79,1506.08,607.79Z" transform="translate(-59.74 -125.8)"/><path class="cls-4" d="M1528.85,605.62s2.89-6,4.37-3.37-1.6,12.31-3.76,10.29S1528.85,605.62,1528.85,605.62Z" transform="translate(-59.74 -125.8)"/><path class="cls-10" d="M1510.08,590.78s-5.92,2.34-5.92,8.37,1.71,7,.93,11.6-1.71,13.46,8.89,17.64,17.63-8.82,17.63-14.08-1.41-4.64,0-10.36S1524.43,583.18,1510.08,590.78Z" transform="translate(-59.74 -125.8)"/><path class="cls-91" d="M1522.4,586.63s1.41,7.57-5.61,11.29-15,9.46-15.74,15.34,1.24,4.27,1.24,4.27l-.63,2.81s-1.87,2.32-3.9-4.17,3.12-11.6,3.12-11.6,3.28-7.47,5.15-13.4S1522.4,586.63,1522.4,586.63Z" transform="translate(-59.74 -125.8)"/><path class="cls-91" d="M1522.4,586.63c-1.05.32-1.09,6.18,2.19,9.43s8.11,16.12,8.11,24.69a22.64,22.64,0,0,1-4.37,13.75l2.65,1.16s4.37-11.36,4.37-18.13S1532,583.69,1522.4,586.63Z" transform="translate(-59.74 -125.8)"/><path class="cls-96" d="M1601.24,627.29s-.59-4.69-2.32-5.8-3.28,2-3.28,2a2.46,2.46,0,0,0-2.55.35c-1.31,1-.6,1.57-2,1.74s-1.58-.59-2.29.18,3.13,8.51,3,13-19.08,22.18-25.3,28.9-18.19,19.35-14.91,24.1,24.52-10.2,36.89-29S1601.24,627.29,1601.24,627.29Z" transform="translate(-59.74 -125.8)"/><path class="cls-96" d="M1520.19,636s5.29-.14,7.19,1.43-.83,3.63-.83,3.63a2.64,2.64,0,0,1,.68,2.63c-.53,1.48-1.43.85-1,2.31s1.29,1.5.76,2.34-10.44-1.83-15.25-1-15.89,22.71-20.51,30-13.22,21.38-19.7,18.82.77-26.34,15.83-41.75A66.58,66.58,0,0,1,1520.19,636Z" transform="translate(-59.74 -125.8)"/><path class="cls-87" d="M1511.09,932.49l0-1c-3.61,1-8.08-1.24-9.87-2.26l-.1,1a17.2,17.2,0,0,0,8,2.44A6.72,6.72,0,0,0,1511.09,932.49Z" transform="translate(-59.74 -125.8)"/><path class="cls-87" d="M1508.1,935.22a.47.47,0,0,1-.46-.39l-.34-2.17a.46.46,0,1,1,.91-.14l.35,2.17a.45.45,0,0,1-.39.52Z" transform="translate(-59.74 -125.8)"/><path class="cls-87" d="M1531.4,934h-.93c0-1.86,2.93-3.49,3.33-3.7l.93.55C1533.41,931.61,1531.4,933,1531.4,934Z" transform="translate(-59.74 -125.8)"/><path class="cls-8" d="M1516.09,613.79s2.25-2.18,3.2-1.73a11,11,0,0,1,2.48,2.45s-2-1.73-2.84-1.73A10.67,10.67,0,0,0,1516.09,613.79Z" transform="translate(-59.74 -125.8)"/><polygon class="cls-72" points="1447.23 536.02 1507.87 536.02 1513.22 572.86 1457.64 570.72 1447.23 536.02"/><polygon class="cls-92" points="1447.23 536.02 1452.48 540.45 1516.99 540.45 1507.87 536.02 1447.23 536.02"/><polygon class="cls-97" points="1481.7 478.6 1452.48 540.45 1516.99 540.45 1546.15 474.76 1481.7 478.6"/><path class="cls-96" d="M1520.19,636s5.29-.14,7.19,1.43-.83,3.63-.83,3.63a2.64,2.64,0,0,1,.68,2.63c-.53,1.48-1.43.85-1,2.31s1.29,1.5.76,2.34-10.44-1.83-15.25-1-15.89,22.71-20.51,30-13.22,21.38-19.7,18.82.77-26.34,15.83-41.75A66.58,66.58,0,0,1,1520.19,636Z" transform="translate(-59.74 -125.8)"/><polygon class="cls-97" points="1481.7 478.6 1452.48 540.45 1516.99 540.45 1546.15 474.76 1481.7 478.6"/><path class="cls-96" d="M1527,648.32c.53-.84,0-.87-.39-2.34s.12-.83.65-2.31a2.64,2.64,0,0,0-.68-2.63s2.74-2.06.83-3.63a3.93,3.93,0,0,0-1.22-.66l-5.24,11.07C1524.08,648.28,1526.71,648.74,1527,648.32Z" transform="translate(-59.74 -125.8)"/><path class="cls-96" d="M1598.45,621.16c-2.08-1.44-3.39,1.8-3.39,1.8a2.75,2.75,0,0,0-2.8,0c-1.33.91-.45,1.63-2,1.62s-1.84-.85-2.53-.11,3.17,8.41,4,13.44l8.16-15.32A5.25,5.25,0,0,0,1598.45,621.16Z" transform="translate(-59.74 -125.8)"/><path class="cls-8" d="M1512.18,608.22c0,.93-.4,1.68-.9,1.68s-.9-.75-.9-1.68.4-1.67.9-1.67S1512.18,607.3,1512.18,608.22Z" transform="translate(-59.74 -125.8)"/><path class="cls-8" d="M1525,608.47c0,.92-.4,1.67-.9,1.67s-.9-.75-.9-1.67.41-1.67.9-1.67S1525,607.55,1525,608.47Z" transform="translate(-59.74 -125.8)"/><path class="cls-8" d="M1514.08,605.41s-.9-3.23-3.1-2.53-2.7,2.08-1.8,2.08,2-1.14,3-.87A4.79,4.79,0,0,1,1514.08,605.41Z" transform="translate(-59.74 -125.8)"/><path class="cls-8" d="M1522.53,604.64s.29-3.33,2.58-3,3,1.57,2.15,1.73-2.17-.76-3.11-.31A4.61,4.61,0,0,0,1522.53,604.64Z" transform="translate(-59.74 -125.8)"/><path class="cls-8" d="M1518.67,620.4a18.25,18.25,0,0,1-3.35-.31.3.3,0,0,1-.23-.36.3.3,0,0,1,.35-.23s4.27.86,7.34-.38a.29.29,0,0,1,.39.17.29.29,0,0,1-.16.38A11.86,11.86,0,0,1,1518.67,620.4Z" transform="translate(-59.74 -125.8)"/><path class="cls-8" d="M1518.94,622a7.25,7.25,0,0,1-1.74-.21.29.29,0,0,1-.2-.37.29.29,0,0,1,.37-.2,6.56,6.56,0,0,0,3,0,.29.29,0,0,1,.37.2.29.29,0,0,1-.2.37A6,6,0,0,1,1518.94,622Z" transform="translate(-59.74 -125.8)"/><path class="cls-5" d="M1543,592.48a.61.61,0,0,1-.58-.4c-7.5-20.8-24.89-22-25.07-22a.62.62,0,1,1,.07-1.23,26.58,26.58,0,0,1,10.17,3.25c5.05,2.73,11.93,8.34,16,19.6a.62.62,0,0,1-.37.79Z" transform="translate(-59.74 -125.8)"/><path class="cls-5" d="M1553.41,589.62a.62.62,0,0,1-.59-.43,40.69,40.69,0,0,0-18.58-23.51.61.61,0,1,1,.55-1.1A42,42,0,0,1,1554,588.83a.61.61,0,0,1-.4.76Z" transform="translate(-59.74 -125.8)"/><path class="cls-98" d="M1484.78,759.55c0,.74.11,2.23.31,4.29L1502,771v-3.48l-16.93-10.26A11.21,11.21,0,0,0,1484.78,759.55Z" transform="translate(-59.74 -125.8)"/><text class="cls-99" transform="translate(0 293.83) scale(1.05 1)">HAPPY JOURNEY</text></svg>