<svg xmlns="http://www.w3.org/2000/svg" xmlns:xlink="http://www.w3.org/1999/xlink" viewBox="0 0 1716.15 1679.05"><defs><style>.cls-1{fill:none;}.cls-2{fill:#f9f0ed;}.cls-3{clip-path:url(#clip-path);}.cls-4{fill:#f5c84e;}.cls-5{fill:#ff9ec0;}.cls-6{fill:#4f8058;}.cls-7{fill:#0094ce;}.cls-8{fill:#f74a4b;}.cls-9{fill:#fff;opacity:0.9;}</style><clipPath id="clip-path" transform="translate(297.61 338.93)"><rect class="cls-1" width="1200" height="800"/></clipPath></defs><g id="Background"><rect class="cls-2" x="297.61" y="338.93" width="1200" height="800"/></g><g id="Graphic_Elements" data-name="Graphic Elements"><g class="cls-3"><path class="cls-4" d="M138,337.9c13.08-.94,26-1.72,38.79-2.21,166.05-6.3,370.93-105.9,377.74-286.92,4-105.55-1.56-223.17-76-298.09-46.57-46.86-112.82-68.44-177.85-80.08C241.28-340,179.79-343.66,121-330.33-32.64-295.5-136.35-156.18-226.06-26.68c-33.81,48.81-68.85,101.13-71.41,160.45-4,94,78.55,174,169.14,199.61C-43.47,357.36,50.36,344.18,138,337.9Z" transform="translate(297.61 338.93)"/><path class="cls-5" d="M595.27,155C655.13,86,715.06,13.52,763.86-63.39c48.71-76.76,89.28-163,163.82-218.85a285.8,285.8,0,0,1,168.15-56.68c26.71-.19,54.89,4,75.85,20.56,15.69,12.39,25.77,30.46,34.09,48.64,45.63,99.66,70.66,197.15,103.61,301.65,36.94,117.14,82.11,232.47,101.74,354.27,8.11,50.35,11.7,102.43-.46,152-11.08,45.11-34.84,86.28-63.35,122.94-92.16,118.5-238.46,193.1-388.5,198.11-73.41,2.45-147-10.84-220.14-4.22C670.88,861.12,606,884.11,541,904.48c-80.34,25.2-166.13,46.75-247.93,26.75C95,882.79,85.47,601.64,214.58,478.57c62.08-59.18,145-101.62,213.84-153C494.88,276,540.68,217.92,595.27,155Z" transform="translate(297.61 338.93)"/><path class="cls-6" d="M1139.17,1327.44c-56.64-23-99-70.71-139.13-116.81l-143.37-164.5c-51.37-59-104-120.05-128.42-194.33-37.81-115,.12-245,73.85-341S981.07,348,1089,293.19c43.09-21.88,92-42.67,138.36-28.85,45,13.44,75,56.71,90.66,101,35.85,101.28,14.68,213.06,26.28,319.88,17,156.11,103.75,314,51,462C1357.3,1253.79,1271,1381.07,1139.17,1327.44Z" transform="translate(297.61 338.93)"/><path class="cls-7" d="M375.85,598.49c-30.16-56.69-69.77-109.69-84.54-172.38-5.2-22.06-6.75-46.86,5.39-66.3,17.95-28.78,57.3-34.3,84-55.2,26.58-20.79,38.55-55.3,43.26-88.52,5.92-41.73.19-89.34-32-115.9C369.23,81.38,336.88,77,307.59,82.86s-56,21-80.78,38c-47.26,32.41-89.9,73.1-118,123-19,33.68-31.08,70.87-50.61,104.25-22.43,38.37-54.38,71.17-72.49,111.7-25,56-19.74,124,13.54,174.56,17,25.77,40.28,46.65,59.27,71,20.68,26.47,36,56.68,51.76,86.38,14.87,28,31.12,56.79,57.23,74.76,49.26,33.9,155.56,27,200.37-14.44,12.9-11.93,20.6-28.29,27.84-44.26C427.31,737.91,410.05,662.76,375.85,598.49Z" transform="translate(297.61 338.93)"/><path class="cls-8" d="M308.9,733.59c-11.07-6.85-21.41-15-31.61-23.13-13.54-10.82-27.55-22.48-33.83-38.63-12.69-32.67,1.32-92.28,24.57-117.73,15.1-16.53,46.5-28,67.52-34.93a144.28,144.28,0,0,1,76.81-3.93c40.34,9.19,76.09,36.85,95.1,73.61,6.64,12.83,11.37,27,11.15,41.44-.28,18.85-8.9,36.65-19.64,52.14-18.83,27.17-45.18,49.54-76.1,61.26s-66.42,12.24-96.73-1A136.43,136.43,0,0,1,308.9,733.59Z" transform="translate(297.61 338.93)"/></g></g><g id="Frame"><rect class="cls-9" x="338.97" y="381.48" width="1117.28" height="714.89"/></g></svg>