<svg id="Layer_1" data-name="Layer 1" xmlns="http://www.w3.org/2000/svg" viewBox="0 0 715.37 473.33"><path d="M30,424.42a3,3,0,0,0-.06,4.16c.1.1.21.19.32.28a3.66,3.66,0,0,0,4.84-.25C41.52,422,43.6,411.7,40.64,401c-1.81-6.55-5.07-12.57-8.23-18.38-1.12-2.07-2.24-4.13-3.29-6.21-2.62-5.19-5.81-12.63-5.61-20A13.37,13.37,0,0,0,31.78,360a11.51,11.51,0,0,0,9.44-4.16,10.54,10.54,0,0,0,2.58-6.77,9,9,0,0,0-.58-3.12,11.58,11.58,0,0,0-7.29-6.57,14,14,0,0,0-10.79.62,13.56,13.56,0,0,0-3,2.09,62.56,62.56,0,0,1-4.57-31,28.49,28.49,0,0,1,.95-5.42,12.77,12.77,0,0,0,3.21,2.4c3.83,2.14,8.77,1.87,11.77-.64A7.35,7.35,0,0,0,35.9,300a9.61,9.61,0,0,0-6.41-6.89,12.74,12.74,0,0,0-9.31.86c-1.85-7.34-.41-15.24,1.19-21.59.3-1.19.64-2.38,1-3.57a3.64,3.64,0,0,0,.52-.35C34.2,257,41.67,241.86,44.41,224.86a96.27,96.27,0,0,0,1.18-15.63,122.86,122.86,0,0,0-4.65-31.88,48.49,48.49,0,0,0-5.63-13.72,25.11,25.11,0,0,0-12.8-10.37c-6.21-2.11-13.16-1.09-17.7,2.57-5.29,4.27-6.38,11.74-2.44,16.65A12.35,12.35,0,0,0,12,176.76a11.17,11.17,0,0,0,8.85-3.85,3,3,0,0,0-.51-4.21l-.22-.16a3.65,3.65,0,0,0-4.8.66,4.32,4.32,0,0,1-3.31,1.31,5.43,5.43,0,0,1-4.15-1.73c-1.84-2.28-1.16-6.16,1.45-8.26s7-2.69,10.77-1.39a18.35,18.35,0,0,1,9.28,7.73,42.82,42.82,0,0,1,4.89,12c4.43,16.1,5.56,31.26,3.33,45.09A75.59,75.59,0,0,1,26,254a55.39,55.39,0,0,0,1.12-10.11,22.1,22.1,0,0,0-3-12.29,15,15,0,0,0-13-7,3.14,3.14,0,1,0-.14,6.28,4.07,4.07,0,0,0,.5,0,8,8,0,0,1,6.74,3.89c1.43,2.22,2.12,5.12,2.1,9.1,0,6.8-1.89,13.41-3.84,20.42-.63,2.23-1.25,4.46-1.81,6.69-1.85,7.35-3.79,18-.16,27.68-2.61,3.69-3.34,8.05-3.7,11.86C9.51,324.43,12,337.6,18,348.74a22.14,22.14,0,0,0-.81,3c-2,10.24,2.34,20.42,5.75,27.17,1.08,2.14,2.23,4.25,3.38,6.37,3.13,5.77,6.09,11.23,7.72,17.13C36.39,411.18,34.89,419.39,30,424.42ZM25.26,302.75a7.74,7.74,0,0,1-2.73-2.81,5.87,5.87,0,0,1,4.69-.89,3.18,3.18,0,0,1,1.92,2.25,1.6,1.6,0,0,1-.32,1.54A3.52,3.52,0,0,1,25.26,302.75Zm.24,45.69a7.72,7.72,0,0,1,3-3,6.47,6.47,0,0,1,5-.2A5,5,0,0,1,36.73,348a4.19,4.19,0,0,1-1,4.05,4.48,4.48,0,0,1-3.53,1.73c-2.75-.17-5.09-2.83-6.7-5.34Z" transform="translate(0 0)"/><path d="M95.56,457.65a3.28,3.28,0,0,0-3.44-3.11l-68.81.32L23,392a3.44,3.44,0,0,0-6.86,0l.32,65.94h0V458a3.28,3.28,0,0,0,3.44,3.11l72.24-.35A3.28,3.28,0,0,0,95.56,457.65Z" transform="translate(0 0)"/><path d="M327.06,436.08c-18.53-4.09-36.06-5-52.09-2.7C256.34,436,239.89,443,227.4,453.52a3.41,3.41,0,0,0-.37.48c-1.3.31-2.6.63-3.91.91-6.94,1.52-15.57,2.92-23.63,1.3a9.89,9.89,0,0,0,.84-8.51,10,10,0,0,0-7.6-5.78,9.08,9.08,0,0,0-8.13,2.26,8.51,8.51,0,0,0-.59,10.75,12.3,12.3,0,0,0,2.71,2.82,37.12,37.12,0,0,1-5.93.92,80.72,80.72,0,0,1-34-3.87,12.49,12.49,0,0,0,2.25-2.71,10.83,10.83,0,0,0,.58-9.87,11.57,11.57,0,0,0-7.27-6.59,12.55,12.55,0,0,0-10.81,1.93c-3.08,2.19-4.76,5.39-4.49,8.66a11.33,11.33,0,0,0,4.09,7.51c-8.12.28-16.25-2.59-21.95-4.92-2.28-.94-4.55-1.94-6.82-2.94-6.41-2.83-13-5.76-20.23-7.34-11.79-2.6-23.09-.6-30.24,5.35a2.94,2.94,0,0,0-.48,4.13,3.58,3.58,0,0,0,.26.29,3.67,3.67,0,0,0,4.84.2c5.46-4.55,14.43-6,24-3.89C87,446,93,448.69,99.37,451.5c2.33,1,4.65,2.05,7,3,7.43,3,18.61,6.88,29.82,5a28.71,28.71,0,0,0,3.3-.77c12.27,5.38,26.73,7.51,42,6.17,4.16-.37,8.93-1.07,12.94-3.49,10.66,3.21,22.29,1.35,30.33-.41,2.44-.54,4.89-1.13,7.33-1.72,7.65-1.85,14.87-3.61,22.32-3.7,4.27-.06,7.53.53,10,1.82,2.7,1.4,4.47,4,4.33,6.12a3.28,3.28,0,0,0,3.27,3.25,3.33,3.33,0,0,0,3.58-3v-.51c0-4.43-3-8.83-7.78-11.31-3.56-1.85-8-2.71-13.49-2.64a71.2,71.2,0,0,0-11,1.11A94.24,94.24,0,0,1,276,439.56c15.13-2.17,31.76-1.29,49.42,2.6a53.53,53.53,0,0,1,13.28,4.34c4.13,2.17,7.15,5.16,8.51,8.4a9.28,9.28,0,0,1-1.42,9.85c-2.29,2.4-6.51,3.06-9,1.4a4.59,4.59,0,0,1-1.93-3.77,3.68,3.68,0,0,1,1.39-3,3,3,0,0,0,.84-4.16c-.05-.07-.1-.15-.16-.22a3.63,3.63,0,0,0-4.79-.62,9.5,9.5,0,0,0-4.14,8v.07a10.59,10.59,0,0,0,4.79,8.79c5.41,3.54,13.59,2.47,18.21-2.39a14.44,14.44,0,0,0,3.9-10.08,16,16,0,0,0-1.25-6.1c-1.92-4.59-6-8.7-11.49-11.59A59.48,59.48,0,0,0,327.06,436.08ZM189.83,451.61c-.73-1.08-.8-2.57-.13-3.24a2,2,0,0,1,1.68-.31,3.3,3.3,0,0,1,2.48,1.73,4.59,4.59,0,0,1-.92,4.28A7.88,7.88,0,0,1,189.83,451.61Zm-56-5.87a3.85,3.85,0,0,1,1.86-3.24,5.26,5.26,0,0,1,4.42-.93,5.35,5.35,0,0,1,3.15,6.88,4.41,4.41,0,0,1-.26.59,7.81,7.81,0,0,1-3.26,2.79c-2.73-1.44-5.66-3.54-5.87-6.09Z" transform="translate(0 0)"/><ellipse cx="28.44" cy="199.27" rx="3.43" ry="3.13" transform="translate(-0.98 0.14) rotate(-0.28)"/><ellipse cx="28.38" cy="186.76" rx="3.43" ry="3.13" transform="translate(-0.92 0.14) rotate(-0.28)"/><ellipse cx="28.5" cy="211.79" rx="3.43" ry="3.13" transform="translate(-1.04 0.14) rotate(-0.28)"/><ellipse cx="28.56" cy="224.3" rx="3.43" ry="3.13" transform="translate(-1.1 0.14) rotate(-0.28)"/><path d="M296.57,456.67a3.42,3.42,0,1,0-3.68,3.14h.3a3.26,3.26,0,0,0,3.38-3.14Z" transform="translate(0 0)"/><ellipse cx="306.88" cy="456.61" rx="3.43" ry="3.13" transform="translate(-2.23 1.5) rotate(-0.28)"/><ellipse cx="320.59" cy="456.53" rx="3.43" ry="3.13" transform="translate(-2.23 1.57) rotate(-0.28)"/><ellipse cx="279.49" cy="456.73" rx="3.43" ry="3.13" transform="translate(-2.23 1.37) rotate(-0.28)"/><path d="M51.73,429.5a43.29,43.29,0,0,0,30.52-11.07,35.94,35.94,0,0,0,11.87-26.52v-1.45a3.29,3.29,0,0,0-3.31-3,43.29,43.29,0,0,0-30.52,11.07,35.79,35.79,0,0,0-11.83,28A3.3,3.3,0,0,0,51.73,429.5ZM65.12,403a35.75,35.75,0,0,1,22.09-9.17A30.08,30.08,0,0,1,77.38,414a35.75,35.75,0,0,1-22.09,9.17A30.1,30.1,0,0,1,65.14,403Z" transform="translate(0 0)"/><path d="M685.49,48.91a3,3,0,0,0,0-4.16l-.3-.26a3.68,3.68,0,0,0-4.85.25c-6.44,6.58-8.53,16.92-5.56,27.65,1.81,6.55,5.07,12.56,8.23,18.38,1.12,2.07,2.24,4.13,3.29,6.21,2.62,5.19,5.83,12.59,5.61,20a13.37,13.37,0,0,0-8.27-3.65,11.54,11.54,0,0,0-9.44,4.18,9.91,9.91,0,0,0-2,9.88,11.54,11.54,0,0,0,7.29,6.58,14,14,0,0,0,10.79-.63,13.55,13.55,0,0,0,2.95-2.08,62.35,62.35,0,0,1,4.58,31,28.58,28.58,0,0,1-1,5.42,13,13,0,0,0-3.12-2.45c-3.83-2.13-8.78-1.86-11.77.65a7.35,7.35,0,0,0-2.4,7.43A9.61,9.61,0,0,0,686,180.2a12.74,12.74,0,0,0,9.31-.86c1.85,7.36.41,15.24-1.19,21.59-.3,1.19-.64,2.38-1,3.57a3.64,3.64,0,0,0-.52.35c-11.4,11.5-18.87,26.58-21.61,43.62-2.35,14.64-1.18,30.63,3.47,47.51a48.37,48.37,0,0,0,5.63,13.72,25.11,25.11,0,0,0,12.8,10.37c6.22,2.1,13.17,1.09,17.7-2.57a12.75,12.75,0,0,0,4.81-9.87,10.92,10.92,0,0,0-2.37-6.78,12.39,12.39,0,0,0-9.67-4.29,11.17,11.17,0,0,0-8.85,3.86,3,3,0,0,0,.51,4.21l.22.16a3.64,3.64,0,0,0,4.79-.67,4.38,4.38,0,0,1,3.32-1.3,5.43,5.43,0,0,1,4.15,1.73c1.84,2.29,1.16,6.16-1.45,8.26s-7,2.69-10.77,1.39a18.5,18.5,0,0,1-9.29-7.68,43.65,43.65,0,0,1-4.88-12.07c-4.43-16.08-5.56-31.24-3.33-45.08a76.33,76.33,0,0,1,11.59-30,54.2,54.2,0,0,0-1.11,10c0,4.94,1,9.06,3,12.28a15,15,0,0,0,13,7,3.27,3.27,0,0,0,3.25-3.14v-.15a3.32,3.32,0,0,0-3.6-3,8,8,0,0,1-6.75-3.89c-1.42-2.22-2.12-5.18-2.09-9.1,0-6.8,1.89-13.41,3.84-20.42.63-2.23,1.25-4.46,1.81-6.69,1.85-7.35,3.79-18,.16-27.69,2.61-3.68,3.34-8,3.7-11.85,1.32-13.92-1.16-27.1-7.17-38.24a22.14,22.14,0,0,0,.81-3c2-10.24-2.34-20.41-5.75-27.17-1.08-2.14-2.23-4.25-3.38-6.37-3.13-5.78-6.09-11.23-7.72-17.13C679.06,62.15,680.57,53.93,685.49,48.91Zm4.71,121.66a7.85,7.85,0,0,1,2.73,2.82,5.82,5.82,0,0,1-4.69.88,3.17,3.17,0,0,1-1.92-2.24,5.14,5.14,0,0,1-.06-.55,1.3,1.3,0,0,1,.39-1,3.55,3.55,0,0,1,3.55.09ZM690,124.86a7.72,7.72,0,0,1-3,3,6.47,6.47,0,0,1-5,.2,5,5,0,0,1-3.22-2.76,3.14,3.14,0,0,1-.2-1.09,4.67,4.67,0,0,1,1.17-2.95,4.44,4.44,0,0,1,3.53-1.74C686,119.72,688.35,122.37,690,124.86Z" transform="translate(0 0)"/><path d="M619.9,15.68a3.28,3.28,0,0,0,3.44,3.11l68.81-.33.3,62.9a3.44,3.44,0,0,0,6.86,0L699,15.42h0a3.28,3.28,0,0,0-3.44-3.11l-72.24.35A3.28,3.28,0,0,0,619.9,15.68Z" transform="translate(0 0)"/><path d="M364.48,4.48a15,15,0,0,0-2.65,16.19c1.92,4.59,6,8.7,11.49,11.58a59.85,59.85,0,0,0,15.07,5c18.55,4.08,36.08,5,52.1,2.7,18.63-2.66,35.08-9.63,47.57-20.14a3.41,3.41,0,0,0,.37-.48c1.3-.31,2.6-.63,3.91-.91,6.94-1.52,15.57-2.92,23.63-1.29a9.83,9.83,0,0,0-.84,8.5,10,10,0,0,0,7.6,5.78,9,9,0,0,0,8.11-2.26,8.48,8.48,0,0,0,.6-10.75,12.3,12.3,0,0,0-2.71-2.82,36,36,0,0,1,5.93-.92,80.72,80.72,0,0,1,34,3.87,13,13,0,0,0-2.25,2.71,10.81,10.81,0,0,0-.58,9.86,11.57,11.57,0,0,0,7.27,6.59,12.51,12.51,0,0,0,10.81-1.92c3.08-2.19,4.76-5.39,4.49-8.66a11.39,11.39,0,0,0-4.08-7.51c8.11-.28,16.24,2.59,21.94,4.93,2.29.94,4.57,1.94,6.84,2.94,6.4,2.82,13,5.75,20.21,7.33,11.79,2.6,23.1.6,30.24-5.35a3,3,0,0,0,1.18-2.33,3,3,0,0,0-.9-2.09,3.66,3.66,0,0,0-4.84-.2c-5.46,4.55-14.43,6-24,3.89-6.47-1.43-12.48-4.08-18.83-6.88-2.33-1-4.67-2.06-7-3-7.43-3.05-18.61-6.89-29.82-5a28.55,28.55,0,0,0-3.29.77c-12.27-5.38-26.73-7.51-42-6.17-4.16.37-8.93,1.07-12.95,3.49-10.66-3.22-22.28-1.35-30.32.41-2.44.54-4.87,1.13-7.3,1.72-7.66,1.85-14.89,3.61-22.35,3.7-4.27.06-7.53-.54-10-1.82-2.7-1.4-4.48-3.93-4.33-6.11a3.28,3.28,0,0,0-3.27-3.26,3.33,3.33,0,0,0-3.58,3c-.22,4.61,2.78,9.22,7.78,11.8,3.56,1.85,8,2.71,13.49,2.64a71.63,71.63,0,0,0,11-1.15,93,93,0,0,1-32.82,10.91c-15.13,2.16-31.75,1.29-49.42-2.6a53.46,53.46,0,0,1-13.28-4.31c-4.12-2.17-7.15-5.15-8.5-8.4a9.28,9.28,0,0,1,1.41-9.85c2.29-2.4,6.52-3.06,9-1.4A4.59,4.59,0,0,1,380.57,11a3.35,3.35,0,0,1-1.39,3,3,3,0,0,0-.85,4.16c.05.07.1.15.16.22a3.65,3.65,0,0,0,4.8.62,9.8,9.8,0,0,0,4.19-8.12,10.63,10.63,0,0,0-4.75-8.77C377.28-1.45,369.11-.38,364.48,4.48ZM525.63,21.72c.73,1.08.8,2.57.13,3.24a2,2,0,0,1-1.68.31,3.36,3.36,0,0,1-2.49-1.73,3.41,3.41,0,0,1-.21-1.18,5.31,5.31,0,0,1,1.14-3.1A7.88,7.88,0,0,1,525.63,21.72Zm56,5.87a3.81,3.81,0,0,1-1.9,3.27,5.25,5.25,0,0,1-4.42.92,5,5,0,0,1-3.06-2.92,5.83,5.83,0,0,1-.46-2.18,4.6,4.6,0,0,1,.63-2.37,7.86,7.86,0,0,1,3.31-2.81c2.72,1.44,5.65,3.55,5.86,6.09Z" transform="translate(0 0)"/><ellipse cx="687.05" cy="274.03" rx="3.43" ry="3.13" transform="translate(-1.33 3.36) rotate(-0.28)"/><ellipse cx="686.93" cy="249.01" rx="3.43" ry="3.13" transform="translate(-1.21 3.36) rotate(-0.28)"/><ellipse cx="686.99" cy="261.52" rx="3.43" ry="3.13" transform="translate(-1.27 3.36) rotate(-0.28)"/><ellipse cx="687.11" cy="286.54" rx="3.43" ry="3.13" transform="translate(-1.4 3.36) rotate(-0.28)"/><path d="M432.58,16.6a3.44,3.44,0,1,0,3.7-3.16H436A3.29,3.29,0,0,0,432.58,16.6Z" transform="translate(0 0)"/><path d="M391.45,16.8a3.44,3.44,0,1,0,3.69-3.17h-.28a3.29,3.29,0,0,0-3.41,3.17Z" transform="translate(0 0)"/><path d="M418.87,16.67a3.44,3.44,0,1,0,3.69-3.17h-.28A3.3,3.3,0,0,0,418.87,16.67Z" transform="translate(0 0)"/><path d="M405.16,16.73a3.44,3.44,0,1,0,3.7-3.16h-.29a3.29,3.29,0,0,0-3.41,3.17Z" transform="translate(0 0)"/><path d="M624.67,85.86a43.29,43.29,0,0,0,30.52-11.07,35.94,35.94,0,0,0,11.86-26.53V46.82a3.3,3.3,0,0,0-3.32-3,43.26,43.26,0,0,0-30.54,11,35.82,35.82,0,0,0-11.83,28A3.29,3.29,0,0,0,624.67,85.86Zm13.39-26.55a35.75,35.75,0,0,1,22.09-9.17,30.14,30.14,0,0,1-9.83,20.25,35.75,35.75,0,0,1-22.09,9.17,30.08,30.08,0,0,1,9.83-20.26Z" transform="translate(0 0)"/></svg>