<svg xmlns="http://www.w3.org/2000/svg" xmlns:xlink="http://www.w3.org/1999/xlink" viewBox="0 0 916.43 940.79"><defs><style>.cls-1,.cls-10,.cls-12{fill:none;}.cls-2{isolation:isolate;}.cls-3{fill:#ffb352;}.cls-4{clip-path:url(#clip-path);}.cls-5{mix-blend-mode:multiply;opacity:0.3;}.cls-6{fill:#fff;}.cls-7{fill:#d15d57;}.cls-8{fill:#8f97eb;}.cls-9{opacity:0.8;}.cls-10,.cls-12{stroke:#fff;stroke-miterlimit:10;}.cls-11{fill:#443ca6;}.cls-12{stroke-width:2px;stroke-dasharray:2.86 8.58;}.cls-13{fill:#5fc3a7;}.cls-14{fill:#c05f53;}.cls-15{fill:#ea9b83;}.cls-16{fill:#f3ecdf;}.cls-17{fill:#1f294a;}</style><clipPath id="clip-path" transform="translate(-619.91 26.64)"><rect class="cls-1" x="643.18" y="-8.5" width="612.28" height="858.9"/></clipPath></defs><g class="cls-2"><g id="PRINT_2" data-name="PRINT 2"><rect class="cls-3" x="23.27" y="18.14" width="612.28" height="858.9"/><g class="cls-4"><g class="cls-5"><path class="cls-3" d="M619.91,229.05c12-28.82,39.36-49,68.82-59.29S750,153.66,781.06,157c274.27,29.13,346.55,13.92,482.87-59.44,24-12.89,51-23.68,78-20.14V914.15h-722Z" transform="translate(-619.91 26.64)"/></g></g><path class="cls-6" d="M711.85,61l-10.43,3.05-1.1-3.76,25.38-7.43,1.1,3.76L716.32,59.7l8.94,30.51-4.48,1.31Z" transform="translate(-619.91 26.64)"/><path class="cls-6" d="M736.64,53.72a2.75,2.75,0,0,1-2.32,3.4A2.78,2.78,0,0,1,731,54.89a2.84,2.84,0,0,1,2.26-3.44A2.77,2.77,0,0,1,736.64,53.72Zm1.61,33.22L733,61.83l4.57-.95L742.82,86Z" transform="translate(-619.91 26.64)"/><path class="cls-6" d="M747.92,65.26c-.17-2.65-.36-4.81-.65-6.92l4.07-.26.48,4.11H752A8.83,8.83,0,0,1,759.71,57a7.6,7.6,0,0,1,7.58,4.67h.1A10.58,10.58,0,0,1,770,58.11,8.7,8.7,0,0,1,775.58,56c3.38-.22,8.55,1.68,9.12,10.56l1,15.08-4.54.29-.93-14.49c-.32-4.92-2.3-7.77-6.06-7.53a6,6,0,0,0-5.23,4.59,7.8,7.8,0,0,0-.22,2.35l1,15.81-4.55.29-1-15.34c-.26-4.07-2.25-6.92-5.79-6.69-2.91.19-4.88,2.65-5.47,5a6.41,6.41,0,0,0-.22,2.29l1,15.45-4.55.29Z" transform="translate(-619.91 26.64)"/><path class="cls-6" d="M795.62,71.39c-.55,6.28,3.18,9.28,7.82,9.77a16.79,16.79,0,0,0,7.21-.58l.44,3.4a20.76,20.76,0,0,1-8.65.7c-7.86-.82-12-6.48-11.21-14.18s6-13.28,13.41-12.51c8.33.87,9.78,8.43,9.29,13.13a17.86,17.86,0,0,1-.39,2.14Zm14-1.9c.36-2.95-.43-7.67-5.65-8.21-4.69-.49-7.2,3.62-7.9,6.79Z" transform="translate(-619.91 26.64)"/><path class="cls-6" d="M837,55.65l-10.82-1,.37-3.9,26.33,2.49-.37,3.9-10.87-1-3,31.66L834,87.31Z" transform="translate(-619.91 26.64)"/><path class="cls-6" d="M873.79,77.77c-.82,9.45-7.72,13-13.9,12.47-6.92-.59-11.82-6.12-11.12-14.2.74-8.56,6.77-13.09,13.84-12.48C870,64.19,874.46,70,873.79,77.77Zm-20.31-1.49c-.48,5.6,2.38,10.1,6.92,10.5s8.12-3.51,8.62-9.26c.37-4.33-1.32-10-6.81-10.49S853.9,71.43,853.48,76.28Z" transform="translate(-619.91 26.64)"/><path d="M898.47,56.76l-.55,8,7.22.51-.27,3.84-7.22-.51-1,15c-.24,3.44.6,5.45,3.4,5.65a11.25,11.25,0,0,0,3-.14l0,3.8a12.59,12.59,0,0,1-4.52.38,7,7,0,0,1-5.3-2.51c-1.33-1.59-1.67-4.09-1.45-7.36l1.06-15.13-4.3-.3.27-3.84,4.3.3.46-6.65Z" transform="translate(-619.91 26.64)"/><path d="M909.92,74.22c.19-3.27.3-6.08.28-8.67l4.41.25-.14,5.47h.23c1.48-3.66,4.65-5.83,8-5.63a5.38,5.38,0,0,1,1.42.25l-.27,4.77a7.35,7.35,0,0,0-1.72-.28c-3.55-.21-6.24,2.34-7.15,6.09a14.79,14.79,0,0,0-.36,2.34l-.87,14.8-5-.29Z" transform="translate(-619.91 26.64)"/><path d="M942.53,95l-.26-3.52h-.17a10.36,10.36,0,0,1-8.67,3.77c-5.63-.23-8.33-4.31-8.16-8.33.28-6.72,6.41-10.15,17.14-9.64l0-.57c.1-2.3-.36-6.46-6-6.7a13.74,13.74,0,0,0-7.32,1.77l-1-3.38a17.29,17.29,0,0,1,9.23-2.09c8.5.36,10.32,6.24,10.09,11.81l-.44,10.4a39.82,39.82,0,0,0,.18,6.68Zm-.15-14.21c-5.51-.35-11.81.37-12,5.76a4.48,4.48,0,0,0,4.57,5,6.92,6.92,0,0,0,6.91-4.37,5.37,5.37,0,0,0,.36-1.6Z" transform="translate(-619.91 26.64)"/><path d="M956.58,67.65l5.19,15.73a71.1,71.1,0,0,1,2.11,7.16h.18c.67-2.29,1.51-4.58,2.48-7.09l5.67-15.53,5.29.09L966.09,95.64l-4.82-.08-10.09-28Z" transform="translate(-619.91 26.64)"/><path d="M984.21,82.77c.23,6.84,4.64,9.58,9.69,9.51a18.4,18.4,0,0,0,7.68-1.56l.92,3.61a22.61,22.61,0,0,1-9.22,1.86c-8.57.14-13.77-5.41-13.9-13.8s4.71-15.08,12.81-15.21c9.08-.14,11.62,7.81,11.7,12.93a20.16,20.16,0,0,1-.14,2.36ZM999,78.92c0-3.22-1.45-8.2-7.14-8.11-5.11.08-7.28,4.83-7.63,8.34Z" transform="translate(-619.91 26.64)"/><path d="M1009.13,54.33l5-.25,2,40.76-5,.24Z" transform="translate(-619.91 26.64)"/><rect class="cls-7" x="23.27" y="687.72" width="612.28" height="189.32"/><path class="cls-6" d="M1219.67,627.62c-6.07.76-7.16,2-7.76,9.57a.22.22,0,0,1-.43,0c-.6-7.6-1.68-8.81-7.75-9.57a.21.21,0,0,1,0-.41c6.07-.76,7.15-2,7.75-9.57a.22.22,0,0,1,.43,0c.6,7.61,1.69,8.81,7.76,9.57A.21.21,0,0,1,1219.67,627.62Z" transform="translate(-619.91 26.64)"/><path class="cls-6" d="M1235,394.19c-6.06.76-7.15,2-7.75,9.57a.22.22,0,0,1-.43,0c-.6-7.6-1.69-8.81-7.75-9.57a.21.21,0,0,1,0-.41c6.06-.76,7.15-2,7.75-9.57a.22.22,0,0,1,.43,0c.6,7.61,1.69,8.81,7.75,9.57A.21.21,0,0,1,1235,394.19Z" transform="translate(-619.91 26.64)"/><path class="cls-6" d="M702.18,59.38c-6.07.76-7.15,2-7.75,9.57a.22.22,0,0,1-.43,0c-.6-7.6-1.69-8.81-7.76-9.57a.21.21,0,0,1,0-.41c6.07-.76,7.16-2,7.76-9.57a.22.22,0,0,1,.43,0c.6,7.61,1.68,8.81,7.75,9.57A.21.21,0,0,1,702.18,59.38Z" transform="translate(-619.91 26.64)"/><path class="cls-6" d="M675.66,575.11c-6.07.76-7.15,2-7.75,9.57a.22.22,0,0,1-.43,0c-.6-7.6-1.69-8.81-7.76-9.57a.21.21,0,0,1,0-.41c6.07-.76,7.16-2,7.76-9.57a.22.22,0,0,1,.43,0c.6,7.61,1.68,8.81,7.75,9.57A.21.21,0,0,1,675.66,575.11Z" transform="translate(-619.91 26.64)"/><path class="cls-6" d="M1208.37,90.13a7.19,7.19,0,1,1,7.45-7.19A7.33,7.33,0,0,1,1208.37,90.13Zm0-12.92a5.74,5.74,0,1,0,5.94,5.73A5.84,5.84,0,0,0,1208.37,77.21Z" transform="translate(-619.91 26.64)"/><path class="cls-6" d="M1050.26,56.4a7.19,7.19,0,1,1,7.45-7.19A7.33,7.33,0,0,1,1050.26,56.4Zm0-12.93a5.74,5.74,0,1,0,5.94,5.74A5.86,5.86,0,0,0,1050.26,43.47Z" transform="translate(-619.91 26.64)"/><path class="cls-6" d="M1214.54,202.87a7.2,7.2,0,1,1,7.46-7.19A7.34,7.34,0,0,1,1214.54,202.87Zm0-12.93a5.74,5.74,0,1,0,6,5.74A5.85,5.85,0,0,0,1214.54,189.94Z" transform="translate(-619.91 26.64)"/><g class="cls-4"><circle class="cls-6" cx="661.03" cy="1.66" r="28.31" transform="translate(-307.82 589.74) rotate(-58.28)"/><circle class="cls-6" cx="717.64" cy="1.66" r="28.31" transform="translate(76.7 745.64) rotate(-88.45)"/><circle class="cls-6" cx="774.25" cy="1.66" r="28.31" transform="translate(52.1 795.78) rotate(-82.53)"/><circle class="cls-6" cx="830.86" cy="1.66" r="28.31" transform="translate(-586.84 260.38) rotate(-16.33)"/><circle class="cls-6" cx="887.47" cy="1.66" r="28.31" transform="translate(156.56 908.81) rotate(-82.92)"/><circle class="cls-6" cx="944.08" cy="1.66" r="28.31" transform="translate(-612.79 144.01) rotate(-7.14)"/><circle class="cls-6" cx="1000.69" cy="1.66" r="28.31" transform="translate(321.05 1027.21) rotate(-86.67)"/><circle class="cls-6" cx="1057.3" cy="1.66" r="28.31" transform="translate(291.87 1075.55) rotate(-82.18)"/><circle class="cls-6" cx="1111.76" cy="1.66" r="28.31" transform="translate(-568.97 360.97) rotate(-17.5)"/><circle class="cls-6" cx="1168.37" cy="1.66" r="28.31" transform="translate(503.84 1195.82) rotate(-87.89)"/><circle class="cls-6" cx="1224.98" cy="1.66" r="28.31" transform="translate(397.55 1235.58) rotate(-80.32)"/><circle class="cls-6" cx="1281.59" cy="1.66" r="28.31" transform="translate(-610.17 185.97) rotate(-7.14)"/><circle class="cls-6" cx="1338.2" cy="1.66" r="28.31" transform="translate(638.97 1364.15) rotate(-86.67)"/><circle class="cls-6" cx="1394.81" cy="1.66" r="28.31" transform="translate(583.45 1409.91) rotate(-82.18)"/><circle class="cls-6" cx="1451.42" cy="1.66" r="28.31" transform="translate(745.61 1477.18) rotate(-86.67)"/><circle class="cls-6" cx="1508.03" cy="1.66" r="28.31" transform="translate(681.27 1522.08) rotate(-82.18)"/></g><path class="cls-8" d="M1192,117.54H724c-17.3,0-31.44,13.67-31.44,30.38v645c0,16.71,14.14,30.38,31.44,30.38h466c17.29,0,33.44-13.67,33.44-30.38v-645C1223.44,131.21,1209.3,117.54,1192,117.54Z" transform="translate(-619.91 26.64)"/><g class="cls-9"><line class="cls-10" x1="123.63" y1="174.13" x2="531.62" y2="174.13"/></g><g class="cls-9"><line class="cls-10" x1="123.63" y1="195.64" x2="531.62" y2="195.64"/></g><g class="cls-9"><line class="cls-10" x1="123.63" y1="217.16" x2="531.62" y2="217.16"/></g><g class="cls-9"><line class="cls-10" x1="123.63" y1="238.67" x2="531.62" y2="238.67"/></g><g class="cls-9"><line class="cls-10" x1="123.63" y1="260.18" x2="531.62" y2="260.18"/></g><g class="cls-9"><line class="cls-10" x1="123.63" y1="281.7" x2="531.62" y2="281.7"/></g><g class="cls-9"><line class="cls-10" x1="123.63" y1="303.21" x2="531.62" y2="303.21"/></g><g class="cls-9"><line class="cls-10" x1="123.63" y1="324.72" x2="531.62" y2="324.72"/></g><g class="cls-9"><line class="cls-10" x1="123.63" y1="346.24" x2="531.62" y2="346.24"/></g><g class="cls-9"><line class="cls-10" x1="123.63" y1="367.75" x2="531.62" y2="367.75"/></g><path class="cls-6" d="M760.14,206.5l2.26-13.32,4.66-1.71a3.28,3.28,0,0,0-2.28-6.15l-1.11.41.94-5.54,4.25-1.56a3.29,3.29,0,0,0-2.28-6.16l-.7.26,2.48-14.64c16.91-6,30.53-12.66,27.92-18.22-1.63-5.92-16.36-2.22-33.12,4.16l-11.42-9.54.71-.26a3.28,3.28,0,0,0-2.28-6.15l-4.25,1.55L741.6,126l1.11-.41a3.28,3.28,0,0,0-2.27-6.15l-4.66,1.71-10.39-8.68a2.54,2.54,0,0,0-2.53-.45l-4.11,1.5a1.28,1.28,0,0,0-.6,1.9l24.46,37.16c-10.47,4.68-20,9.3-25.71,12.14l-20.19-9.5-4.54,1.66,13.92,14.37a3.14,3.14,0,0,0-.87,2,3.16,3.16,0,0,0,2,1l-1.25,19.93,4.55-1.67,9.18-20.27c6.22-1.55,16.46-4.17,27.47-7.37l5.58,44.09A1.27,1.27,0,0,0,754.4,210l4.11-1.51A2.53,2.53,0,0,0,760.14,206.5Z" transform="translate(-619.91 26.64)"/><polygon class="cls-11" points="135.94 230.16 132.64 195.2 127.92 196.94 132.38 232.21 135.94 230.16"/><polygon class="cls-11" points="104.15 144.18 124.41 172.92 119.68 174.65 100.11 144.92 104.15 144.18"/><path class="cls-11" d="M713.22,171.66c-4.13,1.51-7.68,2.22-7.92,1.56s2.92-2.4,7.05-3.92,7.68-2.22,7.92-1.57S717.36,170.14,713.22,171.66Z" transform="translate(-619.91 26.64)"/><path class="cls-11" d="M792.53,143.61a4,4,0,0,0-1.55-4.19,5.68,5.68,0,0,0-5.13-.73l.51,1.4s3.78-.41,4.57,1.73-2.35,4.27-2.35,4.27l.52,1.4A5.64,5.64,0,0,0,792.53,143.61Z" transform="translate(-619.91 26.64)"/><path class="cls-11" d="M779.78,152l-.34-.92a.42.42,0,0,1,.25-.54l.74-.27a.42.42,0,0,1,.53.26l.34.92a.41.41,0,0,1-.24.54l-.74.27A.43.43,0,0,1,779.78,152Z" transform="translate(-619.91 26.64)"/><path class="cls-11" d="M776.25,153.33l-.34-.92a.42.42,0,0,1,.24-.54l.74-.27a.42.42,0,0,1,.54.25l.34.92a.42.42,0,0,1-.24.54l-.74.27A.42.42,0,0,1,776.25,153.33Z" transform="translate(-619.91 26.64)"/><path class="cls-11" d="M772.72,154.62l-.34-.92a.42.42,0,0,1,.24-.54l.74-.27a.42.42,0,0,1,.54.26l.34.92a.42.42,0,0,1-.25.54l-.74.27A.42.42,0,0,1,772.72,154.62Z" transform="translate(-619.91 26.64)"/><path class="cls-11" d="M769.19,155.92l-.34-.92a.41.41,0,0,1,.24-.54l.74-.27a.41.41,0,0,1,.53.25l.34.92a.41.41,0,0,1-.24.54l-.74.27A.41.41,0,0,1,769.19,155.92Z" transform="translate(-619.91 26.64)"/><path class="cls-11" d="M765.65,157.21l-.34-.91a.43.43,0,0,1,.24-.55l.74-.27a.42.42,0,0,1,.54.26l.34.92a.42.42,0,0,1-.24.54l-.74.27A.42.42,0,0,1,765.65,157.21Z" transform="translate(-619.91 26.64)"/><path class="cls-11" d="M762.12,158.51l-.34-.92a.42.42,0,0,1,.24-.54l.74-.27a.42.42,0,0,1,.54.25l.34.92a.42.42,0,0,1-.24.54l-.74.28A.43.43,0,0,1,762.12,158.51Z" transform="translate(-619.91 26.64)"/><path class="cls-11" d="M758.59,159.81l-.34-.92a.41.41,0,0,1,.24-.54l.74-.28a.44.44,0,0,1,.54.26l.34.92a.42.42,0,0,1-.25.54l-.74.27A.41.41,0,0,1,758.59,159.81Z" transform="translate(-619.91 26.64)"/><path class="cls-11" d="M755.05,161.1l-.34-.92a.42.42,0,0,1,.25-.54l.74-.27a.42.42,0,0,1,.53.26l.34.91a.42.42,0,0,1-.24.55l-.74.27A.43.43,0,0,1,755.05,161.1Z" transform="translate(-619.91 26.64)"/><path class="cls-11" d="M751.52,162.4l-.34-.92a.42.42,0,0,1,.24-.54l.74-.27a.42.42,0,0,1,.54.25l.34.92a.42.42,0,0,1-.24.54l-.74.27A.42.42,0,0,1,751.52,162.4Z" transform="translate(-619.91 26.64)"/><path class="cls-11" d="M748,163.69l-.34-.92a.42.42,0,0,1,.24-.54l.74-.27a.42.42,0,0,1,.54.26l.34.92a.42.42,0,0,1-.25.54l-.74.27A.42.42,0,0,1,748,163.69Z" transform="translate(-619.91 26.64)"/><path class="cls-11" d="M775.8,141.25l.34.92a.41.41,0,0,0,.53.25l.74-.27a.42.42,0,0,0,.25-.54l-.34-.92a.44.44,0,0,0-.54-.26l-.74.28A.41.41,0,0,0,775.8,141.25Z" transform="translate(-619.91 26.64)"/><path class="cls-11" d="M772.27,142.54l.33.92a.43.43,0,0,0,.54.26l.74-.27a.41.41,0,0,0,.24-.54l-.34-.92a.42.42,0,0,0-.53-.26l-.74.27A.41.41,0,0,0,772.27,142.54Z" transform="translate(-619.91 26.64)"/><path class="cls-11" d="M768.73,143.84l.34.92a.42.42,0,0,0,.54.25l.74-.27a.42.42,0,0,0,.24-.54l-.34-.92a.42.42,0,0,0-.54-.25l-.74.27A.42.42,0,0,0,768.73,143.84Z" transform="translate(-619.91 26.64)"/><path class="cls-11" d="M765.2,145.13l.34.92a.42.42,0,0,0,.54.26l.74-.27a.42.42,0,0,0,.24-.54l-.34-.92a.42.42,0,0,0-.54-.26l-.74.27A.42.42,0,0,0,765.2,145.13Z" transform="translate(-619.91 26.64)"/><path class="cls-11" d="M761.67,146.43l.34.92a.41.41,0,0,0,.53.25l.74-.27a.41.41,0,0,0,.24-.54l-.34-.92a.41.41,0,0,0-.53-.25l-.74.27A.41.41,0,0,0,761.67,146.43Z" transform="translate(-619.91 26.64)"/><path class="cls-11" d="M758.13,147.73l.34.91a.42.42,0,0,0,.54.26l.74-.27a.42.42,0,0,0,.24-.54l-.34-.92a.42.42,0,0,0-.53-.26l-.74.27A.43.43,0,0,0,758.13,147.73Z" transform="translate(-619.91 26.64)"/><path class="cls-11" d="M754.6,149l.34.92a.43.43,0,0,0,.54.26l.74-.28a.42.42,0,0,0,.24-.54l-.34-.92a.42.42,0,0,0-.54-.25l-.74.27A.42.42,0,0,0,754.6,149Z" transform="translate(-619.91 26.64)"/><path class="cls-11" d="M751.07,150.32l.34.92a.41.41,0,0,0,.53.25l.74-.27a.42.42,0,0,0,.25-.54l-.34-.92a.44.44,0,0,0-.54-.26l-.74.28A.41.41,0,0,0,751.07,150.32Z" transform="translate(-619.91 26.64)"/><path class="cls-11" d="M747.54,151.61l.33.92a.43.43,0,0,0,.54.26l.74-.27a.42.42,0,0,0,.24-.55l-.34-.91a.42.42,0,0,0-.53-.26l-.74.27A.41.41,0,0,0,747.54,151.61Z" transform="translate(-619.91 26.64)"/><path class="cls-11" d="M744,152.91l.34.92a.42.42,0,0,0,.54.25l.74-.27a.42.42,0,0,0,.24-.54l-.34-.92a.42.42,0,0,0-.54-.25l-.74.27A.42.42,0,0,0,744,152.91Z" transform="translate(-619.91 26.64)"/><path class="cls-12" d="M691.31,182.75c-20.53,9-31.64,36.31-23.59,58,1.68,4.51,4.47,9.09,8.92,10.47s10.23-2.57,9.15-7.28c-.63-2.77-3.19-4.55-5.69-5.7-12.18-5.6-26.16-2.28-38.13,4.48" transform="translate(-619.91 26.64)"/><g class="cls-9"><line class="cls-10" x1="125.42" y1="393.91" x2="533.41" y2="393.91"/></g><g class="cls-9"><line class="cls-10" x1="125.42" y1="419.16" x2="533.41" y2="419.16"/></g><g class="cls-9"><line class="cls-10" x1="125.42" y1="444.42" x2="533.41" y2="444.42"/></g><g class="cls-9"><line class="cls-10" x1="125.42" y1="469.68" x2="533.41" y2="469.68"/></g><g class="cls-9"><line class="cls-10" x1="125.42" y1="494.94" x2="533.41" y2="494.94"/></g><g class="cls-9"><line class="cls-10" x1="125.42" y1="520.19" x2="533.41" y2="520.19"/></g><g class="cls-9"><line class="cls-10" x1="125.42" y1="545.45" x2="533.41" y2="545.45"/></g><g class="cls-9"><line class="cls-10" x1="125.42" y1="570.71" x2="533.41" y2="570.71"/></g><g class="cls-9"><line class="cls-10" x1="125.42" y1="595.97" x2="533.41" y2="595.97"/></g><g class="cls-9"><line class="cls-10" x1="125.42" y1="621.22" x2="533.41" y2="621.22"/></g><g class="cls-9"><line class="cls-10" x1="125.42" y1="647.38" x2="533.41" y2="647.38"/></g><g class="cls-9"><line class="cls-10" x1="125.42" y1="672.64" x2="533.41" y2="672.64"/></g><g class="cls-9"><line class="cls-10" x1="125.42" y1="697.9" x2="533.41" y2="697.9"/></g><g class="cls-9"><line class="cls-10" x1="125.42" y1="723.15" x2="533.41" y2="723.15"/></g><g class="cls-9"><line class="cls-10" x1="125.42" y1="748.41" x2="533.41" y2="748.41"/></g><g class="cls-9"><line class="cls-10" x1="125.42" y1="773.67" x2="533.41" y2="773.67"/></g><g class="cls-9"><line class="cls-10" x1="125.42" y1="798.92" x2="533.41" y2="798.92"/></g><g class="cls-9"><line class="cls-10" x1="125.42" y1="824.18" x2="533.41" y2="824.18"/></g><g class="cls-9"><line class="cls-10" x1="125.42" y1="849.44" x2="533.41" y2="849.44"/></g><g class="cls-9"><line class="cls-10" x1="125.42" y1="874.7" x2="533.41" y2="874.7"/></g><ellipse cx="539.86" cy="849.65" rx="78.49" ry="4.48"/><path class="cls-13" d="M1210.39,555.72s3.12,2.1,4,4.52-.21,4.84-2,5.26c0,0,1.56,10.63.42,13.36s-4.79,0-4.79,0S1209.35,559.92,1210.39,555.72Z" transform="translate(-619.91 26.64)"/><path class="cls-13" d="M1209.46,583.7s3.12,2.1,4,4.52-.21,4.84-2,5.26c0,0,1.56,10.63.42,13.37s-4.79,0-4.79,0S1208.42,587.91,1209.46,583.7Z" transform="translate(-619.91 26.64)"/><path d="M1209,546.67s3.12,2,1.25,22.83,3.74,36.4-4.68,45.34-31.74-8.21-31.74-8.21l10.64-59.39Z" transform="translate(-619.91 26.64)"/><path class="cls-13" d="M1196.54,612.68a10.54,10.54,0,0,0,6.12-1.68c2.23-1.58,3.51-5.3,3.9-11.38a139.79,139.79,0,0,0-.31-16.35c-.17-2.92-.33-5.69-.33-7.78,0-9.22,3.39-25.85,3.43-26a.32.32,0,0,0-.25-.37.31.31,0,0,0-.37.24c0,.17-3.44,16.87-3.44,26.15,0,2.11.16,4.88.33,7.82.59,10.06,1.39,23.84-3.31,27.17-3.3,2.33-8.16,1.56-10.76.89-4.55-1.16-8.9-3.68-9.91-5.72a.31.31,0,1,0-.56.28c1.1,2.23,5.54,4.83,10.32,6.05A21,21,0,0,0,1196.54,612.68Z" transform="translate(-619.91 26.64)"/><path class="cls-3" d="M1213.56,531.43A166.78,166.78,0,0,0,1163,525s-7.72,6.94-1.26,17.56l47,8.17S1214.88,539,1213.56,531.43Z" transform="translate(-619.91 26.64)"/><path d="M1197.5,527.7s-10.56,5.33-7.33,19.85l-3.26-.31s-3.71-12.81,6.63-20.12A3.88,3.88,0,0,1,1197.5,527.7Z" transform="translate(-619.91 26.64)"/><path class="cls-14" d="M1216.77,533.8a4.91,4.91,0,0,0-8.68.28,20.22,20.22,0,0,0-2,7c-.73,7.3,2.2,12.25,6.17,8.84s6.62-12.23,4.54-16Z" transform="translate(-619.91 26.64)"/><path class="cls-6" d="M1210.31,549.47a2.08,2.08,0,0,0,.64-.1c1.5-.46,3-2.61,3.94-5.75a32.28,32.28,0,0,0,1.17-8.07.32.32,0,0,0-.32-.33h0a.32.32,0,0,0-.32.32,31.86,31.86,0,0,1-1.15,7.89c-.87,2.84-2.25,4.93-3.51,5.32a1.58,1.58,0,0,1-1.54-.38c-.75-.61-1.11-2.08-1-4.15.15-4.09,2-9.13,3.7-10.35a.5.5,0,0,1,.64,0c.75.5,1.21,2.67.58,5.7-.89,4.29-2.17,6.77-2.62,6.94a.3.3,0,0,1-.18-.18c-.65-1.16.47-5.88,1-7.23a.33.33,0,0,0-.2-.42.32.32,0,0,0-.41.19c-.25.68-1.82,6.15-.92,7.78a.91.91,0,0,0,.64.5c.19,0,.78.16,1.75-2.07a29.31,29.31,0,0,0,1.61-5.37c.73-3.53.1-5.75-.85-6.39a1.17,1.17,0,0,0-1.37.05c-2.1,1.47-3.83,6.95-4,10.87,0,1.61.12,3.73,1.28,4.68A2.36,2.36,0,0,0,1210.31,549.47Z" transform="translate(-619.91 26.64)"/><path class="cls-15" d="M1106,605.17a9.51,9.51,0,0,0,1.67,1.07,10.91,10.91,0,0,0,5.1,1.22,13.42,13.42,0,0,0,3.07-.37,23,23,0,0,0,4.79-1.79,74.44,74.44,0,0,0,8.4-4.93c5.27-3.47,10.1-7.17,10.31-7.33a9.8,9.8,0,0,0,1.85-13.63,9.56,9.56,0,0,0-5.31-3.56c4.81-6.07,9.47-11.4,12.07-14.23a9.8,9.8,0,0,0-.48-13.75,9.54,9.54,0,0,0-13.6.49c-.24.25-5.85,6.35-12.36,14.51-9,11.28-15.16,20.72-18.27,28-.1.25-.2.49-.29.74a14.1,14.1,0,0,0-1,4.49A10.76,10.76,0,0,0,1106,605.17Z" transform="translate(-619.91 26.64)"/><path class="cls-14" d="M1109.5,591.34a.49.49,0,0,0,.32-.12c3.54-2.86,12.17-6.41,12.26-6.44a.53.53,0,0,0,.28-.69.51.51,0,0,0-.67-.29c-.36.15-8.86,3.64-12.52,6.6a.53.53,0,0,0-.08.74A.53.53,0,0,0,1109.5,591.34Z" transform="translate(-619.91 26.64)"/><polygon class="cls-15" points="555.88 808.53 560.91 812.81 555.08 822.09 550.04 817.81 555.88 808.53"/><path d="M1175.49,827l21.24-33.77a5.39,5.39,0,0,0-1.57-1.63c-2.69-2-7.78-4-10.9-5.4l-1-.46a10.6,10.6,0,0,1-1.22-.65,2,2,0,0,0-3.23.84c1.16,5.55-6.24,6.23-6,9.53,0,0,.08,1.42.78,5.63s-.6,9.79-1.43,14.7c-1.08,6.34.09,9.1,1.34,10.29A3.06,3.06,0,0,0,1175.49,827Z" transform="translate(-619.91 26.64)"/><path class="cls-8" d="M1175.49,827l21.24-33.77a5.39,5.39,0,0,0-1.57-1.63l-21.7,34.48A3.06,3.06,0,0,0,1175.49,827Z" transform="translate(-619.91 26.64)"/><path class="cls-8" d="M1194.57,796.67l.63-1a8.57,8.57,0,0,1-6.49-1.62,11.33,11.33,0,0,1-4.45-7.85l-1-.46a12.3,12.3,0,0,0,4.91,9.09A9.56,9.56,0,0,0,1194.57,796.67Z" transform="translate(-619.91 26.64)"/><path class="cls-16" d="M1175.88,801.78a.68.68,0,0,0-.08-.81.65.65,0,0,0-.92,0l-1.85,1.77a.67.67,0,0,0,0,.94.65.65,0,0,0,.92,0l1.85-1.78Z" transform="translate(-619.91 26.64)"/><path class="cls-16" d="M1175.38,798.76a.67.67,0,0,0-.08-.81.65.65,0,0,0-.92,0l-1.85,1.78a.66.66,0,0,0,0,.93.65.65,0,0,0,.92,0l1.85-1.78A.58.58,0,0,0,1175.38,798.76Z" transform="translate(-619.91 26.64)"/><path class="cls-16" d="M1174.94,795.84a.68.68,0,0,0-.08-.81.65.65,0,0,0-.92,0l-1.85,1.77a.67.67,0,0,0,0,.94.65.65,0,0,0,.92,0l1.84-1.78A.63.63,0,0,0,1174.94,795.84Z" transform="translate(-619.91 26.64)"/><path class="cls-16" d="M1175.76,804.67a.65.65,0,0,0-.08-.81.63.63,0,0,0-.92,0l-1.84,1.77a.66.66,0,0,0,0,.93.64.64,0,0,0,.92,0l1.84-1.78Z" transform="translate(-619.91 26.64)"/><path class="cls-16" d="M1175.6,807.53a.66.66,0,0,0-.08-.81.64.64,0,0,0-.92,0l-1.84,1.78a.66.66,0,0,0,0,.93.65.65,0,0,0,.93,0l1.84-1.78Z" transform="translate(-619.91 26.64)"/><path class="cls-16" d="M1175.23,810.52a.65.65,0,0,0-1-.83l-1.84,1.77a.67.67,0,0,0,0,.94.65.65,0,0,0,.92,0l1.84-1.78A.53.53,0,0,0,1175.23,810.52Z" transform="translate(-619.91 26.64)"/><path class="cls-16" d="M1174.58,813.6a.66.66,0,0,0-1-.83l-1.84,1.78a.66.66,0,0,0,0,.93.64.64,0,0,0,.92,0l1.84-1.77A.41.41,0,0,0,1174.58,813.6Z" transform="translate(-619.91 26.64)"/><path d="M1114.81,721.78l0,.22s.19.38.56,1.07a442.28,442.28,0,0,0,28.13,45.4c2,2.83,4.14,5.64,6.27,8.37q1.41,1.8,2.83,3.55a50.14,50.14,0,0,0,11.56,10.79l1.27.81c.83.51,1.67,1,2.55,1.5l1.28.71s6.37-6.77,9.33-13.34c0,0-.83-1.36-2.16-3.58l-.84-1.4c-.9-1.5-1.95-3.27-3.09-5.19-5.14-8.67-12-20.56-14.63-26.08-1.88-4-4.13-8.52-6.64-12.93-.48-.84-1-1.67-1.46-2.5l-.17-.29a79.62,79.62,0,0,0-11.24-15.1l9.1-54.34.58-3.41-20.14-7.18-1.15-.41-4.79-1.71s-.39,1.78-1,4.85c-.07.37-.15.76-.23,1.17C1118.12,666.7,1112.14,701.55,1114.81,721.78Z" transform="translate(-619.91 26.64)"/><path class="cls-13" d="M1164.19,791.18l1.27.81,7.8-10.43.72-1,2.48-3.31-.84-1.4-2.43,3.25-.72,1Z" transform="translate(-619.91 26.64)"/><path class="cls-13" d="M1114.81,721.78l0,.22s.19.38.57,1.07a25.08,25.08,0,0,0,8.28-3.28.69.69,0,0,0,.19-.95.66.66,0,0,0-.93-.2A24.18,24.18,0,0,1,1114.81,721.78Z" transform="translate(-619.91 26.64)"/><path class="cls-13" d="M1133.13,715.68c.1.1,10.19,10.26,39.34,64.41.26.48.53,1,.79,1.47l.72-1-.79-1.46c-27-50.21-37.42-62.23-39.08-64,2.37-8.88,9.65-54.36,10-56.32a.54.54,0,1,0-1.07-.17c-.08.48-7.76,48.49-10,56.5A.53.53,0,0,0,1133.13,715.68Z" transform="translate(-619.91 26.64)"/><path d="M1181.24,633.41s1.52,14.54-1.75,22.63-45.62,3.93-56.41-3.36c-4.43-3,5-30.55,5-30.55Z" transform="translate(-619.91 26.64)"/><path class="cls-13" d="M1120.78,652.76a13,13,0,0,0,1.88-.49,12.56,12.56,0,0,0,2.78-1.36,14.62,14.62,0,0,0,2.49-2c4.67-4.76,6-12,6.11-12.31a.55.55,0,0,0-.44-.64.54.54,0,0,0-.63.44c0,.08-1.45,7.57-6.19,12.1a13.87,13.87,0,0,1-1.93,1.54,11.84,11.84,0,0,1-2.66,1.28,12.09,12.09,0,0,1-1.18.32C1120.94,652,1120.86,652.35,1120.78,652.76Z" transform="translate(-619.91 26.64)"/><path class="cls-13" d="M1146.91,656.82a.55.55,0,0,0,.51.56h0a.54.54,0,0,0,.57-.5c.09-2,.21-4,.33-6.06,0-.36.05-.71.07-1.07.43-6.64,1-13.17,1.38-17.77,0-.37.07-.73.1-1.08.09-1,.17-1.91.24-2.67l-1.07-.17c-.07.76-.16,1.66-.25,2.68l-.09,1.08c-.41,4.57-1,11-1.38,17.63,0,.37,0,.73-.07,1.1C1147.13,652.65,1147,654.77,1146.91,656.82Z" transform="translate(-619.91 26.64)"/><path class="cls-13" d="M1145.36,649.81a13.33,13.33,0,0,0,1.9.74c.34.1.7.2,1.07.27a7.28,7.28,0,0,0,1,.14,3.91,3.91,0,0,0,1.83-.29,2.22,2.22,0,0,0,1.23-1.68c.4-2,1.23-10.51,1.79-16.5,0-.36.07-.72.1-1.07.09-1,.17-1.83.23-2.57l-1.08-.14c-.07.75-.14,1.63-.24,2.6,0,.35-.06.71-.1,1.08-.56,6-1.38,14.42-1.77,16.4a1.17,1.17,0,0,1-.65.93,3.78,3.78,0,0,1-2.3,0c-.36-.08-.73-.19-1.07-.3a12.1,12.1,0,0,1-1.49-.59.56.56,0,0,0-.73.24A.53.53,0,0,0,1145.36,649.81Z" transform="translate(-619.91 26.64)"/><polygon class="cls-15" points="543.61 827.87 542.54 836.49 531.67 836.49 531.04 827.42 543.61 827.87"/><path d="M1149.8,651.89V799.8l.16,2.35h16.14c.17-1.07.56-2.8,1.07-5l.35-1.52c2.1-9,5.71-24.46,6.34-37.87.91-19.14.65-44,.65-44,1.85-14.23,4.74-45,6.17-60.83,0-.38.07-.74.1-1.1.49-5.3.78-8.63.78-8.63-2.59-1.1-7.31-.35-12.32,1.09l-1.09.32A149.11,149.11,0,0,0,1149.8,651.89Z" transform="translate(-619.91 26.64)"/><path class="cls-13" d="M1149.8,795.61v1.52h17.37l.35-1.52Z" transform="translate(-619.91 26.64)"/><path class="cls-13" d="M1149.8,717.11v1.41a25.38,25.38,0,0,0,6.07.64,50.13,50.13,0,0,0,7.24-.57.68.68,0,0,0,.55-.79.66.66,0,0,0-.77-.56C1162.8,717.25,1154.9,718.55,1149.8,717.11Z" transform="translate(-619.91 26.64)"/><path class="cls-13" d="M1164.47,797.13h1.1c.09-.47.18-1,.28-1.52,1.43-7.66,4-22,5.4-31.28,1.89-13,1-49,1-50.37,1.43-12.38,4.35-54.77,4.38-55.2a.54.54,0,1,0-1.08-.08c0,.43-3,42.89-4.39,55.19V714c0,.37.95,37.14-1,50.22-1.36,9.37-4,23.84-5.42,31.44C1164.65,796.16,1164.55,796.67,1164.47,797.13Z" transform="translate(-619.91 26.64)"/><path d="M1147.44,824.53a2.71,2.71,0,0,0,0,.29c0,.44,0,.84,0,1.18,0,.74.1,1.2.1,1.2h24.49a14,14,0,0,0,0-2.38c-.16-2.53-1-6.52-4.37-9.16-4.63-3.62-2.85-2.87-3.8-4.52-.1-.18-.94-3-1-3.18-.79-1.71-1.53-2.52-5.91-2.52-5.82,0-6.33,2.85-7,4.36a29.37,29.37,0,0,0-1,3.49c-.15.63-.3,1.3-.44,2-.36,1.7-.7,3.48-.92,4.91A25.05,25.05,0,0,0,1147.44,824.53Z" transform="translate(-619.91 26.64)"/><path class="cls-8" d="M1147.44,824.53a2.71,2.71,0,0,0,0,.29c0,.44,0,.84,0,1.18a6.91,6.91,0,0,0,2.55-3.34c1.51-4.17-.82-9.18-.92-9.39l0,0c-.15.63-.3,1.3-.44,2,.55,1.7,1.19,4.56.3,7A5.71,5.71,0,0,1,1147.44,824.53Z" transform="translate(-619.91 26.64)"/><path class="cls-8" d="M1147.45,824.82c0,1.41.14,2.38.14,2.38h24.49a14,14,0,0,0,0-2.38Z" transform="translate(-619.91 26.64)"/><path class="cls-16" d="M1156.19,812.82l.17,0a11.89,11.89,0,0,1,5.68-.12.7.7,0,0,0,.86-.49.7.7,0,0,0-.48-.87,13.33,13.33,0,0,0-6.41.11.71.71,0,0,0,.18,1.39Z" transform="translate(-619.91 26.64)"/><path class="cls-16" d="M1155.36,810.14l.18,0a11.86,11.86,0,0,1,5.67-.12.71.71,0,0,0,.38-1.36,13.3,13.3,0,0,0-6.4.11.71.71,0,0,0,.17,1.39Z" transform="translate(-619.91 26.64)"/><path class="cls-16" d="M1157.24,815.39a.52.52,0,0,0,.17,0,12.23,12.23,0,0,1,5.68-.12.69.69,0,0,0,.86-.49.71.71,0,0,0-.49-.87,13.45,13.45,0,0,0-6.4.11.71.71,0,0,0-.5.86A.7.7,0,0,0,1157.24,815.39Z" transform="translate(-619.91 26.64)"/><path class="cls-16" d="M1158.47,817.94l.17,0a12.07,12.07,0,0,1,5.68-.12.7.7,0,0,0,.37-1.36,13.13,13.13,0,0,0-6.4.11.71.71,0,0,0-.5.86A.7.7,0,0,0,1158.47,817.94Z" transform="translate(-619.91 26.64)"/><path class="cls-13" d="M1165.15,636.55a29.14,29.14,0,0,0,3,8.09,17.72,17.72,0,0,0,5.59,6.27,12.63,12.63,0,0,0,7,2.05c0-.37.06-.74.1-1.1a11.57,11.57,0,0,1-6.46-1.88,16.35,16.35,0,0,1-5.09-5.66,28.38,28.38,0,0,1-3-8,.54.54,0,1,0-1.07.2Z" transform="translate(-619.91 26.64)"/><path class="cls-15" d="M1172.15,534.77s12.25,10.66,18.84,13.58,6.58,11.56,4.63,18.22-14,69.33-14,69.33l-55.52-7.4s5.93-40.36,6.89-53.37-1.48-26.29,3.15-28.77,19.1-6.67,21-8.15S1172.15,534.77,1172.15,534.77Z" transform="translate(-619.91 26.64)"/><path class="cls-13" d="M1121.07,634.93c0,.4,0,.78,0,1.14a7.49,7.49,0,0,0,.78,3.09c1.9,3.33,17.49,5.87,32.29,7.47l.64.07c8.23.87,16.16,1.45,21.27,1.7l1.68.08c2,.08,3.29.09,3.81,0,4-.41,2.57-7.74,2.57-15.27a86.71,86.71,0,0,1,1-9.48c0-.22.06-.43.1-.65.41-2.92.92-6.2,1.48-9.61,0-.21.07-.43.1-.64,1.92-11.83,4.31-25,5.1-29.34,0-.25.09-.46.12-.64.1-.56.16-.86.16-.86a11.09,11.09,0,0,1-12.46-7.78c0-.11-.08-.21-.11-.32a11.29,11.29,0,0,1-.33-1.21,30.94,30.94,0,0,1-.21-9.74c0-.23.05-.46.07-.69.21-1.76.51-3.53.84-5.25,0-.25.09-.49.14-.74a111.2,111.2,0,0,1,3.34-12.53,4,4,0,0,0-1-1.11,4.87,4.87,0,0,0-.5-.4,16.05,16.05,0,0,0-2.65-1.56s-5.24,16.38-14.7,20.16c-.23.1-.47.18-.71.26a10.41,10.41,0,0,1-3.3.52,8.3,8.3,0,0,1-3.88-.94,6.16,6.16,0,0,1-.55-.33c-6.91-4.55-4.91-19.76-4.91-19.76l-4.33,1.06c0,1.72-.16,3.34-.31,4.88-.07.66-.14,1.3-.22,1.92a51.45,51.45,0,0,1-2.06,9.43c-.08.25-.16.5-.25.75-3.84,11-10.13,13.67-10.13,13.67s-.61-1.61-2.51,8.26c-.07.36-.14.72-.21,1.11-.32,1.72-.68,3.76-1.07,6.15-.16,1-.33,1.95-.52,3,0,.28-.11.56-.17.85-.5,2.6-1.09,5.33-1.73,8.13l-.15.65c-.53,2.34-1.1,4.72-1.66,7.09,0,.23-.1.45-.16.68C1123.39,618.67,1121,628.89,1121.07,634.93Z" transform="translate(-619.91 26.64)"/><path class="cls-17" d="M1139.58,626.13a36.81,36.81,0,0,0,16.67-1.41,65.47,65.47,0,0,0,15-6.72.38.38,0,0,0,.11-.52.36.36,0,0,0-.51-.11A64.62,64.62,0,0,1,1156,624c-7.64,2.25-18.47,3.51-26.63-3.29a.38.38,0,0,0-.53,0,.39.39,0,0,0,.05.53A22.47,22.47,0,0,0,1139.58,626.13Z" transform="translate(-619.91 26.64)"/><path class="cls-17" d="M1139.21,621.75h0c7.7,1.22,15.75-8,16.09-8.42a.38.38,0,0,0,0-.53.37.37,0,0,0-.52,0c-.08.09-8.12,9.33-15.41,8.17a.38.38,0,0,0-.43.31A.39.39,0,0,0,1139.21,621.75Z" transform="translate(-619.91 26.64)"/><path class="cls-17" d="M1178.55,608.41a8.44,8.44,0,0,0,6.53,4.94,11,11,0,0,0,1.67.16c0-.21.07-.43.1-.64-3.95-.08-6.62-2.13-7.71-4.71a5.78,5.78,0,0,1,2.59-7.66c3.82-2,3.29-4.22,2.72-6.6s-1.13-4.76,1.76-7.74a7.74,7.74,0,0,1,5.55-2.64h.19c0-.25.09-.46.12-.64h-.31a8.32,8.32,0,0,0-6,2.83c-3.13,3.23-2.46,6.06-1.92,8.34s1,4.14-2.39,5.87A6.51,6.51,0,0,0,1178.55,608.41Z" transform="translate(-619.91 26.64)"/><path class="cls-17" d="M1157.24,596.83a11.87,11.87,0,0,0,1.56.37c4.39.77,10.61-.12,14.75-3.2a12.15,12.15,0,0,0,4.94-10,42.11,42.11,0,0,1,1.17-10.08,11.29,11.29,0,0,1-.33-1.21,31.46,31.46,0,0,0-.85,3.64,48.75,48.75,0,0,0-.63,7.64,11.34,11.34,0,0,1-4.68,9.48c-4.5,3.34-11.54,4-15.75,2.74a6.71,6.71,0,0,1-4.77-6.61c.17-3.46,3.18-6.1,8-7.06,6.11-1.21,6.76-4.94,7.46-8.88.65-3.75,1.34-7.62,6.32-10.51l.31-.18a4.31,4.31,0,0,1,4.34,0c0-.23.05-.46.07-.69a4.9,4.9,0,0,0-4.71.13l-.33.18c-5.24,3-6,7.25-6.63,11-.68,3.88-1.27,7.23-7,8.36-5.17,1-8.37,3.88-8.56,7.66A7.35,7.35,0,0,0,1157.24,596.83Z" transform="translate(-619.91 26.64)"/><path class="cls-17" d="M1144.18,558.65c3.11-.85,5.58-2.7,6.17-4.36a1.85,1.85,0,0,0-.47-2.12,8.79,8.79,0,0,1-3.17-5.62c-.07.66-.14,1.3-.22,1.92a10.09,10.09,0,0,0,3,4.18,1.21,1.21,0,0,1,.31,1.41c-.52,1.43-2.65,3-5.33,3.84C1144.35,558.15,1144.27,558.4,1144.18,558.65Z" transform="translate(-619.91 26.64)"/><path class="cls-17" d="M1156.27,564.86A3.51,3.51,0,0,0,1159,567a4.48,4.48,0,0,0,1.32,0c2.29-.29,3.86-2.2,4.18-5.11a7,7,0,0,1,.19-1c-.23.1-.47.18-.71.26a4.83,4.83,0,0,0-.11.68c-.29,2.59-1.65,4.29-3.63,4.54a3.13,3.13,0,0,1-3.38-1.71,6.41,6.41,0,0,1-.06-3.93,6.16,6.16,0,0,1-.55-.33A7.17,7.17,0,0,0,1156.27,564.86Z" transform="translate(-619.91 26.64)"/><path class="cls-17" d="M1139.83,586.91a7,7,0,0,0,4,2.87,2.49,2.49,0,0,0,1.54-.17c1.37-.66,1.79-2.66,1.15-5.5-.74-3.28,1.45-4.3,3.77-5.38,2-.92,4-1.87,4-4.29,0-1.74-1-3-3.06-3.59a7.71,7.71,0,0,0-8.89,3.73,27.62,27.62,0,0,0-3.18,8A5.49,5.49,0,0,0,1139.83,586.91Zm3.07-12a7.35,7.35,0,0,1,3.17-3,6.94,6.94,0,0,1,4.21-.61,7.38,7.38,0,0,1,.78.19c1.76.53,2.61,1.5,2.6,3,0,2-1.78,2.84-3.66,3.72-2.34,1.08-5,2.31-4.13,6.11.57,2.51.27,4.25-.81,4.76s-3.15-.45-4.73-2.5C1138.88,584.63,1139.8,580.5,1142.9,574.9Z" transform="translate(-619.91 26.64)"/><path class="cls-17" d="M1178.79,555.69A10.19,10.19,0,0,0,1180,557c0-.25.09-.49.14-.74a11.12,11.12,0,0,1-.87-1c-1.45-1.88-.54-6,2.57-11.61a6.7,6.7,0,0,1,.68-1,4.87,4.87,0,0,0-.5-.4,8.46,8.46,0,0,0-.74,1.1,27.62,27.62,0,0,0-3.18,8A5.53,5.53,0,0,0,1178.79,555.69Z" transform="translate(-619.91 26.64)"/><path class="cls-17" d="M1125.87,608.2c.82.66,1.06,1.78,1.35,3.18.42,2,1,4.44,3.57,6.3a6.88,6.88,0,0,0,2.81,1.18,8.17,8.17,0,0,0,6.83-2.16c2.28-2.16,2.78-5,1.3-7.5a3.59,3.59,0,0,1-.69-2.63c.25-1,1.31-1.63,2.43-2.29,1.56-.92,3.33-2,3.2-4.27a4.69,4.69,0,0,0-2.72-4.08c-2.76-1.35-6.71-.69-10.06,1.68a11.43,11.43,0,0,1-6.05,2.17l-.15.65a12,12,0,0,0,6.56-2.29A10.77,10.77,0,0,1,1142,596a6,6,0,0,1,1.64.52,4.07,4.07,0,0,1,2.37,3.54c.1,1.9-1.35,2.76-2.89,3.67-1.19.7-2.41,1.43-2.73,2.68a4.17,4.17,0,0,0,.77,3.13,5.26,5.26,0,0,1-1.2,6.7,7.05,7.05,0,0,1-8.83.92c-2.42-1.71-2.89-3.94-3.32-5.9-.32-1.55-.62-3-1.81-3.73C1126,607.75,1125.93,608,1125.87,608.2Z" transform="translate(-619.91 26.64)"/><path class="cls-17" d="M1151.5,608.48a3.72,3.72,0,0,0,1.6.66,8,8,0,0,0,4.82-.93c1.7-.87,2.82-.23,4.35.67a10.68,10.68,0,0,0,6.32,1.81,4.84,4.84,0,0,0,4.84-4.88,4.21,4.21,0,0,0-4-4.45,13.28,13.28,0,0,0-4.79.7,8,8,0,0,1-6.7-.31,4.66,4.66,0,0,0-4-.23c-2.36,1.06-3.3,4.09-3.33,4.21a.08.08,0,0,0,0,0A2.63,2.63,0,0,0,1151.5,608.48Zm-.32-2.58c.07-.23,1-2.89,3-3.79a4.09,4.09,0,0,1,3.52.22,8.58,8.58,0,0,0,7.15.35,12.47,12.47,0,0,1,4.57-.68,3.6,3.6,0,0,1,3.39,3.81,4.2,4.2,0,0,1-4.23,4.23,9.88,9.88,0,0,1-6-1.72,8.05,8.05,0,0,0-2.53-1.12,3.78,3.78,0,0,0-2.43.43c-2.17,1.11-4.54,1.25-5.75.33A2,2,0,0,1,1151.18,605.9Z" transform="translate(-619.91 26.64)"/><path class="cls-17" d="M1174.34,646.58a4.48,4.48,0,0,0,1.76,1.82l1.68.08a1.09,1.09,0,0,0,.08-.15,3.8,3.8,0,0,1-2.95-2.06c-1.22-2.27-.62-6,2.49-8.41s2-4,.86-5.66-2.19-3.13-.84-5.89a4.92,4.92,0,0,1,3-2.68,7.73,7.73,0,0,1,3.61-.12c.4.07.78.16,1.15.26,0-.22.06-.43.1-.65a9.2,9.2,0,0,0-5-.1,5.51,5.51,0,0,0-3.37,3c-1.52,3.1-.18,5,.89,6.54s1.93,2.75-.72,4.78C1173.64,639.93,1173,644.06,1174.34,646.58Z" transform="translate(-619.91 26.64)"/><path class="cls-17" d="M1121.07,634.93c0,.4,0,.78,0,1.14a6.13,6.13,0,0,1,2.87-2.77c1.57-.66,3.43-.41,5.53.72a9.2,9.2,0,0,1,4.38,4.82c1.25,2.62,2.27,4,8.73,2.71a16.94,16.94,0,0,1,6.26-.23c2.76.49,4.51,1.81,5.11,3.29a3.41,3.41,0,0,1,.19,2l.64.07a4.09,4.09,0,0,0-.23-2.34c-1.08-2.63-5.32-4.83-12.1-3.44-6.29,1.28-6.94-.09-8-2.35a9.85,9.85,0,0,0-4.66-5.12c-2.28-1.23-4.33-1.48-6.08-.75A6.43,6.43,0,0,0,1121.07,634.93Z" transform="translate(-619.91 26.64)"/><path class="cls-17" d="M1157.31,640.24a5.65,5.65,0,0,0,4.52,4.66l.33,0c3.88.41,7-1.64,8.83-5.77,1.4-3.2,2.36-6.51-.07-9.08l-.05,0c-.12-.09-3.09-2.22-5.69-1.64a3.83,3.83,0,0,0-2.57,2,7.33,7.33,0,0,0-.88,4.56c.11,1.35.16,2-2,2.46A2.66,2.66,0,0,0,1157.31,640.24Zm2.55-2.15c2.58-.58,2.63-1.57,2.51-3.14a6.6,6.6,0,0,1,.79-4.19,3.24,3.24,0,0,1,2.16-1.72c2.21-.49,4.88,1.32,5.16,1.52,1.73,1.85,1.71,4.28-.07,8.35-1.2,2.73-3.59,5.88-8.18,5.39a5,5,0,0,1-4.28-4.09C1157.89,639.12,1158.55,638.39,1159.86,638.09Z" transform="translate(-619.91 26.64)"/><path class="cls-17" d="M1129.57,591.65a6.18,6.18,0,0,0,3.2-4c.59-2.48-.33-5.17-1.23-7-.07.36-.14.72-.21,1.11a9.75,9.75,0,0,1,.82,5.78,5.43,5.43,0,0,1-2.41,3.33C1129.69,591.08,1129.63,591.36,1129.57,591.65Z" transform="translate(-619.91 26.64)"/><path class="cls-16" d="M1160.22,556.41a3.46,3.46,0,0,1-2.23-.79c-4.11-3.26-3-16.15-3-16.7a.65.65,0,0,1,.7-.59.66.66,0,0,1,.6.71c-.31,3.53-.45,13.21,2.5,15.55a2.54,2.54,0,0,0,2.56.3c7.17-2.46,12.14-18.24,12.19-18.4a.65.65,0,0,1,.82-.43.65.65,0,0,1,.42.82c-.21.68-5.22,16.58-13,19.25A4.71,4.71,0,0,1,1160.22,556.41Z" transform="translate(-619.91 26.64)"/><path d="M1149.48,513.91a22,22,0,0,0-1.84-2.51c-.66-.64-6.71-4.83-6.29-6.72s5.82.42,5.82.42-5.66-5.5-5.32-7.13,6.45,1.26,6.45,1.26-2.87-7.62-1.77-8.65,5.77,5,5.77,5-1.71-9.45,1-8.85c1,.22,3.21,6.79,3.21,6.79s3.45-8.58,6.27-7.31c1.34.61.32,6.28.32,6.28s3.68-4.9,5.76-4.81-.47,6.35-.47,6.35,4.55-3.09,7.48-2.23-2,4.47-2,4.47,6-1.66,8.41-.2-4.85,3.81-4.85,3.81,5.46,0,6.26,2.15-7,2.46-7,2.46,5.33,2.87,4.74,4.59-6,.24-6,.24,4.46,5.08,2.41,5.92-6.57-1.31-6.57-1.31Z" transform="translate(-619.91 26.64)"/><path class="cls-15" d="M1153.83,517.19s-1.65-4.25-5.09-3-2.78,13,3.86,12.19Z" transform="translate(-619.91 26.64)"/><path class="cls-15" d="M1173,536.87s1,1.38-5.28,3.94a13.83,13.83,0,0,1-9.74-.06,13.57,13.57,0,0,1-1.41-.72,18.21,18.21,0,0,0-1.07-9l-.08-.17,15.91-10.44Z" transform="translate(-619.91 26.64)"/><path d="M1169.69,527.43s-2.77,11.74-11.71,13.32c-1.6.34-1.41-.72-1.41-.72a18.21,18.21,0,0,0-1.07-9Z" transform="translate(-619.91 26.64)"/><path class="cls-15" d="M1163.82,534.07c-6.81,2.11-12.66-.33-14-6.28-.31-1.43-.61-3.53-.86-5.72,0,0,0,0,0-.06,0-.47-.11-.94-.16-1.41s-.07-.68-.1-1c-.41-3.91-.66-7.46-.66-7.46,0-9.81,9.12-14.43,17.12-11.55s6.29,15,6.86,20.77S1169.66,532.27,1163.82,534.07Z" transform="translate(-619.91 26.64)"/><path d="M1155.79,525.65a6.58,6.58,0,0,0,5-2.53.35.35,0,0,0-.08-.48.34.34,0,0,0-.47.08,5.59,5.59,0,0,1-5.61,2.1.36.36,0,0,0-.41.26.35.35,0,0,0,.26.41A6.06,6.06,0,0,0,1155.79,525.65Z" transform="translate(-619.91 26.64)"/><path d="M1160.26,515.24c0,.65-.25,1.21-.67,1.24s-.79-.48-.83-1.14.26-1.21.67-1.24S1160.22,514.58,1160.26,515.24Z" transform="translate(-619.91 26.64)"/><path d="M1153.55,516.1c0,.66-.26,1.21-.67,1.24s-.79-.48-.83-1.14.25-1.21.67-1.24S1153.51,515.44,1153.55,516.1Z" transform="translate(-619.91 26.64)"/><path d="M1161.92,512.45c2,.2,2.33-2,.43-2.9a5.22,5.22,0,0,0-2.72-.64c-2.59.28-2.46,2.14-1.08,2.74A13.92,13.92,0,0,0,1161.92,512.45Z" transform="translate(-619.91 26.64)"/><path d="M1150.63,513.73c-2,.41-2.53-1.74-.73-2.84a5.2,5.2,0,0,1,2.63-.93c2.61,0,2.68,1.86,1.36,2.6A13.78,13.78,0,0,1,1150.63,513.73Z" transform="translate(-619.91 26.64)"/><path d="M1155.73,522a.32.32,0,0,1-.16,0c-1.69-.91-2-1.45-2.11-1.55a.32.32,0,0,1,0-.3l1.88-3.72,0,0a6.13,6.13,0,0,0,.28-3.25.31.31,0,0,1,.62,0c.11,1.51.15,2.82-.37,3.63l-1.77,3.51a7.23,7.23,0,0,0,1.76,1.19.32.32,0,0,1,.13.43A.35.35,0,0,1,1155.73,522Z" transform="translate(-619.91 26.64)"/><path d="M1171.7,511.24a2.41,2.41,0,0,1-.07.36s-1.51.76-1.92,4l-2.09.15a15.53,15.53,0,0,1-.75-6.85,3.84,3.84,0,0,0-.06-1c-.83-3.83-7.88-6.59-12.42-5.16a9.2,9.2,0,0,0-6,6.35,16.55,16.55,0,0,0-.25,3.75,11.91,11.91,0,0,1,1.75-9.82c4.16-6.14,14-7,18.54-1.74A12.27,12.27,0,0,1,1171.7,511.24Z" transform="translate(-619.91 26.64)"/><path d="M1171.7,511.24a2.41,2.41,0,0,1-.07.36s-1.51.76-1.92,4l-2.09.15a15.53,15.53,0,0,1-.75-6.85,3.84,3.84,0,0,0-.06-1Z" transform="translate(-619.91 26.64)"/><path d="M1163.61,504.1s-3.66-1-5.28-.11-4,2-6,.91-3.66,3.1-3.66,3.1,1.54-7.37,7.5-6.57S1162.08,501.68,1163.61,504.1Z" transform="translate(-619.91 26.64)"/><path class="cls-14" d="M1157.43,527.78l-.27,0a.37.37,0,0,1-.28-.44.37.37,0,0,1,.44-.28,2.34,2.34,0,0,0,2.21-.74.37.37,0,0,1,.56.48A3,3,0,0,1,1157.43,527.78Z" transform="translate(-619.91 26.64)"/><path class="cls-15" d="M1169.84,513.57s1.65-3.46,5.09-2.23,2.79,13-3.85,12.19Z" transform="translate(-619.91 26.64)"/><ellipse class="cls-16" cx="553.73" cy="547.79" rx="1.05" ry="1.06"/><path d="M1171.94,519.29h-.07a.32.32,0,0,1-.25-.37c0-.15.67-3.6,3.64-4.42a.31.31,0,0,1,.39.22.33.33,0,0,1-.22.39c-2.59.71-3.19,3.89-3.19,3.92A.31.31,0,0,1,1171.94,519.29Z" transform="translate(-619.91 26.64)"/><path d="M1174.63,517.94a.3.3,0,0,1-.22-.08s-.67-.6-1.44-1.19a.32.32,0,0,1,.37-.51c.8.61,1.46,1.2,1.49,1.23a.33.33,0,0,1,0,.45A.32.32,0,0,1,1174.63,517.94Z" transform="translate(-619.91 26.64)"/><path class="cls-14" d="M1112.09,589.54a.51.51,0,0,0,.45-.27l3.13-5.56a.52.52,0,0,0-.19-.72.51.51,0,0,0-.71.2l-3.13,5.56a.53.53,0,0,0,.19.72A.51.51,0,0,0,1112.09,589.54Z" transform="translate(-619.91 26.64)"/><path d="M1146.73,541.71s-4.76,22.86-8.2,34.69-11.09,28.84-11.87,28.47c0,0-1.57-20.66,3.21-31.12s6.9-24.62,9.68-28.67A7.71,7.71,0,0,1,1146.73,541.71Z" transform="translate(-619.91 26.64)"/><path class="cls-15" d="M1119,590.69s2-4.94,3.84-6.85a4.4,4.4,0,0,1,4.43-1l-.22,2.23s7.76.43,8.7,1.77-1,2.92-1,2.92.48-.3.37,1.25-2.1,2.36-2.1,2.36a2.43,2.43,0,0,1,.13,1.89c-.27,1.36-2.25,2.43-2.25,2.43a1.59,1.59,0,0,1-1.07,2.39,9.19,9.19,0,0,1-7.46-1C1120.7,598.09,1117.55,595.83,1119,590.69Z" transform="translate(-619.91 26.64)"/><path d="M1188.34,546.6a36.18,36.18,0,0,0-16.27,22c-4,15.52,2.12,38.06,14,45.11,0,0,4,3.66.91,9.75,0,0-25.1-8.53-25.1-42.71s19.27-38.24,19.27-38.24C1183.55,542,1187.12,544.52,1188.34,546.6Z" transform="translate(-619.91 26.64)"/><path class="cls-14" d="M1187.45,580.8l-8.38-15.08c-.07.62-.11,1.24-.16,1.86l7.63,13.74a.51.51,0,0,0,.45.27.59.59,0,0,0,.26-.07A.53.53,0,0,0,1187.45,580.8Z" transform="translate(-619.91 26.64)"/><path class="cls-15" d="M1195.89,554.9l.42.6.38.58.77,1.16c.51.77,1,1.55,1.49,2.32s1,1.56,1.47,2.34,1,1.56,1.43,2.35q1.41,2.37,2.78,4.77l1.35,2.42c.44.81.89,1.62,1.32,2.44.89,1.63,1.73,3.29,2.57,5,.42.84.83,1.68,1.24,2.53s.81,1.71,1.2,2.57c.79,1.74,1.57,3.48,2.29,5.31l.27.68.27.69c.17.47.35.92.52,1.4l.51,1.43c.17.49.33,1,.49,1.48l.12.37.11.39.23.77c.07.27.15.51.22.79l.21.82.21.82.18.88.09.45,0,.22,0,.11v.05l0,.09c0,.23.07.46.11.69l0,.35,0,.18v.2a15.06,15.06,0,0,1,.08,1.72l0,.47c0,.16,0,.3,0,.5,0,.37-.08.74-.14,1.11,0,.1,0,.18,0,.29l-.07.32c0,.21-.1.42-.16.63s-.12.41-.19.63-.17.47-.27.7-.19.46-.3.68l-.08.17-.09.18-.2.35c-.14.24-.29.47-.43.7l-.23.33-.26.33-.54.64a7.93,7.93,0,0,1-.58.58l-.61.53-.32.25-.31.23a13.74,13.74,0,0,1-1.27.76c-.39.2-.79.37-1.19.53l-.15.06-.08,0-.06,0-.27.09-.54.16-.27.08-.26.06-.48.09-.47.09-.24,0-.21,0-.83.07a16.49,16.49,0,0,1-2.71-.09l-.29,0-.29,0-.54-.08-.27,0-.25,0-.5-.1a28.76,28.76,0,0,1-3.49-1c-1.06-.37-2-.76-3-1.18s-1.86-.83-2.75-1.27c-1.78-.88-3.47-1.8-5.12-2.76s-3.24-1.95-4.81-3-3.1-2.08-4.61-3.16l-2.25-1.65-1.11-.86-.55-.43-.58-.46a6.61,6.61,0,0,1-1.07-9.23,6.44,6.44,0,0,1,7.78-1.91l.18.08,4.66,2.15q2.36,1.08,4.7,2.12c3.12,1.38,6.23,2.7,9.23,3.76.74.27,1.48.52,2.19.74s1.41.41,2,.57a13,13,0,0,0,1.69.3l.15,0h.34c.12,0,.1,0,0,0h-.28l-.15,0-.15,0-.1,0-.11,0-.22.06-.25.09a4.23,4.23,0,0,0-.58.25,4.38,4.38,0,0,0-.69.42l-.19.13-.19.14c-.12.1-.24.2-.35.31l-.35.34c-.11.12-.22.25-.32.38l-.15.2-.15.2c-.09.13-.17.26-.25.4l-.12.21,0,.1,0,.09c-.06.13-.12.25-.17.38s-.1.25-.14.38l-.11.31a2.82,2.82,0,0,0-.07.31.4.4,0,0,0,0,.15,1,1,0,0,1,0,.12,3.32,3.32,0,0,0-.06.44c0,.09,0,.12,0,.17a.57.57,0,0,0,0,.13c0,.23,0,.27,0,.37v0h0v.05l-.11-.41-.12-.43-.15-.47-.15-.48-.17-.51-.18-.51-.09-.25-.1-.27c-.52-1.39-1.15-2.88-1.81-4.36s-1.38-3-2.12-4.52c-1.49-3-3.08-6.09-4.71-9.15s-3.32-6.11-5-9.17l-5.08-9.12,0-.09a9.1,9.1,0,0,1,3.41-12.32A8.91,8.91,0,0,1,1195.89,554.9Z" transform="translate(-619.91 26.64)"/><path class="cls-14" d="M1211,604.69a.54.54,0,0,0,.37-.16.53.53,0,0,0,0-.75c-4.48-4.43-13.29-8.65-13.67-8.83a.52.52,0,0,0-.69.25.53.53,0,0,0,.25.7c.09.05,9,4.33,13.39,8.64A.51.51,0,0,0,1211,604.69Z" transform="translate(-619.91 26.64)"/><path class="cls-14" d="M1199,596.69a.45.45,0,0,0,.16,0c2.1-.69,5.82-.19,5.86-.18a.52.52,0,0,0,.58-.45.53.53,0,0,0-.44-.6c-.16,0-4-.54-6.32.23a.53.53,0,0,0-.33.67A.51.51,0,0,0,1199,596.69Z" transform="translate(-619.91 26.64)"/><path class="cls-15" d="M1182.59,590.26s-5.83-8.2-8.22-8.94-3.47,0-3.47,0l.16,2.24s-8.56-2.77-9.81-1.92-.1,2.84-.1,2.84-.31-.42-.73.94,1,2.74,1,2.74-.52.31-.73,1.58,1.15,2.84,1.15,2.84-.63.84,0,2.73,7.6,6,12.59,6.31S1184.36,596.15,1182.59,590.26Z" transform="translate(-619.91 26.64)"/></g><g id="PRINT_1" data-name="PRINT 1"><rect class="cls-17" x="56.25" y="763.69" width="132.09" height="89.63"/><rect class="cls-3" x="45.86" y="763.7" width="132.09" height="89.63"/><path class="cls-17" d="M783.83,812.37H679.25v-61H783.83Zm-103.78-.81H783V752.17h-103Z" transform="translate(-619.91 26.64)"/><rect class="cls-17" x="51.62" y="769.45" width="0.79" height="76.4"/><rect class="cls-17" x="170.99" y="769.45" width="0.79" height="76.4"/><path class="cls-17" d="M680.2,737.05a14.57,14.57,0,0,1-14.43,14.71V737.05Z" transform="translate(-619.91 26.64)"/><path class="cls-17" d="M797.86,737.05v14.71a14.57,14.57,0,0,1-14.43-14.71Z" transform="translate(-619.91 26.64)"/><path class="cls-17" d="M797.86,812v14.71H783.43A14.57,14.57,0,0,1,797.86,812Z" transform="translate(-619.91 26.64)"/><path class="cls-17" d="M680.2,826.68H665.77V812A14.57,14.57,0,0,1,680.2,826.68Z" transform="translate(-619.91 26.64)"/><rect class="cls-17" x="75.36" y="763.7" width="12.13" height="89.63"/><path class="cls-7" d="M78.77,782.71h5.32a3.41,3.41,0,0,1,3.41,3.41v67.21a0,0,0,0,1,0,0H75.36a0,0,0,0,1,0,0V786.11A3.41,3.41,0,0,1,78.77,782.71Z"/><ellipse class="cls-17" cx="81.32" cy="819.04" rx="1.67" ry="1.71"/><ellipse class="cls-17" cx="81.32" cy="828.83" rx="1.67" ry="1.71"/><ellipse class="cls-17" cx="81.32" cy="838.61" rx="1.67" ry="1.71"/><rect class="cls-17" x="134.15" y="763.7" width="12.13" height="89.63"/><path class="cls-7" d="M137.56,782.71h5.32a3.41,3.41,0,0,1,3.41,3.41v67.21a0,0,0,0,1,0,0H134.15a0,0,0,0,1,0,0V786.11A3.41,3.41,0,0,1,137.56,782.71Z"/><path class="cls-17" d="M761.8,792.4a1.68,1.68,0,1,1-1.68-1.71A1.69,1.69,0,0,1,761.8,792.4Z" transform="translate(-619.91 26.64)"/><path class="cls-17" d="M761.8,802.18a1.68,1.68,0,1,1-1.68-1.7A1.7,1.7,0,0,1,761.8,802.18Z" transform="translate(-619.91 26.64)"/><path class="cls-17" d="M761.8,812a1.68,1.68,0,1,1-1.68-1.71A1.69,1.69,0,0,1,761.8,812Z" transform="translate(-619.91 26.64)"/><path class="cls-17" d="M708.19,785.86H694.47v-8.1h13.72Zm-12.13-1.62H706.6v-4.86H696.06Z" transform="translate(-619.91 26.64)"/><path class="cls-17" d="M767,785.86H753.27v-8.1H767Zm-12.12-1.62h10.53v-4.86H754.86Z" transform="translate(-619.91 26.64)"/><path class="cls-17" d="M712.54,737.05h-3.71V725a8,8,0,0,1,8-8.11h25a8,8,0,0,1,7.95,8.11v12.07h-3.7V725a4.3,4.3,0,0,0-4.25-4.33h-25a4.3,4.3,0,0,0-4.25,4.33Z" transform="translate(-619.91 26.64)"/><path class="cls-7" d="M742.21,721.61V715.7a1.92,1.92,0,0,0-1.9-1.94h-22a1.92,1.92,0,0,0-1.9,1.94v5.91Z" transform="translate(-619.91 26.64)"/></g></g></svg>